999
DXF created from QGIS
  0
SECTION
  2
HEADER
  9
$ACADVER
  1
AC1015
  9
$EXTMIN
 10
-96.93645257512547175
 20
32.83641568326819993
  9
$EXTMAX
 10
-96.90515686229805681
 20
32.85356087354234944
  9
$LTSCALE
 40
1.0
  9
$PDMODE
 70
    33
  9
$PDSIZE
 40
     1
  9
$PSLTSCALE
 70
     0
  9
$HANDSEED
  5
9999999
  9
$DWGCODEPAGE
  3
ANSI_1252
  0
ENDSEC
  0
SECTION
  2
TABLES
  0
TABLE
  2
LTYPE
  5
64
100
AcDbSymbolTable
 70
     5
  0
LTYPE
  5
65
100
AcDbSymbolTableRecord
100
AcDbLinetypeTableRecord
  2
ByLayer
 70
    64
  3
Defaultstyle
 72
    65
 73
     0
 40
0.0
  0
LTYPE
  5
66
100
AcDbSymbolTableRecord
100
AcDbLinetypeTableRecord
  2
ByBlock
 70
    64
  3
Defaultstyle
 72
    65
 73
     0
 40
0.0
  0
LTYPE
  5
67
100
AcDbSymbolTableRecord
100
AcDbLinetypeTableRecord
  2
CONTINUOUS
 70
    64
  3
Defaultstyle
 72
    65
 73
     0
 40
0.0
  0
LTYPE
  5
68
100
AcDbSymbolTableRecord
100
AcDbLinetypeTableRecord
  2
DASH
 70
    64
  3

 72
    65
 73
     2
 40
0.02335619738710756
 49
0.01796630568239043
 74
     0
 49
-0.00538989170471713
 74
     0
  0
LTYPE
  5
69
100
AcDbSymbolTableRecord
100
AcDbLinetypeTableRecord
  2
DOT
 70
    64
  3

 72
    65
 73
     2
 40
0.01077978340943426
 49
0.00538989170471713
 74
     0
 49
-0.00538989170471713
 74
     0
  0
LTYPE
  5
6a
100
AcDbSymbolTableRecord
100
AcDbLinetypeTableRecord
  2
DASHDOT
 70
    64
  3

 72
    65
 73
     4
 40
0.03413598079654181
 49
0.01796630568239043
 74
     0
 49
-0.00538989170471713
 74
     0
 49
0.00538989170471713
 74
     0
 49
-0.00538989170471713
 74
     0
  0
LTYPE
  5
6b
100
AcDbSymbolTableRecord
100
AcDbLinetypeTableRecord
  2
DASHDOTDOT
 70
    64
  3

 72
    65
 73
     6
 40
0.04491576420597607
 49
0.01796630568239043
 74
     0
 49
-0.00538989170471713
 74
     0
 49
0.00538989170471713
 74
     0
 49
-0.00538989170471713
 74
     0
 49
0.00538989170471713
 74
     0
 49
-0.00538989170471713
 74
     0
  0
ENDTAB
  0
TABLE
  2
BLOCK_RECORD
  5
6c
100
AcDbSymbolTable
 70
     0
  0
BLOCK_RECORD
  5
6d
100
AcDbSymbolTableRecord
100
AcDbBlockTableRecord
  2
*Model_Space
  0
BLOCK_RECORD
  5
6e
100
AcDbSymbolTableRecord
100
AcDbBlockTableRecord
  2
*Paper_Space
  0
BLOCK_RECORD
  5
6f
100
AcDbSymbolTableRecord
100
AcDbBlockTableRecord
  2
*Paper_Space0
  0
ENDTAB
  0
TABLE
  2
APPID
  5
70
100
AcDbSymbolTable
 70
     1
  0
APPID
  5
71
100
AcDbSymbolTableRecord
100
AcDbRegAppTableRecord
  2
ACAD
 70
     0
  0
ENDTAB
  0
TABLE
  2
VIEW
  5
72
100
AcDbSymbolTable
 70
     0
  0
ENDTAB
  0
TABLE
  2
UCS
  5
73
100
AcDbSymbolTable
 70
     0
  0
ENDTAB
  0
TABLE
  2
VPORT
  5
74
100
AcDbSymbolTable
  0
VPORT
  5
75
100
AcDbSymbolTableRecord
100
AcDbViewportTableRecord
  2
*ACTIVE
 70
     0
 10
0.0
 20
0.0
 11
1.0
 21
1.0
 12
0.0
 22
0.0
 13
0.0
 23
0.0
 14
1.0
 24
1.0
 15
1.0
 25
1.0
 16
0.0
 26
0.0
 36
1.0
 17
-96.92080471871176428
 27
32.84498827840527468
 40
0.01714519027414951
 41
1.8253348214280678
 42
50.0
 43
0.0
 44
0.0
 50
0.0
 51
0.0
 71
     0
 72
   100
 73
     1
 74
     1
 75
     0
 76
     0
 77
     0
 78
     0
281
     0
 65
     1
110
0.0
120
0.0
111
1.0
121
0.0
112
0.0
122
1.0
 79
     0
146
0.0
 70
     0
  0
ENDTAB
  0
TABLE
  2
DIMSTYLE
  5
76
100
AcDbSymbolTable
100
AcDbDimStyleTable
 70
     0
  0
ENDTAB
  0
TABLE
  2
LAYER
  5
77
100
AcDbSymbolTable
 70
     2
  0
LAYER
  5
78
100
AcDbSymbolTableRecord
100
AcDbLayerTableRecord
  2
0
 70
    64
 62
     1
  6
CONTINUOUS
390
f
  0
LAYER
  5
79
100
AcDbSymbolTableRecord
100
AcDbLayerTableRecord
  2
Trans_RoadSegment_Full
 70
    64
 62
     1
  6
CONTINUOUS
390
f
  0
ENDTAB
  0
TABLE
  2
STYLE
  5
7a
100
AcDbSymbolTable
 70
     1
  0
STYLE
  5
7b
100
AcDbSymbolTableRecord
100
AcDbTextStyleTableRecord
  2
STANDARD
 70
    64
 40
0.0
 41
1.0
 50
0.0
 71
     0
 42
5.0
  3
romans.shx
  4

  0
ENDTAB
  0
ENDSEC
  0
SECTION
  2
BLOCKS
  0
BLOCK
  5
7c
330
6d
100
AcDbEntity
  8
0
100
AcDbBlockBegin
  2
*Model_Space
 70
     0
 10
0.0
 20
0.0
  3
*Model_Space
  1

  0
ENDBLK
  5
7d
100
AcDbEntity
  8
0
100
AcDbBlockEnd
  0
BLOCK
  5
7e
330
6e
100
AcDbEntity
  8
0
100
AcDbBlockBegin
  2
*Paper_Space
 70
     0
 10
0.0
 20
0.0
  3
*Paper_Space
  1

  0
ENDBLK
  5
7f
100
AcDbEntity
  8
0
100
AcDbBlockEnd
  0
BLOCK
  5
80
330
6f
100
AcDbEntity
  8
0
100
AcDbBlockBegin
  2
*Paper_Space0
 70
     0
 10
0.0
 20
0.0
  3
*Paper_Space0
  1

  0
ENDBLK
  5
81
100
AcDbEntity
  8
0
100
AcDbBlockEnd
  0
ENDSEC
  0
SECTION
  2
ENTITIES
  0
LWPOLYLINE
  5
82
  8
Trans_RoadSegment_Full
100
AcDbEntity
100
AcDbPolyline
  6
CONTINUOUS
420
12011595
 90
     2
 70
     0
 43
0.00233561973871076
 10
-96.91455199959256106
 20
32.83693200007223822
 10
-96.91466499959238945
 20
32.83693100007224075
  0
LWPOLYLINE
  5
83
  8
Trans_RoadSegment_Full
100
AcDbEntity
100
AcDbPolyline
  6
CONTINUOUS
420
12011595
 90
     2
 70
     0
 43
0.00233561973871076
 10
-96.91453699959259893
 20
32.83716800007186976
 10
-96.91455199959256106
 20
32.83693200007223822
  0
LWPOLYLINE
  5
84
  8
Trans_RoadSegment_Full
100
AcDbEntity
100
AcDbPolyline
  6
CONTINUOUS
420
12011595
 90
     2
 70
     0
 43
0.00233561973871076
 10
-96.9140719995933182
 20
32.83601000007365656
 10
-96.9139269995935706
 20
32.8365370000728376
  0
LWPOLYLINE
  5
85
  8
Trans_RoadSegment_Full
100
AcDbEntity
100
AcDbPolyline
  6
CONTINUOUS
420
12011595
 90
     2
 70
     0
 43
0.00233561973871076
 10
-96.9139269995935706
 20
32.8365370000728376
 10
-96.91320299959465956
 20
32.83644400007295872
  0
LWPOLYLINE
  5
86
  8
Trans_RoadSegment_Full
100
AcDbEntity
100
AcDbPolyline
  6
CONTINUOUS
420
12011595
 90
     3
 70
     0
 43
0.00233561973871076
 10
-96.91676799958912625
 20
32.84862000005409755
 10
-96.91659799958938493
 20
32.84854300005417826
 10
-96.9162049995900361
 20
32.84833300005453793
  0
LWPOLYLINE
  5
87
  8
Trans_RoadSegment_Full
100
AcDbEntity
100
AcDbPolyline
  6
CONTINUOUS
420
12011595
 90
     7
 70
     0
 43
0.00233561973871076
 10
-96.91484799959209795
 20
32.84054800006657615
 10
-96.91483599959212825
 20
32.84081700006618121
 10
-96.91482399959215854
 20
32.84098200006593515
 10
-96.91481299959218632
 20
32.8411670000656386
 10
-96.91478999959218754
 20
32.84132900006540012
 10
-96.91472799959228723
 20
32.84165100006487137
 10
-96.91461299959246389
 20
32.84207900006424552
  0
LWPOLYLINE
  5
88
  8
Trans_RoadSegment_Full
100
AcDbEntity
100
AcDbPolyline
  6
CONTINUOUS
420
12011595
 90
     2
 70
     0
 43
0.00233561973871076
 10
-96.91222599959621675
 20
32.84543300005901756
 10
-96.91213299959633787
 20
32.84554300005885352
  0
LWPOLYLINE
  5
89
  8
Trans_RoadSegment_Full
100
AcDbEntity
100
AcDbPolyline
  6
CONTINUOUS
420
12011595
 90
     7
 70
     0
 43
0.00233561973871076
 10
-96.9103119995991733
 20
32.84400400006126119
 10
-96.9102619995992427
 20
32.84391900006136211
 10
-96.91010899959945846
 20
32.84374700006162584
 10
-96.90988199959986105
 20
32.84352500006195896
 10
-96.90951699960038468
 20
32.84295800006287891
 10
-96.90945599960048185
 20
32.84285100006303537
 10
-96.90943999960052224
 20
32.84279800006311234
  0
LWPOLYLINE
  5
8a
  8
Trans_RoadSegment_Full
100
AcDbEntity
100
AcDbPolyline
  6
CONTINUOUS
420
12011595
 90
     5
 70
     0
 43
0.00233561973871076
 10
-96.93325799956352284
 20
32.83668100007258772
 10
-96.93308899956383584
 20
32.83665700007264832
 10
-96.93232999956501317
 20
32.83659000007276063
 10
-96.93186799956572486
 20
32.83657400007274418
 10
-96.93068499956751793
 20
32.83657300007274671
  0
LWPOLYLINE
  5
8b
  8
Trans_RoadSegment_Full
100
AcDbEntity
100
AcDbPolyline
  6
CONTINUOUS
420
12011595
 90
     2
 70
     0
 43
0.00233561973871076
 10
-96.92415299957770003
 20
32.83660200007273033
 10
-96.92132699958204967
 20
32.83658800007276568
  0
LWPOLYLINE
  5
8c
  8
Trans_RoadSegment_Full
100
AcDbEntity
100
AcDbPolyline
  6
CONTINUOUS
420
12011595
 90
     5
 70
     0
 43
0.00233561973871076
 10
-96.93885899955483865
 20
32.83741900007146342
 10
-96.9385409995553573
 20
32.83741800007146594
 10
-96.93489199956098901
 20
32.83740100007150886
 10
-96.93469799956130828
 20
32.83739800007151644
 10
-96.93446999956165655
 20
32.83737600007151514
  0
LWPOLYLINE
  5
8d
  8
Trans_RoadSegment_Full
100
AcDbEntity
100
AcDbPolyline
  6
CONTINUOUS
420
12011595
 90
     3
 70
     0
 43
0.00233561973871076
 10
-96.93386099956262569
 20
32.84894500005356122
 10
-96.93341199956330456
 20
32.84889600005362809
 10
-96.93300399956393676
 20
32.84883500005372525
  0
LWPOLYLINE
  5
8e
  8
Trans_RoadSegment_Full
100
AcDbEntity
100
AcDbPolyline
  6
CONTINUOUS
420
12011595
 90
     2
 70
     0
 43
0.00233561973871076
 10
-96.91491199959205005
 20
32.83692500007219905
 10
-96.91492499959201723
 20
32.8367540000725171
  0
LWPOLYLINE
  5
8f
  8
Trans_RoadSegment_Full
100
AcDbEntity
100
AcDbPolyline
  6
CONTINUOUS
420
12011595
 90
     2
 70
     0
 43
0.00233561973871076
 10
-96.92232699958049125
 20
32.84415800006098607
 10
-96.92232699958049125
 20
32.84435800006070849
  0
LWPOLYLINE
  5
90
  8
Trans_RoadSegment_Full
100
AcDbEntity
100
AcDbPolyline
  6
CONTINUOUS
420
12011595
 90
     2
 70
     0
 43
0.00233561973871076
 10
-96.92232699958049125
 20
32.84435800006070849
 10
-96.92198699958106545
 20
32.84437200006067314
  0
LWPOLYLINE
  5
91
  8
Trans_RoadSegment_Full
100
AcDbEntity
100
AcDbPolyline
  6
CONTINUOUS
420
12011595
 90
     2
 70
     0
 43
0.00233561973871076
 10
-96.91835299958665928
 20
32.84468400006016964
 10
-96.91849799958646372
 20
32.84489000005987691
  0
LWPOLYLINE
  5
92
  8
Trans_RoadSegment_Full
100
AcDbEntity
100
AcDbPolyline
  6
CONTINUOUS
420
12011595
 90
    22
 70
     1
 43
0.00233561973871076
 10
-96.91829099958675897
 20
32.84750200005578336
 10
-96.91831199958676279
 20
32.84752400005578465
 10
-96.91833499958670473
 20
32.84753800005574931
 10
-96.91838899958662523
 20
32.84755200005571396
 10
-96.91844599958653816
 20
32.84755000005571901
 10
-96.91849699958646625
 20
32.84753500005575688
 10
-96.91852799958638798
 20
32.84751300005581243
 10
-96.91854599958639938
 20
32.8474880000558187
 10
-96.91855199958638423
 20
32.84746500005587677
 10
-96.9185529995863817
 20
32.84743100005590577
 10
-96.91854599958639938
 20
32.84739200005600424
 10
-96.9185329995864322
 20
32.84735800005603323
 10
-96.91850999958643342
 20
32.84732700005605466
 10
-96.91847899958651169
 20
32.8473050000561102
 10
-96.91842699958658613
 20
32.84729000005614807
 10
-96.91838099958664543
 20
32.84728800005615312
 10
-96.91831399958675775
 20
32.84730700005610515
 10
-96.91828099958678422
 20
32.84733000005604708
 10
-96.91825999958683724
 20
32.84736100005602566
 10
-96.91824599958687259
 20
32.84739200005600424
 10
-96.91824399958687764
 20
32.84742000005593354
 10
-96.91826099958683471
 20
32.84747100005586162
  0
LWPOLYLINE
  5
93
  8
Trans_RoadSegment_Full
100
AcDbEntity
100
AcDbPolyline
  6
CONTINUOUS
420
12011595
 90
     2
 70
     0
 43
0.00233561973871076
 10
-96.91648999958960076
 20
32.84933200005298204
 10
-96.91649299958959318
 20
32.84941800005282175
  0
LWPOLYLINE
  5
94
  8
Trans_RoadSegment_Full
100
AcDbEntity
100
AcDbPolyline
  6
CONTINUOUS
420
12011595
 90
     3
 70
     0
 43
0.00233561973871076
 10
-96.91615699959010044
 20
32.84400100006126877
 10
-96.91616999959006762
 20
32.84416400006097092
 10
-96.91618999959001712
 20
32.84425400006085738
  0
LWPOLYLINE
  5
95
  8
Trans_RoadSegment_Full
100
AcDbEntity
100
AcDbPolyline
  6
CONTINUOUS
420
12011595
 90
     4
 70
     0
 43
0.00233561973871076
 10
-96.9160219995903276
 20
32.84827300005463258
 10
-96.91469199959237812
 20
32.84751200005581495
 10
-96.91420399959309862
 20
32.84722400005625786
 10
-96.91381599959373716
 20
32.84699900005659856
  0
LWPOLYLINE
  5
96
  8
Trans_RoadSegment_Full
100
AcDbEntity
100
AcDbPolyline
  6
CONTINUOUS
420
12011595
 90
     7
 70
     0
 43
0.00233561973871076
 10
-96.90861499960180936
 20
32.84193500006443855
 10
-96.90845599960204027
 20
32.84183700006457229
 10
-96.90811799960255257
 20
32.84158500006498116
 10
-96.9079299996028567
 20
32.84143700006524114
 10
-96.90776199960311033
 20
32.8412960000654266
 10
-96.90761999960335515
 20
32.84118600006559063
 10
-96.90753499960345607
 20
32.84114000006570677
  0
LWPOLYLINE
  5
97
  8
Trans_RoadSegment_Full
100
AcDbEntity
100
AcDbPolyline
  6
CONTINUOUS
420
12011595
 90
     6
 70
     0
 43
0.00233561973871076
 10
-96.9103119995991733
 20
32.84400400006126119
 10
-96.90979799959995944
 20
32.84357800006188199
 10
-96.90933399960067618
 20
32.843083000062677
 10
-96.90847099960200239
 20
32.84217100006407009
 10
-96.90799899960273933
 20
32.84165600006485874
 10
-96.90753499960345607
 20
32.84114000006570677
  0
LWPOLYLINE
  5
98
  8
Trans_RoadSegment_Full
100
AcDbEntity
100
AcDbPolyline
  6
CONTINUOUS
420
12011595
 90
     7
 70
     0
 43
0.00233561973871076
 10
-96.93782399955648543
 20
32.83653400007284517
 10
-96.93780499955647656
 20
32.83663000007265964
 10
-96.93779499955650181
 20
32.83665800007264579
 10
-96.93777999955653968
 20
32.8366780000725953
 10
-96.93773399955659897
 20
32.83670600007258145
 10
-96.93769699955663555
 20
32.83671300007256377
 10
-96.93538299956026094
 20
32.83658800007276568
  0
LWPOLYLINE
  5
99
  8
Trans_RoadSegment_Full
100
AcDbEntity
100
AcDbPolyline
  6
CONTINUOUS
420
12011595
 90
     2
 70
     0
 43
0.00233561973871076
 10
-96.93421299956207804
 20
32.85248800004808345
 10
-96.93416899956213229
 20
32.85325700004688088
  0
LWPOLYLINE
  5
9a
  8
Trans_RoadSegment_Full
100
AcDbEntity
100
AcDbPolyline
  6
CONTINUOUS
420
12011595
 90
     3
 70
     0
 43
0.00233561973871076
 10
-96.93184599956572356
 20
32.83725400007170947
 10
-96.93101699956702078
 20
32.83724900007172209
 10
-96.93062899956760248
 20
32.83725100007171704
  0
LWPOLYLINE
  5
9b
  8
Trans_RoadSegment_Full
100
AcDbEntity
100
AcDbPolyline
  6
CONTINUOUS
420
12011595
 90
     2
 70
     0
 43
0.00233561973871076
 10
-96.92966399956912937
 20
32.85088400005054154
 10
-96.92997799956862082
 20
32.85049500005118261
  0
LWPOLYLINE
  5
9c
  8
Trans_RoadSegment_Full
100
AcDbEntity
100
AcDbPolyline
  6
CONTINUOUS
420
12011595
 90
     3
 70
     0
 43
0.00233561973871076
 10
-96.92345799957877261
 20
32.85355700004640767
 10
-96.92319799957914483
 20
32.85339200004665372
 10
-96.9230869995793114
 20
32.85331500004679128
  0
LWPOLYLINE
  5
9d
  8
Trans_RoadSegment_Full
100
AcDbEntity
100
AcDbPolyline
  6
CONTINUOUS
420
12011595
 90
     2
 70
     0
 43
0.00233561973871076
 10
-96.91801199958723601
 20
32.84172100006480832
 10
-96.9181149995870328
 20
32.84182700006459754
  0
LWPOLYLINE
  5
9e
  8
Trans_RoadSegment_Full
100
AcDbEntity
100
AcDbPolyline
  6
CONTINUOUS
420
12011595
 90
     2
 70
     0
 43
0.00233561973871076
 10
-96.91811799958702522
 20
32.83733900007160855
 10
-96.91739799958816093
 20
32.83765400007109747
  0
LWPOLYLINE
  5
9f
  8
Trans_RoadSegment_Full
100
AcDbEntity
100
AcDbPolyline
  6
CONTINUOUS
420
12011595
 90
     4
 70
     0
 43
0.00233561973871076
 10
-96.9160219995903276
 20
32.84827300005463258
 10
-96.9160219995903276
 20
32.84836800005444957
 10
-96.91601699959028338
 20
32.84843500005433725
 10
-96.91601899959033517
 20
32.8485960000541013
  0
LWPOLYLINE
  5
a0
  8
Trans_RoadSegment_Full
100
AcDbEntity
100
AcDbPolyline
  6
CONTINUOUS
420
12011595
 90
     2
 70
     0
 43
0.00233561973871076
 10
-96.91213299959633787
 20
32.84554300005885352
 10
-96.91192999959667986
 20
32.84577800005848758
  0
LWPOLYLINE
  5
a1
  8
Trans_RoadSegment_Full
100
AcDbEntity
100
AcDbPolyline
  6
CONTINUOUS
420
12011595
 90
     3
 70
     0
 43
0.00233561973871076
 10
-96.9115649995972035
 20
32.84532100005918664
 10
-96.91147999959736126
 20
32.84523100005935703
 10
-96.9103119995991733
 20
32.84400400006126119
  0
LWPOLYLINE
  5
a2
  8
Trans_RoadSegment_Full
100
AcDbEntity
100
AcDbPolyline
  6
CONTINUOUS
420
12011595
 90
     4
 70
     0
 43
0.00233561973871076
 10
-96.90988999959984085
 20
32.8468970000567424
 10
-96.90910099960103707
 20
32.84880300005380604
 10
-96.90892299960131595
 20
32.84915200005326597
 10
-96.90808899960262579
 20
32.85065500005089234
  0
LWPOLYLINE
  5
a3
  8
Trans_RoadSegment_Full
100
AcDbEntity
100
AcDbPolyline
  6
CONTINUOUS
420
12011595
 90
     2
 70
     0
 43
0.00233561973871076
 10
-96.90808899960262579
 20
32.85065500005089234
 10
-96.90767499960327314
 20
32.85128400004992955
  0
LWPOLYLINE
  5
a4
  8
Trans_RoadSegment_Full
100
AcDbEntity
100
AcDbPolyline
  6
CONTINUOUS
420
12011595
 90
     2
 70
     0
 43
0.00233561973871076
 10
-96.93028499956818678
 20
32.83540600007455623
 10
-96.9302799995681994
 20
32.83657300007274671
  0
LWPOLYLINE
  5
a5
  8
Trans_RoadSegment_Full
100
AcDbEntity
100
AcDbPolyline
  6
CONTINUOUS
420
12011595
 90
    13
 70
     0
 43
0.00233561973871076
 10
-96.93386099956262569
 20
32.84894500005356122
 10
-96.93377499956272914
 20
32.84923400005311578
 10
-96.93368399956290204
 20
32.84942800005279651
 10
-96.93360099956299791
 20
32.84957200005260347
 10
-96.93341099956330709
 20
32.84979500005226782
 10
-96.93321999956361879
 20
32.84998800005195108
 10
-96.93286999956416139
 20
32.85025000005151696
 10
-96.93266699956444654
 20
32.85044700005124696
 10
-96.93248899956472542
 20
32.85065000005090496
 10
-96.93236799956491723
 20
32.85083100005061851
 10
-96.93224799956510651
 20
32.85105100005029044
 10
-96.93217099956524407
 20
32.85122700005001661
 10
-96.93211999956531599
 20
32.85144600004969107
  0
LWPOLYLINE
  5
a6
  8
Trans_RoadSegment_Full
100
AcDbEntity
100
AcDbPolyline
  6
CONTINUOUS
420
12011595
 90
     2
 70
     0
 43
0.00233561973871076
 10
-96.93082999956732237
 20
32.85098600005039771
 10
-96.93123099956670785
 20
32.85117300005009611
  0
LWPOLYLINE
  5
a7
  8
Trans_RoadSegment_Full
100
AcDbEntity
100
AcDbPolyline
  6
CONTINUOUS
420
12011595
 90
    12
 70
     0
 43
0.00233561973871076
 10
-96.9302659995681779
 20
32.83768800007106847
 10
-96.93043599956791923
 20
32.83767100007105455
 10
-96.93052699956780316
 20
32.83764300007112524
 10
-96.9306419995676265
 20
32.8375280000713019
 10
-96.93080599956738297
 20
32.83741200007148109
 10
-96.93096499956709522
 20
32.83738100007150251
 10
-96.9323949995649059
 20
32.83738400007149494
 10
-96.93261499956452099
 20
32.83740400007150129
 10
-96.93422199956205532
 20
32.83758700007120979
 10
-96.93449599956164775
 20
32.83762900007110375
 10
-96.93464399956138777
 20
32.8376570000710899
 10
-96.93488499956100668
 20
32.83781400007086404
  0
LWPOLYLINE
  5
a8
  8
Trans_RoadSegment_Full
100
AcDbEntity
100
AcDbPolyline
  6
CONTINUOUS
420
12011595
 90
    20
 70
     0
 43
0.00233561973871076
 10
-96.91591599959048153
 20
32.83697600007212714
 10
-96.91610499959017488
 20
32.83704300007201482
 10
-96.91618199959003732
 20
32.83711700007194167
 10
-96.91621899959000075
 20
32.83716400007187985
 10
-96.91623199958996793
 20
32.83722000007173847
 10
-96.91622399958998813
 20
32.8373070000716325
 10
-96.91620299959004114
 20
32.83735600007156563
 10
-96.91600499959031367
 20
32.83755500007123374
 10
-96.91571499959076164
 20
32.83778000007089304
 10
-96.91558799959096859
 20
32.8378400000707984
 10
-96.91541799959122727
 20
32.83787100007077697
 10
-96.91529399959142665
 20
32.83786700007078707
 10
-96.91513899959164746
 20
32.83782800007082869
 10
-96.91506099959178755
 20
32.83777500007090566
 10
-96.91501399959184937
 20
32.83773300007095486
 10
-96.9149259995920147
 20
32.83761500007113909
 10
-96.91488999959204875
 20
32.83752100007131958
 10
-96.91488499959206138
 20
32.83743300007142807
 10
-96.91490799959206015
 20
32.83699100007214611
 10
-96.91491199959205005
 20
32.83692500007219905
  0
LWPOLYLINE
  5
a9
  8
Trans_RoadSegment_Full
100
AcDbEntity
100
AcDbPolyline
  6
CONTINUOUS
420
12011595
 90
     2
 70
     0
 43
0.00233561973871076
 10
-96.91482399959215854
 20
32.8367540000725171
 10
-96.91481699959217622
 20
32.83692600007219653
  0
LWPOLYLINE
  5
aa
  8
Trans_RoadSegment_Full
100
AcDbEntity
100
AcDbPolyline
  6
CONTINUOUS
420
12011595
 90
     6
 70
     0
 43
0.00233561973871076
 10
-96.9230869995793114
 20
32.85331500004679128
 10
-96.92304999957940481
 20
32.8532640000468632
 10
-96.92278099957979975
 20
32.85306800004718752
 10
-96.92243399958033478
 20
32.85281700004753702
 10
-96.9210219995825355
 20
32.85185800004904877
 10
-96.9209759995825948
 20
32.85181000004911311
  0
LWPOLYLINE
  5
ab
  8
Trans_RoadSegment_Full
100
AcDbEntity
100
AcDbPolyline
  6
CONTINUOUS
420
12011595
 90
     3
 70
     0
 43
0.00233561973871076
 10
-96.91835099958666433
 20
32.84441300006062647
 10
-96.91733299958826819
 20
32.84438300006064537
 10
-96.91621899959000075
 20
32.84440000006060245
  0
LWPOLYLINE
  5
ac
  8
Trans_RoadSegment_Full
100
AcDbEntity
100
AcDbPolyline
  6
CONTINUOUS
420
12011595
 90
     2
 70
     0
 43
0.00233561973871076
 10
-96.91531099959138373
 20
32.84044500006677936
 10
-96.91531899959142038
 20
32.84056500006659007
  0
LWPOLYLINE
  5
ad
  8
Trans_RoadSegment_Full
100
AcDbEntity
100
AcDbPolyline
  6
CONTINUOUS
420
12011595
 90
     9
 70
     0
 43
0.00233561973871076
 10
-96.91517299959161846
 20
32.84044600006677683
 10
-96.91518099959159827
 20
32.839788000067756
 10
-96.91521999959155664
 20
32.8392050000686595
 10
-96.91529799959141656
 20
32.83886400006923623
 10
-96.91555399959105443
 20
32.83833600007005771
 10
-96.91580999959063547
 20
32.83807200007044003
 10
-96.91611299959015469
 20
32.83779200007086274
 10
-96.91655499958949349
 20
32.83751900007132463
 10
-96.91715499958854707
 20
32.83723400007175997
  0
LWPOLYLINE
  5
ae
  8
Trans_RoadSegment_Full
100
AcDbEntity
100
AcDbPolyline
  6
CONTINUOUS
420
12011595
 90
    10
 70
     0
 43
0.00233561973871076
 10
-96.91307299959487409
 20
32.83751900007132463
 10
-96.91319399959468228
 20
32.83760800007115677
 10
-96.9136759995939201
 20
32.83800200007055992
 10
-96.91369299959393402
 20
32.83801200007053467
 10
-96.91395999959348728
 20
32.8382400000701864
 10
-96.91405299959336617
 20
32.83834400007003751
 10
-96.91416199959320465
 20
32.83850600006974219
 10
-96.91426499959305829
 20
32.83872700006941159
 10
-96.9143269995929586
 20
32.83894900006907847
 10
-96.9143389995929283
 20
32.83905000006893715
  0
LWPOLYLINE
  5
af
  8
Trans_RoadSegment_Full
100
AcDbEntity
100
AcDbPolyline
  6
CONTINUOUS
420
12011595
 90
     2
 70
     0
 43
0.00233561973871076
 10
-96.91178299959688047
 20
32.8451600000594226
 10
-96.9115649995972035
 20
32.84532100005918664
  0
LWPOLYLINE
  5
b0
  8
Trans_RoadSegment_Full
100
AcDbEntity
100
AcDbPolyline
  6
CONTINUOUS
420
12011595
 90
     5
 70
     0
 43
0.00233561973871076
 10
-96.9115649995972035
 20
32.84532100005918664
 10
-96.91146299959740418
 20
32.84539600005905413
 10
-96.91132899959757196
 20
32.84551900005885727
 10
-96.9112289995977676
 20
32.8455980000587715
 10
-96.91118299959782689
 20
32.84563600005867556
  0
LWPOLYLINE
  5
b1
  8
Trans_RoadSegment_Full
100
AcDbEntity
100
AcDbPolyline
  6
CONTINUOUS
420
12011595
 90
     6
 70
     0
 43
0.00233561973871076
 10
-96.91089999959825718
 20
32.84588200005833869
 10
-96.91085999959830133
 20
32.84590900005827052
 10
-96.91068599959857011
 20
32.84606100005805729
 10
-96.91053899959882756
 20
32.84619900005782256
 10
-96.91003599959958592
 20
32.84674900005700238
 10
-96.90988999959984085
 20
32.8468970000567424
  0
LWPOLYLINE
  5
b2
  8
Trans_RoadSegment_Full
100
AcDbEntity
100
AcDbPolyline
  6
CONTINUOUS
420
12011595
 90
    23
 70
     0
 43
0.00233561973871076
 10
-96.9363539995587189
 20
32.84606900005803709
 10
-96.93647299955853214
 20
32.84593700005825667
 10
-96.93653199955844002
 20
32.84582400005842828
 10
-96.93655299955844384
 20
32.84574800005850648
 10
-96.93665399955830253
 20
32.84490400005984156
 10
-96.93671799955819779
 20
32.8447600000600346
 10
-96.93680199955804255
 20
32.84460800006030468
 10
-96.93686999955792771
 20
32.84451600006042327
 10
-96.9369669995577965
 20
32.84440900006057973
 10
-96.93711499955753652
 20
32.84430200006079303
 10
-96.93727099955731319
 20
32.84421400006090153
 10
-96.93753299955693592
 20
32.84412900006105929
 10
-96.93781099955646141
 20
32.84406500006116403
 10
-96.93826599955576739
 20
32.84393300006132677
 10
-96.9385369995553674
 20
32.84388100006140121
 10
-96.93865899955517307
 20
32.84387000006142898
 10
-96.93879799955493581
 20
32.84387000006142898
 10
-96.93899699955466076
 20
32.84388400006145048
 10
-96.93919999955431877
 20
32.84392200006135454
 10
-96.93938999955400959
 20
32.84399100006123717
 10
-96.93973199955348719
 20
32.84409600006108576
 10
-96.93984599955331305
 20
32.84412600006106686
 10
-96.94007499955296225
 20
32.84414100006102899
  0
LWPOLYLINE
  5
b3
  8
Trans_RoadSegment_Full
100
AcDbEntity
100
AcDbPolyline
  6
CONTINUOUS
420
12011595
 90
    15
 70
     0
 43
0.00233561973871076
 10
-96.93798199955620021
 20
32.85134200004983995
 10
-96.93800999955618636
 20
32.85122400005002419
 10
-96.93801199955618131
 20
32.85107900005027659
 10
-96.93799499955622423
 20
32.85094500005044438
 10
-96.93789199955637059
 20
32.85063100005095293
 10
-96.93779599955649928
 20
32.85046700005119646
 10
-96.9377369995565914
 20
32.85038800005133908
 10
-96.93765199955674916
 20
32.85033000005142867
 10
-96.93756899955684503
 20
32.85028200005149301
 10
-96.93745299955702421
 20
32.85025600005155866
 10
-96.93699699955772076
 20
32.85026800005152836
 10
-96.93669199955820659
 20
32.85026100005154603
 10
-96.93633599955876434
 20
32.85021500005160533
 10
-96.93605099955919968
 20
32.8501540000517025
 10
-96.9358429995595543
 20
32.85010200005177694
  0
LWPOLYLINE
  5
b4
  8
Trans_RoadSegment_Full
100
AcDbEntity
100
AcDbPolyline
  6
CONTINUOUS
420
12011595
 90
     4
 70
     0
 43
0.00233561973871076
 10
-96.93421299956207804
 20
32.85248800004808345
 10
-96.93380499956271024
 20
32.85247500004805943
 10
-96.93371899956281368
 20
32.85246900004807458
 10
-96.93359599956301054
 20
32.85249300004807083
  0
LWPOLYLINE
  5
b5
  8
Trans_RoadSegment_Full
100
AcDbEntity
100
AcDbPolyline
  6
CONTINUOUS
420
12011595
 90
     5
 70
     0
 43
0.00233561973871076
 10
-96.93300399956393676
 20
32.84883500005372525
 10
-96.93287999956413614
 20
32.84875700005386534
 10
-96.93262599956455006
 20
32.84850800005426663
 10
-96.93259099956458158
 20
32.84848100005427796
 10
-96.9325479995646333
 20
32.84846900005430825
  0
LWPOLYLINE
  5
b6
  8
Trans_RoadSegment_Full
100
AcDbEntity
100
AcDbPolyline
  6
CONTINUOUS
420
12011595
 90
     2
 70
     0
 43
0.00233561973871076
 10
-96.91475299959228096
 20
32.83612600007347737
 10
-96.91468599959239327
 20
32.83659400007275053
  0
LWPOLYLINE
  5
b7
  8
Trans_RoadSegment_Full
100
AcDbEntity
100
AcDbPolyline
  6
CONTINUOUS
420
12011595
 90
     3
 70
     0
 43
0.00233561973871076
 10
-96.91621899959000075
 20
32.84930500005299336
 10
-96.91621899959000075
 20
32.84960900005251005
 10
-96.91618999959001712
 20
32.85001800005187533
  0
LWPOLYLINE
  5
b8
  8
Trans_RoadSegment_Full
100
AcDbEntity
100
AcDbPolyline
  6
CONTINUOUS
420
12011595
 90
     3
 70
     0
 43
0.00233561973871076
 10
-96.91517299959161846
 20
32.84044600006677683
 10
-96.91499299959190239
 20
32.84044800006677178
 10
-96.91485199959214469
 20
32.84044700006677431
  0
LWPOLYLINE
  5
b9
  8
Trans_RoadSegment_Full
100
AcDbEntity
100
AcDbPolyline
  6
CONTINUOUS
420
12011595
 90
    10
 70
     0
 43
0.00233561973871076
 10
-96.91454799959257116
 20
32.8405500000665711
 10
-96.91453399959260651
 20
32.84087900006608152
 10
-96.91445499959274912
 20
32.84129400006543165
 10
-96.91419899959311124
 20
32.84233500006382656
 10
-96.91395199959350748
 20
32.84296100006287134
 10
-96.9135429995941422
 20
32.84369000006171291
 10
-96.91317499959473025
 20
32.84430200006079303
 10
-96.91285799959518954
 20
32.84469800006013429
 10
-96.91235099959601484
 20
32.84528600005921817
 10
-96.91222599959621675
 20
32.84543300005901756
  0
LWPOLYLINE
  5
ba
  8
Trans_RoadSegment_Full
100
AcDbEntity
100
AcDbPolyline
  6
CONTINUOUS
420
12011595
 90
     3
 70
     0
 43
0.00233561973871076
 10
-96.91221799959618011
 20
32.84562900005869324
 10
-96.91221199959619526
 20
32.84578400005847243
 10
-96.91224399959617131
 20
32.84598400005813801
  0
LWPOLYLINE
  5
bb
  8
Trans_RoadSegment_Full
100
AcDbEntity
100
AcDbPolyline
  6
CONTINUOUS
420
12011595
 90
     3
 70
     0
 43
0.00233561973871076
 10
-96.91230599959607162
 20
32.84627900005767742
 10
-96.91219699959623313
 20
32.84639700005755003
 10
-96.91217499959628867
 20
32.84642400005748186
  0
LWPOLYLINE
  5
bc
  8
Trans_RoadSegment_Full
100
AcDbEntity
100
AcDbPolyline
  6
CONTINUOUS
420
12011595
 90
     2
 70
     0
 43
0.00233561973871076
 10
-96.91224399959617131
 20
32.84598400005813801
 10
-96.91214299959631262
 20
32.84609600005796892
  0
LWPOLYLINE
  5
bd
  8
Trans_RoadSegment_Full
100
AcDbEntity
100
AcDbPolyline
  6
CONTINUOUS
420
12011595
 90
     2
 70
     0
 43
0.00233561973871076
 10
-96.91221799959618011
 20
32.84562900005869324
 10
-96.91213299959633787
 20
32.84554300005885352
  0
LWPOLYLINE
  5
be
  8
Trans_RoadSegment_Full
100
AcDbEntity
100
AcDbPolyline
  6
CONTINUOUS
420
12011595
 90
    12
 70
     0
 43
0.00233561973871076
 10
-96.91089999959825718
 20
32.84588200005833869
 10
-96.91039799959901302
 20
32.84540200005903898
 10
-96.91022699959927422
 20
32.84516900005939988
 10
-96.91014199959943198
 20
32.84501400005967753
 10
-96.90994799959975126
 20
32.844649000060258
 10
-96.90978999959997964
 20
32.84430400006078798
 10
-96.90956799960031276
 20
32.84401400006123595
 10
-96.90945599960048185
 20
32.84387700006141131
 10
-96.90941399960058789
 20
32.84383200006152492
 10
-96.90937699960062446
 20
32.84378300006159179
 10
-96.90922799960083012
 20
32.843612000061853
 10
-96.90911699960099668
 20
32.84349400006203723
  0
LWPOLYLINE
  5
bf
  8
Trans_RoadSegment_Full
100
AcDbEntity
100
AcDbPolyline
  6
CONTINUOUS
420
12011595
 90
     5
 70
     0
 43
0.00233561973871076
 10
-96.90911699960099668
 20
32.84349400006203723
 10
-96.9090959996010497
 20
32.84341700006217479
 10
-96.90898999960120364
 20
32.84325200006242085
 10
-96.90844399960207056
 20
32.84248700006361332
 10
-96.90842099960212863
 20
32.84239900006372181
  0
LWPOLYLINE
  5
c0
  8
Trans_RoadSegment_Full
100
AcDbEntity
100
AcDbPolyline
  6
CONTINUOUS
420
12011595
 90
     6
 70
     0
 43
0.00233561973871076
 10
-96.90652099960504984
 20
32.83751400007133725
 10
-96.90694399960437977
 20
32.83753900007127413
 10
-96.90766399960330091
 20
32.83748700007134858
 10
-96.9079459996028163
 20
32.83744700007139272
 10
-96.90853999960194187
 20
32.83734600007159088
 10
-96.9089249996013109
 20
32.8373030000716426
  0
LWPOLYLINE
  5
c1
  8
Trans_RoadSegment_Full
100
AcDbEntity
100
AcDbPolyline
  6
CONTINUOUS
420
12011595
 90
     2
 70
     0
 43
0.00233561973871076
 10
-96.93416899956213229
 20
32.85325700004688088
 10
-96.93392499956252095
 20
32.85326200004686825
  0
LWPOLYLINE
  5
c2
  8
Trans_RoadSegment_Full
100
AcDbEntity
100
AcDbPolyline
  6
CONTINUOUS
420
12011595
 90
    14
 70
     0
 43
0.00233561973871076
 10
-96.93211999956531599
 20
32.85144600004969107
 10
-96.93294699956402383
 20
32.85143500004971884
 10
-96.93302599956388121
 20
32.85139600004976046
 10
-96.93307399956381687
 20
32.85133900004984753
 10
-96.93316299956370585
 20
32.85116200005012388
 10
-96.93329899956347617
 20
32.85098600005039771
 10
-96.93346199956323517
 20
32.85081700005065386
 10
-96.93398799956241874
 20
32.85039400005132393
 10
-96.93423499956202249
 20
32.85016400005167725
 10
-96.93437699956183451
 20
32.84998400005196117
 10
-96.93451899956158968
 20
32.84975500005231197
 10
-96.93459699956144959
 20
32.84956900005261105
 10
-96.93467099956137645
 20
32.84933900005296437
 10
-96.93472899956128686
 20
32.84909300005335808
  0
LWPOLYLINE
  5
c3
  8
Trans_RoadSegment_Full
100
AcDbEntity
100
AcDbPolyline
  6
CONTINUOUS
420
12011595
 90
     2
 70
     0
 43
0.00233561973871076
 10
-96.91493499959199198
 20
32.83660200007273033
 10
-96.91485099959214722
 20
32.83659800007274043
  0
LWPOLYLINE
  5
c4
  8
Trans_RoadSegment_Full
100
AcDbEntity
100
AcDbPolyline
  6
CONTINUOUS
420
12011595
 90
     4
 70
     0
 43
0.00233561973871076
 10
-96.9089249996013109
 20
32.8373030000716426
 10
-96.90977599960001498
 20
32.83711000007195935
 10
-96.91061899959868242
 20
32.83698000007211704
 10
-96.91103799959802245
 20
32.83697000007214228
  0
LWPOLYLINE
  5
c5
  8
Trans_RoadSegment_Full
100
AcDbEntity
100
AcDbPolyline
  6
CONTINUOUS
420
12011595
 90
     4
 70
     0
 43
0.00233561973871076
 10
-96.92036599958356646
 20
32.8383890000699239
 10
-96.92013899958391221
 20
32.8378360000708085
 10
-96.92005999958405482
 20
32.8376850000710192
 10
-96.91987499958429453
 20
32.83747900007136877
  0
LWPOLYLINE
  5
c6
  8
Trans_RoadSegment_Full
100
AcDbEntity
100
AcDbPolyline
  6
CONTINUOUS
420
12011595
 90
     3
 70
     0
 43
0.00233561973871076
 10
-96.91732799958828082
 20
32.84117800006561083
 10
-96.91732099958829849
 20
32.84146100006518054
 10
-96.917374999588219
 20
32.84219600006406381
  0
LWPOLYLINE
  5
c7
  8
Trans_RoadSegment_Full
100
AcDbEntity
100
AcDbPolyline
  6
CONTINUOUS
420
12011595
 90
     3
 70
     0
 43
0.00233561973871076
 10
-96.9162049995900361
 20
32.84579200005845223
 10
-96.91637899958976732
 20
32.84577600005849263
 10
-96.91722899958841708
 20
32.84572900005855445
  0
LWPOLYLINE
  5
c8
  8
Trans_RoadSegment_Full
100
AcDbEntity
100
AcDbPolyline
  6
CONTINUOUS
420
12011595
 90
     2
 70
     0
 43
0.00233561973871076
 10
-96.91412699959323618
 20
32.84044400006678188
 10
-96.91411899959325638
 20
32.8405720000665724
  0
LWPOLYLINE
  5
c9
  8
Trans_RoadSegment_Full
100
AcDbEntity
100
AcDbPolyline
  6
CONTINUOUS
420
12011595
 90
     6
 70
     0
 43
0.00233561973871076
 10
-96.91381599959373716
 20
32.84699900005659856
 10
-96.9137059995939012
 20
32.84693600005670078
 10
-96.91306899959488419
 20
32.84642800005747176
 10
-96.91293699959510377
 20
32.84631300005764842
 10
-96.91283699959524256
 20
32.84621600005777964
 10
-96.91260099959561103
 20
32.84600100005815193
  0
LWPOLYLINE
  5
ca
  8
Trans_RoadSegment_Full
100
AcDbEntity
100
AcDbPolyline
  6
CONTINUOUS
420
12011595
 90
     4
 70
     0
 43
0.00233561973871076
 10
-96.91217499959628867
 20
32.84642400005748186
 10
-96.91213699959632777
 20
32.84647100005742004
 10
-96.91196399959659402
 20
32.84663800005716894
 10
-96.91188799959672906
 20
32.84671200005703895
  0
LWPOLYLINE
  5
cb
  8
Trans_RoadSegment_Full
100
AcDbEntity
100
AcDbPolyline
  6
CONTINUOUS
420
12011595
 90
     2
 70
     0
 43
0.00233561973871076
 10
-96.9302799995681994
 20
32.83657300007274671
 10
-96.93027499956815518
 20
32.83686600007229117
  0
LWPOLYLINE
  5
cc
  8
Trans_RoadSegment_Full
100
AcDbEntity
100
AcDbPolyline
  6
CONTINUOUS
420
12011595
 90
     7
 70
     0
 43
0.00233561973871076
 10
-96.9298839995688013
 20
32.83657400007274418
 10
-96.92922599956978047
 20
32.83657600007273913
 10
-96.92840299957106254
 20
32.83659200007275558
 10
-96.92785599957193199
 20
32.83661000007271014
 10
-96.92757899957234713
 20
32.83661900007268741
 10
-96.92707399957316738
 20
32.83661300007270256
 10
-96.92479799957669684
 20
32.83660800007271519
  0
LWPOLYLINE
  5
cd
  8
Trans_RoadSegment_Full
100
AcDbEntity
100
AcDbPolyline
  6
CONTINUOUS
420
12011595
 90
     4
 70
     0
 43
0.00233561973871076
 10
-96.938918999554744
 20
32.83709900007193028
 10
-96.93864999955519579
 20
32.83709900007193028
 10
-96.93796499955624313
 20
32.83710300007192018
 10
-96.93635899955876312
 20
32.83707700007198582
  0
LWPOLYLINE
  5
ce
  8
Trans_RoadSegment_Full
100
AcDbEntity
100
AcDbPolyline
  6
CONTINUOUS
420
12011595
 90
     7
 70
     0
 43
0.00233561973871076
 10
-96.93681399955801226
 20
32.84670000005706925
 10
-96.93661199955835173
 20
32.84691400005669948
 10
-96.93655199955844637
 20
32.84700000005659604
 10
-96.93649999955852081
 20
32.84712100005640423
 10
-96.93647199955853466
 20
32.84721400005622627
 10
-96.93620999955896878
 20
32.84848000005428048
 10
-96.9360299995592527
 20
32.84930800005298579
  0
LWPOLYLINE
  5
cf
  8
Trans_RoadSegment_Full
100
AcDbEntity
100
AcDbPolyline
  6
CONTINUOUS
420
12011595
 90
    12
 70
     0
 43
0.00233561973871076
 10
-96.93620399955898392
 20
32.84622100005776701
 10
-96.93571899955975368
 20
32.84577400005849768
 10
-96.93517499956055872
 20
32.84539900005904656
 10
-96.93497099956090324
 20
32.84524400005932421
 10
-96.93462899956142564
 20
32.84499700005972045
 10
-96.9342769995619733
 20
32.8447940000600056
 10
-96.93390199956252218
 20
32.84462200006026933
 10
-96.93359199956302064
 20
32.84451300006043084
 10
-96.93328899956350142
 20
32.84443400006057345
 10
-96.93293099956406422
 20
32.84436900006068072
 10
-96.93227599956509266
 20
32.84432900006072487
 10
-96.93022799956827384
 20
32.84432400006073749
  0
LWPOLYLINE
  5
d0
  8
Trans_RoadSegment_Full
100
AcDbEntity
100
AcDbPolyline
  6
CONTINUOUS
420
12011595
 90
     3
 70
     0
 43
0.00233561973871076
 10
-96.92783999957197238
 20
32.84430700006078041
 10
-96.92787499957188402
 20
32.84420800006091667
 10
-96.9279099995718525
 20
32.84410500006106304
  0
LWPOLYLINE
  5
d1
  8
Trans_RoadSegment_Full
100
AcDbEntity
100
AcDbPolyline
  6
CONTINUOUS
420
12011595
 90
     3
 70
     0
 43
0.00233561973871076
 10
-96.91157999959722247
 20
32.83368500007725288
 10
-96.91155999959721612
 20
32.83527100007478339
 10
-96.91155499959722874
 20
32.83641900007302183
  0
LWPOLYLINE
  5
d2
  8
Trans_RoadSegment_Full
100
AcDbEntity
100
AcDbPolyline
  6
CONTINUOUS
420
12011595
 90
     2
 70
     0
 43
0.00233561973871076
 10
-96.91155499959722874
 20
32.83641900007302183
 10
-96.90968899960012095
 20
32.83641500007303193
  0
LWPOLYLINE
  5
d3
  8
Trans_RoadSegment_Full
100
AcDbEntity
100
AcDbPolyline
  6
CONTINUOUS
420
12011595
 90
     3
 70
     0
 43
0.00233561973871076
 10
-96.92002799958407877
 20
32.84756100005569124
 10
-96.92014499958389706
 20
32.84733000005604708
 10
-96.91982599958441824
 20
32.84683400005684462
  0
LWPOLYLINE
  5
d4
  8
Trans_RoadSegment_Full
100
AcDbEntity
100
AcDbPolyline
  6
CONTINUOUS
420
12011595
 90
     3
 70
     0
 43
0.00233561973871076
 10
-96.919672999584634
 20
32.84775500005542881
 10
-96.91989299958430593
 20
32.848039000054996
 10
-96.92012999958393493
 20
32.84829800005456946
  0
LWPOLYLINE
  5
d5
  8
Trans_RoadSegment_Full
100
AcDbEntity
100
AcDbPolyline
  6
CONTINUOUS
420
12011595
 90
     3
 70
     0
 43
0.00233561973871076
 10
-96.91834899958666938
 20
32.84421300006090405
 10
-96.91732599958828587
 20
32.84422200006088133
 10
-96.91639099958973702
 20
32.84424400006088263
  0
LWPOLYLINE
  5
d6
  8
Trans_RoadSegment_Full
100
AcDbEntity
100
AcDbPolyline
  6
CONTINUOUS
420
12011595
 90
     4
 70
     0
 43
0.00233561973871076
 10
-96.91639099958973702
 20
32.84424400006088263
 10
-96.91624499958993511
 20
32.84411800006108706
 10
-96.9161909995900146
 20
32.84405400006113496
 10
-96.91615699959010044
 20
32.84400100006126877
  0
LWPOLYLINE
  5
d7
  8
Trans_RoadSegment_Full
100
AcDbEntity
100
AcDbPolyline
  6
CONTINUOUS
420
12011595
 90
     2
 70
     0
 43
0.00233561973871076
 10
-96.91618999959001712
 20
32.84425400006085738
 10
-96.91604799959026195
 20
32.84425400006085738
  0
LWPOLYLINE
  5
d8
  8
Trans_RoadSegment_Full
100
AcDbEntity
100
AcDbPolyline
  6
CONTINUOUS
420
12011595
 90
     3
 70
     0
 43
0.00233561973871076
 10
-96.93538499956025589
 20
32.83680900007237824
 10
-96.9333099995634484
 20
32.83667300007260792
 10
-96.93325799956352284
 20
32.83668100007258772
  0
LWPOLYLINE
  5
d9
  8
Trans_RoadSegment_Full
100
AcDbEntity
100
AcDbPolyline
  6
CONTINUOUS
420
12011595
 90
     5
 70
     0
 43
0.00233561973871076
 10
-96.92500999957633212
 20
32.83698400007210694
 10
-96.92542199957568982
 20
32.83703700007202997
 10
-96.92628999957435099
 20
32.83704900007205651
 10
-96.92706399957313579
 20
32.83708400007196815
 10
-96.92888999957034457
 20
32.83723800007174987
  0
LWPOLYLINE
  5
da
  8
Trans_RoadSegment_Full
100
AcDbEntity
100
AcDbPolyline
  6
CONTINUOUS
420
12011595
 90
     5
 70
     0
 43
0.00233561973871076
 10
-96.92415299957770003
 20
32.83660200007273033
 10
-96.92559199957543115
 20
32.8367040000725865
 10
-96.92629799957433079
 20
32.83672900007252338
 10
-96.92723999957286196
 20
32.83676400007249185
 10
-96.92842199957107141
 20
32.83685200007232652
  0
LWPOLYLINE
  5
db
  8
Trans_RoadSegment_Full
100
AcDbEntity
100
AcDbPolyline
  6
CONTINUOUS
420
12011595
 90
     2
 70
     0
 43
0.00233561973871076
 10
-96.93696099955781165
 20
32.84654100005730015
 10
-96.9363539995587189
 20
32.84606900005803709
  0
LWPOLYLINE
  5
dc
  8
Trans_RoadSegment_Full
100
AcDbEntity
100
AcDbPolyline
  6
CONTINUOUS
420
12011595
 90
     4
 70
     0
 43
0.00233561973871076
 10
-96.9360299995592527
 20
32.84930800005298579
 10
-96.93591999955941674
 20
32.84988800005208986
 10
-96.93587199955948108
 20
32.85004800005185643
 10
-96.9358429995595543
 20
32.85010200005177694
  0
LWPOLYLINE
  5
dd
  8
Trans_RoadSegment_Full
100
AcDbEntity
100
AcDbPolyline
  6
CONTINUOUS
420
12011595
 90
     3
 70
     0
 43
0.00233561973871076
 10
-96.9360299995592527
 20
32.84930800005298579
 10
-96.93578099955965399
 20
32.84926800005308678
 10
-96.93521599956051205
 20
32.84916500005323314
  0
LWPOLYLINE
  5
de
  8
Trans_RoadSegment_Full
100
AcDbEntity
100
AcDbPolyline
  6
CONTINUOUS
420
12011595
 90
     4
 70
     0
 43
0.00233561973871076
 10
-96.93534999956028742
 20
32.85350600004647958
 10
-96.93503999956078587
 20
32.85340800004661332
 10
-96.93470599956128808
 20
32.85332700004676099
 10
-96.93416899956213229
 20
32.85325700004688088
  0
LWPOLYLINE
  5
df
  8
Trans_RoadSegment_Full
100
AcDbEntity
100
AcDbPolyline
  6
CONTINUOUS
420
12011595
 90
     4
 70
     0
 43
0.00233561973871076
 10
-96.91715499958854707
 20
32.83723400007175997
 10
-96.91642499958965118
 20
32.83704300007201482
 10
-96.91618199959003732
 20
32.83700400007211329
 10
-96.91591599959048153
 20
32.83697600007212714
  0
LWPOLYLINE
  5
e0
  8
Trans_RoadSegment_Full
100
AcDbEntity
100
AcDbPolyline
  6
CONTINUOUS
420
12011595
 90
     2
 70
     0
 43
0.00233561973871076
 10
-96.91835099958666433
 20
32.84441300006062647
 10
-96.91835299958665928
 20
32.84468400006016964
  0
LWPOLYLINE
  5
e1
  8
Trans_RoadSegment_Full
100
AcDbEntity
100
AcDbPolyline
  6
CONTINUOUS
420
12011595
 90
     2
 70
     0
 43
0.00233561973871076
 10
-96.91649999958957551
 20
32.84892600005360919
 10
-96.91649699958958308
 20
32.84899100005350192
  0
LWPOLYLINE
  5
e2
  8
Trans_RoadSegment_Full
100
AcDbEntity
100
AcDbPolyline
  6
CONTINUOUS
420
12011595
 90
     2
 70
     0
 43
0.00233561973871076
 10
-96.91621199959001842
 20
32.84872200005389686
 10
-96.91621599959000832
 20
32.84886100005371645
  0
LWPOLYLINE
  5
e3
  8
Trans_RoadSegment_Full
100
AcDbEntity
100
AcDbPolyline
  6
CONTINUOUS
420
12011595
 90
     5
 70
     0
 43
0.00233561973871076
 10
-96.9160159995902859
 20
32.8492210000531486
 10
-96.91601299959029348
 20
32.84950800005270821
 10
-96.916011999590296
 20
32.84957000005260852
 10
-96.91603699959028972
 20
32.84986100005215803
 10
-96.91604399959027205
 20
32.84994700005199775
  0
LWPOLYLINE
  5
e4
  8
Trans_RoadSegment_Full
100
AcDbEntity
100
AcDbPolyline
  6
CONTINUOUS
420
12011595
 90
     3
 70
     0
 43
0.00233561973871076
 10
-96.91168899959700411
 20
32.84605400005807496
 10
-96.91128899959767296
 20
32.84573200005854687
 10
-96.91118299959782689
 20
32.84563600005867556
  0
LWPOLYLINE
  5
e5
  8
Trans_RoadSegment_Full
100
AcDbEntity
100
AcDbPolyline
  6
CONTINUOUS
420
12011595
 90
     2
 70
     0
 43
0.00233561973871076
 10
-96.90552099960660826
 20
32.83895100006907342
 10
-96.90532199960688331
 20
32.83908900006883869
  0
LWPOLYLINE
  5
e6
  8
Trans_RoadSegment_Full
100
AcDbEntity
100
AcDbPolyline
  6
CONTINUOUS
420
12011595
 90
     2
 70
     0
 43
0.00233561973871076
 10
-96.93007599956848708
 20
32.83686400007229622
 10
-96.93007599956848708
 20
32.83696800007214733
  0
LWPOLYLINE
  5
e7
  8
Trans_RoadSegment_Full
100
AcDbEntity
100
AcDbPolyline
  6
CONTINUOUS
420
12011595
 90
     7
 70
     0
 43
0.00233561973871076
 10
-96.93579999955960602
 20
32.85276400004761399
 10
-96.93560199955993539
 20
32.85271000004775033
 10
-96.93533299956033034
 20
32.85261400004787902
 10
-96.93517899956054862
 20
32.85256300004795094
 10
-96.93498499956086789
 20
32.85252200004799761
 10
-96.93483099956108617
 20
32.85250800004803295
 10
-96.93421299956207804
 20
32.85248800004808345
  0
LWPOLYLINE
  5
e8
  8
Trans_RoadSegment_Full
100
AcDbEntity
100
AcDbPolyline
  6
CONTINUOUS
420
12011595
 90
     2
 70
     0
 43
0.00233561973871076
 10
-96.93026799956817285
 20
32.83725500007170695
 10
-96.9302659995681779
 20
32.83768800007106847
  0
LWPOLYLINE
  5
e9
  8
Trans_RoadSegment_Full
100
AcDbEntity
100
AcDbPolyline
  6
CONTINUOUS
420
12011595
 90
     5
 70
     0
 43
0.00233561973871076
 10
-96.91954699958483843
 20
32.83696400007215743
 10
-96.91884799958592112
 20
32.83706000007202874
 10
-96.91802599958720066
 20
32.83709900007193028
 10
-96.9177609995875855
 20
32.83712500007192148
 10
-96.91715499958854707
 20
32.83723400007175997
  0
LWPOLYLINE
  5
ea
  8
Trans_RoadSegment_Full
100
AcDbEntity
100
AcDbPolyline
  6
CONTINUOUS
420
12011595
 90
    12
 70
     0
 43
0.00233561973871076
 10
-96.9181149995870328
 20
32.84182700006459754
 10
-96.91748799958804739
 20
32.84229000006388333
 10
-96.9173709995882291
 20
32.84238100006376726
 10
-96.91707999958867958
 20
32.84260200006343666
 10
-96.91677699958910353
 20
32.8428240000630467
 10
-96.91659999958937988
 20
32.84298500006281074
 10
-96.91649899958957803
 20
32.84310200006262903
 10
-96.91642299958965623
 20
32.84320700006247762
 10
-96.91633399958982409
 20
32.84335600006221512
 10
-96.9162709995899263
 20
32.84349400006203723
 10
-96.91620799959002852
 20
32.84368600006172301
 10
-96.91615699959010044
 20
32.84400100006126877
  0
LWPOLYLINE
  5
eb
  8
Trans_RoadSegment_Full
100
AcDbEntity
100
AcDbPolyline
  6
CONTINUOUS
420
12011595
 90
     2
 70
     0
 43
0.00233561973871076
 10
-96.91455199959256106
 20
32.84044700006677431
 10
-96.91435199959289548
 20
32.84045000006676673
  0
LWPOLYLINE
  5
ec
  8
Trans_RoadSegment_Full
100
AcDbEntity
100
AcDbPolyline
  6
CONTINUOUS
420
12011595
 90
     2
 70
     0
 43
0.00233561973871076
 10
-96.91435199959289548
 20
32.84045000006676673
 10
-96.91431599959292953
 20
32.8405560000666128
  0
LWPOLYLINE
  5
ed
  8
Trans_RoadSegment_Full
100
AcDbEntity
100
AcDbPolyline
  6
CONTINUOUS
420
12011595
 90
     4
 70
     0
 43
0.00233561973871076
 10
-96.91118299959782689
 20
32.84563600005867556
 10
-96.91104199959801235
 20
32.84575000005850143
 10
-96.91096599959814739
 20
32.84581400005845353
 10
-96.91089999959825718
 20
32.84588200005833869
  0
LWPOLYLINE
  5
ee
  8
Trans_RoadSegment_Full
100
AcDbEntity
100
AcDbPolyline
  6
CONTINUOUS
420
12011595
 90
     5
 70
     0
 43
0.00233561973871076
 10
-96.90998699959965279
 20
32.83726600007167917
 10
-96.90974399960003893
 20
32.8373190000716022
 10
-96.90954099960038093
 20
32.83737200007152524
 10
-96.90942299960056516
 20
32.83739800007151644
 10
-96.90883399960148381
 20
32.83758300007121989
  0
LWPOLYLINE
  5
ef
  8
Trans_RoadSegment_Full
100
AcDbEntity
100
AcDbPolyline
  6
CONTINUOUS
420
12011595
 90
     2
 70
     0
 43
0.00233561973871076
 10
-96.93027299956816023
 20
32.83696700007214986
 10
-96.93026799956817285
 20
32.83725500007170695
  0
LWPOLYLINE
  5
f0
  8
Trans_RoadSegment_Full
100
AcDbEntity
100
AcDbPolyline
  6
CONTINUOUS
420
12011595
 90
     6
 70
     0
 43
0.00233561973871076
 10
-96.93723699955739903
 20
32.84933300005297951
 10
-96.93698199955775863
 20
32.84935500005292397
 10
-96.936783999558088
 20
32.84936800005289115
 10
-96.9365749995583883
 20
32.84936400005290125
 10
-96.93631499955881736
 20
32.84935100005293407
 10
-96.9360299995592527
 20
32.84930800005298579
  0
LWPOLYLINE
  5
f1
  8
Trans_RoadSegment_Full
100
AcDbEntity
100
AcDbPolyline
  6
CONTINUOUS
420
12011595
 90
     3
 70
     0
 43
0.00233561973871076
 10
-96.92997799956862082
 20
32.85049500005118261
 10
-96.93068999956756215
 20
32.85090100005055547
 10
-96.93082999956732237
 20
32.85098600005039771
  0
LWPOLYLINE
  5
f2
  8
Trans_RoadSegment_Full
100
AcDbEntity
100
AcDbPolyline
  6
CONTINUOUS
420
12011595
 90
     3
 70
     0
 43
0.00233561973871076
 10
-96.92994599956870161
 20
32.83725300007171199
 10
-96.92917099956991933
 20
32.83724800007172462
 10
-96.92888999957034457
 20
32.83723800007174987
  0
LWPOLYLINE
  5
f3
  8
Trans_RoadSegment_Full
100
AcDbEntity
100
AcDbPolyline
  6
CONTINUOUS
420
12011595
 90
     2
 70
     0
 43
0.00233561973871076
 10
-96.91485099959214722
 20
32.83659800007274043
 10
-96.91468599959239327
 20
32.83659400007275053
  0
LWPOLYLINE
  5
f4
  8
Trans_RoadSegment_Full
100
AcDbEntity
100
AcDbPolyline
  6
CONTINUOUS
420
12011595
 90
     2
 70
     0
 43
0.00233561973871076
 10
-96.91455199959256106
 20
32.83693200007223822
 10
-96.91457599959255731
 20
32.83675700007250953
  0
LWPOLYLINE
  5
f5
  8
Trans_RoadSegment_Full
100
AcDbEntity
100
AcDbPolyline
  6
CONTINUOUS
420
12011595
 90
    21
 70
     0
 43
0.00233561973871076
 10
-96.91481099959219137
 20
32.83591100007379282
 10
-96.91488899959205128
 20
32.83551000007440734
 10
-96.91493199959199956
 20
32.83533500007467865
 10
-96.91512299959168786
 20
32.834792000075538
 10
-96.91513999959164494
 20
32.83471800007566799
 10
-96.91513399959166009
 20
32.83467100007572981
 10
-96.91511499959170806
 20
32.83462800007578153
 10
-96.91507999959173958
 20
32.83459200007587242
 10
-96.91502899959186834
 20
32.83456900007587365
 10
-96.91496699959196803
 20
32.83456000007589637
 10
-96.91491299959204753
 20
32.83456200007589132
 10
-96.91485699959213207
 20
32.8345830000758383
 10
-96.91483699959212572
 20
32.8346010000758497
 10
-96.91464999959242732
 20
32.83491800007533357
 10
-96.91408999959332959
 20
32.83607400007355182
 10
-96.91405999959334849
 20
32.83629200007322879
 10
-96.91407399959331315
 20
32.83639300007303063
 10
-96.91410699959328667
 20
32.83645000007294357
 10
-96.91415799959321475
 20
32.83650000007287417
 10
-96.91422399959310496
 20
32.83654300007282245
 10
-96.91441099959280336
 20
32.83658200007278083
  0
LWPOLYLINE
  5
f6
  8
Trans_RoadSegment_Full
100
AcDbEntity
100
AcDbPolyline
  6
CONTINUOUS
420
12011595
 90
     4
 70
     0
 43
0.00233561973871076
 10
-96.91265499959553154
 20
32.83729000007167542
 10
-96.9123569995959997
 20
32.8371120000719543
 10
-96.91193699959666219
 20
32.83699500007213601
 10
-96.91161399959713663
 20
32.83696000007216753
  0
LWPOLYLINE
  5
f7
  8
Trans_RoadSegment_Full
100
AcDbEntity
100
AcDbPolyline
  6
CONTINUOUS
420
12011595
 90
     4
 70
     0
 43
0.00233561973871076
 10
-96.92198699958106545
 20
32.84437200006067314
 10
-96.9219749995810389
 20
32.8451700000594542
 10
-96.92199099958105535
 20
32.84525600005929391
 10
-96.922038999580991
 20
32.84538300005908695
  0
LWPOLYLINE
  5
f8
  8
Trans_RoadSegment_Full
100
AcDbEntity
100
AcDbPolyline
  6
CONTINUOUS
420
12011595
 90
     4
 70
     0
 43
0.00233561973871076
 10
-96.922038999580991
 20
32.84538300005908695
 10
-96.92197999958102628
 20
32.84549100005892797
 10
-96.9219749995810389
 20
32.84561300005873363
 10
-96.92194099958112474
 20
32.8457190000585797
  0
LWPOLYLINE
  5
f9
  8
Trans_RoadSegment_Full
100
AcDbEntity
100
AcDbPolyline
  6
CONTINUOUS
420
12011595
 90
    12
 70
     0
 43
0.00233561973871076
 10
-96.92036599958356646
 20
32.8383890000699239
 10
-96.92041599958349707
 20
32.83856900006969681
 10
-96.92057299958321437
 20
32.8390440000689523
 10
-96.92060299958319547
 20
32.8391810000687201
 10
-96.92061099958317527
 20
32.83927000006860908
 10
-96.92058899958323082
 20
32.83955700006811185
 10
-96.92051199958331154
 20
32.83981600006774215
 10
-96.92042899958346425
 20
32.83996500006747965
 10
-96.92023599958378099
 20
32.84023400006708471
 10
-96.91998399958413302
 20
32.84045400006675663
 10
-96.91951299958486743
 20
32.84079800006622918
 10
-96.9181149995870328
 20
32.84182700006459754
  0
LWPOLYLINE
  5
fa
  8
Trans_RoadSegment_Full
100
AcDbEntity
100
AcDbPolyline
  6
CONTINUOUS
420
12011595
 90
     2
 70
     0
 43
0.00233561973871076
 10
-96.91621899959000075
 20
32.84440000006060245
 10
-96.91604499959026953
 20
32.84440000006060245
  0
LWPOLYLINE
  5
fb
  8
Trans_RoadSegment_Full
100
AcDbEntity
100
AcDbPolyline
  6
CONTINUOUS
420
12011595
 90
     3
 70
     0
 43
0.00233561973871076
 10
-96.91188799959672906
 20
32.84671200005703895
 10
-96.91175599959694864
 20
32.84686200005677392
 10
-96.91119099959780669
 20
32.84746100005588687
  0
LWPOLYLINE
  5
fc
  8
Trans_RoadSegment_Full
100
AcDbEntity
100
AcDbPolyline
  6
CONTINUOUS
420
12011595
 90
    20
 70
     0
 43
0.00233561973871076
 10
-96.90883399960148381
 20
32.83758300007121989
 10
-96.90860999960182198
 20
32.83764600007111767
 10
-96.90837699960218288
 20
32.83774900007097131
 10
-96.90825299960238226
 20
32.83782600007083374
 10
-96.90813199960257407
 20
32.83789100007072648
 10
-96.90787799960293114
 20
32.83810600007041103
 10
-96.90777299960308255
 20
32.83821900007023942
 10
-96.90772999960319112
 20
32.83827100007010813
 10
-96.90763799960330971
 20
32.83841300006992014
 10
-96.90752499960348132
 20
32.83862500006961227
 10
-96.90746499960357596
 20
32.83880600006932582
 10
-96.90742599960361758
 20
32.8390100000689813
 10
-96.90742599960361758
 20
32.83905300006892958
 10
-96.90741799960363778
 20
32.83952300006819769
 10
-96.90741499960364536
 20
32.83967700006797941
 10
-96.90741699960364031
 20
32.84000400006743803
 10
-96.90742199960362768
 20
32.84008800006733964
 10
-96.90741599960364283
 20
32.84024900006704684
 10
-96.90745299960360626
 20
32.84047900006669352
 10
-96.90747799960354314
 20
32.84056100006660017
  0
LWPOLYLINE
  5
fd
  8
Trans_RoadSegment_Full
100
AcDbEntity
100
AcDbPolyline
  6
CONTINUOUS
420
12011595
 90
     5
 70
     0
 43
0.00233561973871076
 10
-96.93068499956751793
 20
32.83657300007274671
 10
-96.93060999956765045
 20
32.83661900007268741
 10
-96.93054199956776529
 20
32.83667500007260287
 10
-96.9304669995678978
 20
32.83679300007241864
 10
-96.93046099956791295
 20
32.83686600007229117
  0
LWPOLYLINE
  5
fe
  8
Trans_RoadSegment_Full
100
AcDbEntity
100
AcDbPolyline
  6
CONTINUOUS
420
12011595
 90
     2
 70
     0
 43
0.00233561973871076
 10
-96.93027299956816023
 20
32.83696700007214986
 10
-96.93046099956791295
 20
32.83696900007214481
  0
LWPOLYLINE
  5
ff
  8
Trans_RoadSegment_Full
100
AcDbEntity
100
AcDbPolyline
  6
CONTINUOUS
420
12011595
 90
     2
 70
     0
 43
0.00233561973871076
 10
-96.93488499956100668
 20
32.83781400007086404
 10
-96.93446999956165655
 20
32.83737600007151514
  0
LWPOLYLINE
  5
100
  8
Trans_RoadSegment_Full
100
AcDbEntity
100
AcDbPolyline
  6
CONTINUOUS
420
12011595
 90
    20
 70
     0
 43
0.00233561973871076
 10
-96.91444499959277437
 20
32.8369330000722357
 10
-96.91420299959310114
 20
32.83695900007217006
 10
-96.91360299959404756
 20
32.83699000007214863
 10
-96.91347899959424694
 20
32.83700300007211581
 10
-96.91337099959440593
 20
32.83702400007206279
 10
-96.91330399959451825
 20
32.83707700007198582
 10
-96.91326199959456744
 20
32.83714700007186593
 10
-96.91325199959459269
 20
32.83723800007174987
 10
-96.91327799959458389
 20
32.83732800007157948
 10
-96.91339199959440975
 20
32.83748000007136625
 10
-96.91367799959391505
 20
32.83773000007096243
 10
-96.91380499959376493
 20
32.83782800007082869
 10
-96.91392499959357565
 20
32.83788400007074415
 10
-96.91402399959338254
 20
32.83791100007067598
 10
-96.91415399959322485
 20
32.83790500007069113
 10
-96.91428399959301032
 20
32.83785700007075548
 10
-96.91438299959287406
 20
32.83777200007091324
 10
-96.91447099959270872
 20
32.83767400007104698
 10
-96.9144919995926557
 20
32.83757800007123251
 10
-96.91453699959259893
 20
32.83716800007186976
  0
LWPOLYLINE
  5
101
  8
Trans_RoadSegment_Full
100
AcDbEntity
100
AcDbPolyline
  6
CONTINUOUS
420
12011595
 90
     9
 70
     0
 43
0.00233561973871076
 10
-96.919672999584634
 20
32.84775500005542881
 10
-96.91936199958513498
 20
32.84796300005507419
 10
-96.91919499958538609
 20
32.84809500005491145
 10
-96.91897999958570153
 20
32.84835700005447734
 10
-96.91886099958588829
 20
32.84849200005425018
 10
-96.91875899958603213
 20
32.84859100005411392
 10
-96.91861399958628454
 20
32.84867800005400795
 10
-96.91825899958683976
 20
32.8488090000537909
 10
-96.91806999958714641
 20
32.84889500005363061
  0
LWPOLYLINE
  5
102
  8
Trans_RoadSegment_Full
100
AcDbEntity
100
AcDbPolyline
  6
CONTINUOUS
420
12011595
 90
    11
 70
     0
 43
0.00233561973871076
 10
-96.91987499958429453
 20
32.83747900007136877
 10
-96.92017199958388574
 20
32.83835700007000469
 10
-96.92029499958368888
 20
32.83884500006922735
 10
-96.92033299958359294
 20
32.83906700006889423
 10
-96.92032599958361061
 20
32.83942100006834153
 10
-96.92022299958375697
 20
32.83974700006785952
 10
-96.920072999584022
 20
32.84004600006738883
 10
-96.91989699958429583
 20
32.84027500006703804
 10
-96.91981099958439927
 20
32.8403550000668929
 10
-96.91942599958503024
 20
32.84067100006643614
 10
-96.91801199958723601
 20
32.84172100006480832
  0
LWPOLYLINE
  5
103
  8
Trans_RoadSegment_Full
100
AcDbEntity
100
AcDbPolyline
  6
CONTINUOUS
420
12011595
 90
     2
 70
     0
 43
0.00233561973871076
 10
-96.91759199958784166
 20
32.84132900006540012
 10
-96.91801199958723601
 20
32.84172100006480832
  0
LWPOLYLINE
  5
104
  8
Trans_RoadSegment_Full
100
AcDbEntity
100
AcDbPolyline
  6
CONTINUOUS
420
12011595
 90
     2
 70
     0
 43
0.00233561973871076
 10
-96.91733799958825557
 20
32.84101700006584679
 10
-96.91732799958828082
 20
32.84117800006561083
  0
LWPOLYLINE
  5
105
  8
Trans_RoadSegment_Full
100
AcDbEntity
100
AcDbPolyline
  6
CONTINUOUS
420
12011595
 90
     6
 70
     0
 43
0.00233561973871076
 10
-96.9209759995825948
 20
32.85181000004911311
 10
-96.92051099958331406
 20
32.85155100004953965
 10
-96.91940999958507064
 20
32.85094200005045195
 10
-96.91909099958553497
 20
32.85075400005075608
 10
-96.91883999958594131
 20
32.85060900005100848
 10
-96.91714099958858242
 20
32.84968600005242934
  0
LWPOLYLINE
  5
106
  8
Trans_RoadSegment_Full
100
AcDbEntity
100
AcDbPolyline
  6
CONTINUOUS
420
12011595
 90
     4
 70
     0
 43
0.00233561973871076
 10
-96.91618999959001712
 20
32.85001800005187533
 10
-96.91616199959008782
 20
32.85034700005138575
 10
-96.91616199959008782
 20
32.85232000004833708
 10
-96.91611599959014711
 20
32.85246900004807458
  0
LWPOLYLINE
  5
107
  8
Trans_RoadSegment_Full
100
AcDbEntity
100
AcDbPolyline
  6
CONTINUOUS
420
12011595
 90
     8
 70
     0
 43
0.00233561973871076
 10
-96.917374999588219
 20
32.84219600006406381
 10
-96.91643499958968277
 20
32.84288900006293943
 10
-96.91629599958986319
 20
32.84303800006273377
 10
-96.91618199959003732
 20
32.84319700006250287
 10
-96.91610699959016983
 20
32.84334500006224289
 10
-96.91608099959023548
 20
32.843483000062065
 10
-96.91605599959024175
 20
32.84378800006157917
 10
-96.91604799959026195
 20
32.84425400006085738
  0
LWPOLYLINE
  5
108
  8
Trans_RoadSegment_Full
100
AcDbEntity
100
AcDbPolyline
  6
CONTINUOUS
420
12011595
 90
     2
 70
     0
 43
0.00233561973871076
 10
-96.91435199959289548
 20
32.84045000006676673
 10
-96.91412699959323618
 20
32.84044400006678188
  0
LWPOLYLINE
  5
109
  8
Trans_RoadSegment_Full
100
AcDbEntity
100
AcDbPolyline
  6
CONTINUOUS
420
12011595
 90
     2
 70
     0
 43
0.00233561973871076
 10
-96.91254699959569052
 20
32.84677600005693421
 10
-96.91217499959628867
 20
32.84642400005748186
  0
LWPOLYLINE
  5
10a
  8
Trans_RoadSegment_Full
100
AcDbEntity
100
AcDbPolyline
  6
CONTINUOUS
420
12011595
 90
     2
 70
     0
 43
0.00233561973871076
 10
-96.91213299959633787
 20
32.84554300005885352
 10
-96.91178299959688047
 20
32.8451600000594226
  0
LWPOLYLINE
  5
10b
  8
Trans_RoadSegment_Full
100
AcDbEntity
100
AcDbPolyline
  6
CONTINUOUS
420
12011595
 90
     5
 70
     0
 43
0.00233561973871076
 10
-96.91143699959741298
 20
32.84633200005760045
 10
-96.91039199959902817
 20
32.84754600005572911
 10
-96.90970399960008308
 20
32.84836800005444957
 10
-96.90910299960103202
 20
32.84920300005319405
 10
-96.90808899960262579
 20
32.85065500005089234
  0
LWPOLYLINE
  5
10c
  8
Trans_RoadSegment_Full
100
AcDbEntity
100
AcDbPolyline
  6
CONTINUOUS
420
12011595
 90
     2
 70
     0
 43
0.00233561973871076
 10
-96.90522999960705874
 20
32.83861700006957562
 10
-96.90518099960712561
 20
32.83855800006966774
  0
LWPOLYLINE
  5
10d
  8
Trans_RoadSegment_Full
100
AcDbEntity
100
AcDbPolyline
  6
CONTINUOUS
420
12011595
 90
     6
 70
     0
 43
0.00233561973871076
 10
-96.92842199957107141
 20
32.83685200007232652
 10
-96.92494299957644444
 20
32.83683400007237196
 10
-96.92406299957781357
 20
32.83682400007239721
 10
-96.92132299958205977
 20
32.83680600007238581
 10
-96.91882599958597666
 20
32.83679600007241106
 10
-96.91753099958793882
 20
32.83678200007244641
  0
LWPOLYLINE
  5
10e
  8
Trans_RoadSegment_Full
100
AcDbEntity
100
AcDbPolyline
  6
CONTINUOUS
420
12011595
 90
     4
 70
     0
 43
0.00233561973871076
 10
-96.9358429995595543
 20
32.85010200005177694
 10
-96.93567799955980036
 20
32.85039700005131635
 10
-96.93553599955998834
 20
32.85058600005100971
 10
-96.93541899956017005
 20
32.85069600005084567
  0
LWPOLYLINE
  5
10f
  8
Trans_RoadSegment_Full
100
AcDbEntity
100
AcDbPolyline
  6
CONTINUOUS
420
12011595
 90
     3
 70
     0
 43
0.00233561973871076
 10
-96.93642899955864323
 20
32.8537970000460291
 10
-96.93556899955996187
 20
32.85358500004633697
 10
-96.93534999956028742
 20
32.85350600004647958
  0
LWPOLYLINE
  5
110
  8
Trans_RoadSegment_Full
100
AcDbEntity
100
AcDbPolyline
  6
CONTINUOUS
420
12011595
 90
    24
 70
     0
 43
0.00233561973871076
 10
-96.93856799955528913
 20
32.85465000004472813
 10
-96.93850099955540145
 20
32.85472500004459562
 10
-96.93842199955554406
 20
32.85488300004436724
 10
-96.93831299955570557
 20
32.85507100004406311
 10
-96.93822899955586081
 20
32.8551620000438902
 10
-96.93808499955605384
 20
32.85525800004376151
 10
-96.93801899955616364
 20
32.85528000004370597
 10
-96.93787799955640594
 20
32.85529400004372746
 10
-96.93778199955653463
 20
32.85528300004375524
 10
-96.93768699955666079
 20
32.85524900004378424
 10
-96.93700399955775993
 20
32.85491200004429402
 10
-96.93683699955801103
 20
32.85485500004438109
 10
-96.93651499955848294
 20
32.85479300004448078
 10
-96.93618899955902179
 20
32.8547500000445325
 10
-96.93590399955945713
 20
32.85469800004466379
 10
-96.93554399956002499
 20
32.85464700004473571
 10
-96.93534999956028742
 20
32.85455200004486187
 10
-96.93526999956043255
 20
32.85447600004499691
 10
-96.93521999956050195
 20
32.85437700004513317
 10
-96.93520199956054739
 20
32.85430800004525054
 10
-96.93519699956056002
 20
32.85402700004567578
 10
-96.93522299956049437
 20
32.85386100004592436
 10
-96.93525799956046285
 20
32.85370400004620706
 10
-96.93534999956028742
 20
32.85350600004647958
  0
LWPOLYLINE
  5
111
  8
Trans_RoadSegment_Full
100
AcDbEntity
100
AcDbPolyline
  6
CONTINUOUS
420
12011595
 90
     6
 70
     0
 43
0.00233561973871076
 10
-96.9279099995718525
 20
32.84410500006106304
 10
-96.92786999957189664
 20
32.84410800006105546
 10
-96.92552599957554094
 20
32.84408200006112111
 10
-96.92457299957703754
 20
32.84407800006113121
 10
-96.92335199957892655
 20
32.84413900006103404
 10
-96.92232699958049125
 20
32.84415800006098607
  0
LWPOLYLINE
  5
112
  8
Trans_RoadSegment_Full
100
AcDbEntity
100
AcDbPolyline
  6
CONTINUOUS
420
12011595
 90
     2
 70
     0
 43
0.00233561973871076
 10
-96.91753099958793882
 20
32.83678200007244641
 10
-96.91492499959201723
 20
32.8367540000725171
  0
LWPOLYLINE
  5
113
  8
Trans_RoadSegment_Full
100
AcDbEntity
100
AcDbPolyline
  6
CONTINUOUS
420
12011595
 90
     3
 70
     0
 43
0.00233561973871076
 10
-96.91161399959713663
 20
32.83696000007216753
 10
-96.91303899959495993
 20
32.83691600007222178
 10
-96.91444499959277437
 20
32.8369330000722357
  0
LWPOLYLINE
  5
114
  8
Trans_RoadSegment_Full
100
AcDbEntity
100
AcDbPolyline
  6
CONTINUOUS
420
12011595
 90
     2
 70
     0
 43
0.00233561973871076
 10
-96.91834899958666938
 20
32.84421300006090405
 10
-96.91835099958666433
 20
32.84441300006062647
  0
LWPOLYLINE
  5
115
  8
Trans_RoadSegment_Full
100
AcDbEntity
100
AcDbPolyline
  6
CONTINUOUS
420
12011595
 90
    14
 70
     0
 43
0.00233561973871076
 10
-96.91806999958714641
 20
32.84889500005363061
 10
-96.91794899958733822
 20
32.84875700005386534
 10
-96.91787299958741642
 20
32.84868900005398018
 10
-96.91779599958755398
 20
32.84864100005404453
 10
-96.91770299958767509
 20
32.84860200005408615
 10
-96.9175819995878669
 20
32.84856400005418209
 10
-96.91747499958802337
 20
32.84852300005422876
 10
-96.91740099958815335
 20
32.84848900005425776
 10
-96.91733899958825305
 20
32.84844600005436632
 10
-96.91728799958832496
 20
32.84839000005445087
 10
-96.91725399958841081
 20
32.84833500005453288
 10
-96.91723699958839688
 20
32.84827000005464015
 10
-96.91722199958843476
 20
32.84818700005473602
 10
-96.91720499958847768
 20
32.84813100005482056
  0
LWPOLYLINE
  5
116
  8
Trans_RoadSegment_Full
100
AcDbEntity
100
AcDbPolyline
  6
CONTINUOUS
420
12011595
 90
     3
 70
     0
 43
0.00233561973871076
 10
-96.91611599959014711
 20
32.85246900004807458
 10
-96.91610599959017236
 20
32.85433900004517227
 10
-96.91612399959012691
 20
32.85604200004257791
  0
LWPOLYLINE
  5
117
  8
Trans_RoadSegment_Full
100
AcDbEntity
100
AcDbPolyline
  6
CONTINUOUS
420
12011595
 90
     3
 70
     0
 43
0.00233561973871076
 10
-96.91411899959325638
 20
32.8405720000665724
 10
-96.91403699959340656
 20
32.8409840000659301
 10
-96.91398499959348101
 20
32.84116500006564365
  0
LWPOLYLINE
  5
118
  8
Trans_RoadSegment_Full
100
AcDbEntity
100
AcDbPolyline
  6
CONTINUOUS
420
12011595
 90
     9
 70
     0
 43
0.00233561973871076
 10
-96.91602099959033012
 20
32.84876700005384009
 10
-96.91584399959060647
 20
32.8486800000540029
 10
-96.91542399959121212
 20
32.8484590000543335
 10
-96.91524699959148847
 20
32.84836800005444957
 10
-96.91463499959246519
 20
32.8480130000550048
 10
-96.91381199959374726
 20
32.84747000005586415
 10
-96.91290699959512267
 20
32.84679000005689886
 10
-96.91259199959563375
 20
32.84650800005732663
 10
-96.91230599959607162
 20
32.84627900005767742
  0
LWPOLYLINE
  5
119
  8
Trans_RoadSegment_Full
100
AcDbEntity
100
AcDbPolyline
  6
CONTINUOUS
420
12011595
 90
     6
 70
     0
 43
0.00233561973871076
 10
-96.90911699960099668
 20
32.84349400006203723
 10
-96.90842099960212863
 20
32.84277900006316031
 10
-96.90832399960225985
 20
32.84268000006329657
 10
-96.90806799960262197
 20
32.84242100006366627
 10
-96.90746399960357849
 20
32.84171700006476158
 10
-96.90718199960400625
 20
32.84140000006527771
  0
LWPOLYLINE
  5
11a
  8
Trans_RoadSegment_Full
100
AcDbEntity
100
AcDbPolyline
  6
CONTINUOUS
420
12011595
 90
     4
 70
     0
 43
0.00233561973871076
 10
-96.90883399960148381
 20
32.83758300007121989
 10
-96.9079559996028479
 20
32.83775500007095616
 10
-96.90715799960406684
 20
32.83804400007051072
 10
-96.90704499960423846
 20
32.83807100007044255
  0
LWPOLYLINE
  5
11b
  8
Trans_RoadSegment_Full
100
AcDbEntity
100
AcDbPolyline
  6
CONTINUOUS
420
12011595
 90
     3
 70
     0
 43
0.00233561973871076
 10
-96.93896299955468976
 20
32.83694000007221803
 10
-96.93871499955508853
 20
32.83694000007221803
 10
-96.93538499956025589
 20
32.83680900007237824
  0
LWPOLYLINE
  5
11c
  8
Trans_RoadSegment_Full
100
AcDbEntity
100
AcDbPolyline
  6
CONTINUOUS
420
12011595
 90
     2
 70
     0
 43
0.00233561973871076
 10
-96.93007599956848708
 20
32.83686400007229622
 10
-96.92842199957107141
 20
32.83685200007232652
  0
LWPOLYLINE
  5
11d
  8
Trans_RoadSegment_Full
100
AcDbEntity
100
AcDbPolyline
  6
CONTINUOUS
420
12011595
 90
    13
 70
     0
 43
0.00233561973871076
 10
-96.9363539995587189
 20
32.84606900005803709
 10
-96.93602899955925523
 20
32.84578100005848
 10
-96.93536799956029881
 20
32.84532100005918664
 10
-96.93528099956040478
 20
32.84526700005926614
 10
-96.93509999956069123
 20
32.84512900005950087
 10
-96.93475199956122879
 20
32.84487500005985794
 10
-96.93438899956180421
 20
32.84465900006023276
 10
-96.93399399956240359
 20
32.84447400006052931
 10
-96.9336639995628957
 20
32.84435500006071607
 10
-96.93333799956343455
 20
32.84426500006082961
 10
-96.93296299956398343
 20
32.84419200006095707
 10
-96.93228699956506489
 20
32.84414400006102142
 10
-96.93022999956826879
 20
32.84412500006106939
  0
LWPOLYLINE
  5
11e
  8
Trans_RoadSegment_Full
100
AcDbEntity
100
AcDbPolyline
  6
CONTINUOUS
420
12011595
 90
     4
 70
     0
 43
0.00233561973871076
 10
-96.93022799956827384
 20
32.84432400006073749
 10
-96.92896299957021711
 20
32.84429300006081576
 10
-96.92825599957131999
 20
32.84429000006076649
 10
-96.92783999957197238
 20
32.84430700006078041
  0
LWPOLYLINE
  5
11f
  8
Trans_RoadSegment_Full
100
AcDbEntity
100
AcDbPolyline
  6
CONTINUOUS
420
12011595
 90
     9
 70
     0
 43
0.00233561973871076
 10
-96.92593399957490874
 20
32.8542130000453767
 10
-96.92590999957496933
 20
32.85417100004548274
 10
-96.92587199957500843
 20
32.85413500004551679
 10
-96.92577899957512955
 20
32.85407500004561143
 10
-96.92563699957537438
 20
32.8539760000457477
 10
-96.92528299957592708
 20
32.85374300004610859
 10
-96.92471399957679523
 20
32.85334400004671807
 10
-96.92457899957702239
 20
32.85321600004692755
 10
-96.92438399957734418
 20
32.85298400004728592
  0
LWPOLYLINE
  5
120
  8
Trans_RoadSegment_Full
100
AcDbEntity
100
AcDbPolyline
  6
CONTINUOUS
420
12011595
 90
     3
 70
     0
 43
0.00233561973871076
 10
-96.92593399957490874
 20
32.8542130000453767
 10
-96.92533199957586021
 20
32.85390300004587516
 10
-96.92380599957823506
 20
32.85309600004711683
  0
LWPOLYLINE
  5
121
  8
Trans_RoadSegment_Full
100
AcDbEntity
100
AcDbPolyline
  6
CONTINUOUS
420
12011595
 90
     3
 70
     0
 43
0.00233561973871076
 10
-96.90916199960093991
 20
32.83675900007250448
 10
-96.90871099960162383
 20
32.83675300007251963
 10
-96.90737899960373625
 20
32.83671900007254862
  0
LWPOLYLINE
  5
122
  8
Trans_RoadSegment_Full
100
AcDbEntity
100
AcDbPolyline
  6
CONTINUOUS
420
12011595
 90
     3
 70
     0
 43
0.00233561973871076
 10
-96.91732799958828082
 20
32.84117800006561083
 10
-96.91745199958808143
 20
32.84127300006548467
 10
-96.91759199958784166
 20
32.84132900006540012
  0
LWPOLYLINE
  5
123
  8
Trans_RoadSegment_Full
100
AcDbEntity
100
AcDbPolyline
  6
CONTINUOUS
420
12011595
 90
     2
 70
     0
 43
0.00233561973871076
 10
-96.91621899959000075
 20
32.84440000006060245
 10
-96.9162049995900361
 20
32.84579200005845223
  0
LWPOLYLINE
  5
124
  8
Trans_RoadSegment_Full
100
AcDbEntity
100
AcDbPolyline
  6
CONTINUOUS
420
12011595
 90
     3
 70
     0
 43
0.00233561973871076
 10
-96.91458299959253964
 20
32.83967400006793014
 10
-96.91457499959255983
 20
32.83991500006760589
 10
-96.91455199959256106
 20
32.84044700006677431
  0
LWPOLYLINE
  5
125
  8
Trans_RoadSegment_Full
100
AcDbEntity
100
AcDbPolyline
  6
CONTINUOUS
420
12011595
 90
     2
 70
     0
 43
0.00233561973871076
 10
-96.91240099959594545
 20
32.84581200005840174
 10
-96.91221799959618011
 20
32.84562900005869324
  0
LWPOLYLINE
  5
126
  8
Trans_RoadSegment_Full
100
AcDbEntity
100
AcDbPolyline
  6
CONTINUOUS
420
12011595
 90
     4
 70
     0
 43
0.00233561973871076
 10
-96.91119099959780669
 20
32.84746100005588687
 10
-96.91049899959887171
 20
32.84813400005481299
 10
-96.90940999960054114
 20
32.84941700005282428
 10
-96.90828099960231157
 20
32.85073900005079395
  0
LWPOLYLINE
  5
127
  8
Trans_RoadSegment_Full
100
AcDbEntity
100
AcDbPolyline
  6
CONTINUOUS
420
12011595
 90
     9
 70
     0
 43
0.00233561973871076
 10
-96.93635899955876312
 20
32.83707700007198582
 10
-96.93536899956029629
 20
32.83704600007206409
 10
-96.93483499956107607
 20
32.83700700007210571
 10
-96.93356999956307618
 20
32.83691700007221925
 10
-96.93344799956327051
 20
32.83690600007224702
 10
-96.9331069995637904
 20
32.83689400007227732
 10
-96.93195199956556962
 20
32.83688500007230004
 10
-96.93094599956714319
 20
32.83686600007229117
 10
-96.93046099956791295
 20
32.83686600007229117
  0
LWPOLYLINE
  5
128
  8
Trans_RoadSegment_Full
100
AcDbEntity
100
AcDbPolyline
  6
CONTINUOUS
420
12011595
 90
    14
 70
     0
 43
0.00233561973871076
 10
-96.91578099959065185
 20
32.83469000007568184
 10
-96.91575299959072254
 20
32.834826000075509
 10
-96.9156679995908803
 20
32.83546800007451338
 10
-96.91556499959102666
 20
32.83615400007340668
 10
-96.91556299959103171
 20
32.83623500007331586
 10
-96.91557099959101151
 20
32.83630500007319597
 10
-96.91558799959096859
 20
32.83634800007314425
 10
-96.9156079995909181
 20
32.83638100007306093
 10
-96.91564399959088405
 20
32.83642300007301174
 10
-96.91568899959082728
 20
32.83645800007292337
 10
-96.91572799959078566
 20
32.83648100007292214
 10
-96.91577899959065689
 20
32.83650100007287165
 10
-96.91587999959051558
 20
32.83651700007283125
 10
-96.91740699958813821
 20
32.8365570000727871
  0
LWPOLYLINE
  5
129
  8
Trans_RoadSegment_Full
100
AcDbEntity
100
AcDbPolyline
  6
CONTINUOUS
420
12011595
 90
     4
 70
     0
 43
0.00233561973871076
 10
-96.91511299959171311
 20
32.8369330000722357
 10
-96.91592799959045124
 20
32.83692500007219905
 10
-96.91641299958968148
 20
32.83692400007220158
 10
-96.91954699958483843
 20
32.83696400007215743
  0
LWPOLYLINE
  5
12a
  8
Trans_RoadSegment_Full
100
AcDbEntity
100
AcDbPolyline
  6
CONTINUOUS
420
12011595
 90
     4
 70
     0
 43
0.00233561973871076
 10
-96.91740699958813821
 20
32.8365570000727871
 10
-96.91585199959058627
 20
32.83662100007268236
 10
-96.9154589995911806
 20
32.83662100007268236
 10
-96.91493499959199198
 20
32.83660200007273033
  0
LWPOLYLINE
  5
12b
  8
Trans_RoadSegment_Full
100
AcDbEntity
100
AcDbPolyline
  6
CONTINUOUS
420
12011595
 90
    14
 70
     0
 43
0.00233561973871076
 10
-96.92194799958110707
 20
32.84622800005780618
 10
-96.92192699958116009
 20
32.84678400005691401
 10
-96.92191699958112849
 20
32.84695600005665028
 10
-96.92188999958119666
 20
32.8471180000564118
 10
-96.92179799958131525
 20
32.84721700005627554
 10
-96.92165299958156766
 20
32.84729000005614807
 10
-96.92145399958184271
 20
32.84736700005601051
 10
-96.92120599958224147
 20
32.84742600005591839
 10
-96.92111499958241438
 20
32.84744400005587295
 10
-96.92090499958271721
 20
32.84741200005595374
 10
-96.92071099958303648
 20
32.84742600005591839
 10
-96.92050699958332416
 20
32.84746200005588435
 10
-96.92024899958374817
 20
32.84749800005579345
 10
-96.92002799958407877
 20
32.84756100005569124
  0
LWPOLYLINE
  5
12c
  8
Trans_RoadSegment_Full
100
AcDbEntity
100
AcDbPolyline
  6
CONTINUOUS
420
12011595
 90
     4
 70
     0
 43
0.00233561973871076
 10
-96.9206299995831273
 20
32.85135700004980208
 10
-96.91954999958483086
 20
32.8507490000507687
 10
-96.91921399958533812
 20
32.85057100005104758
 10
-96.91685299958902533
 20
32.849205000053189
  0
LWPOLYLINE
  5
12d
  8
Trans_RoadSegment_Full
100
AcDbEntity
100
AcDbPolyline
  6
CONTINUOUS
420
12011595
 90
     2
 70
     0
 43
0.00233561973871076
 10
-96.91531099959138373
 20
32.84044500006677936
 10
-96.91517299959161846
 20
32.84044600006677683
  0
LWPOLYLINE
  5
12e
  8
Trans_RoadSegment_Full
100
AcDbEntity
100
AcDbPolyline
  6
CONTINUOUS
420
12011595
 90
     4
 70
     0
 43
0.00233561973871076
 10
-96.9143389995929283
 20
32.83905000006893715
 10
-96.91426699959305324
 20
32.8393800000683882
 10
-96.91420499959309609
 20
32.83973700006788476
 10
-96.91412699959323618
 20
32.84044400006678188
  0
LWPOLYLINE
  5
12f
  8
Trans_RoadSegment_Full
100
AcDbEntity
100
AcDbPolyline
  6
CONTINUOUS
420
12011595
 90
     7
 70
     0
 43
0.00233561973871076
 10
-96.91601499959028843
 20
32.84907900005333659
 10
-96.91540199959126767
 20
32.84874600005389311
 10
-96.91495099959195159
 20
32.84850200005428178
 10
-96.91425799959301912
 20
32.84807400005490763
 10
-96.91371599959387595
 20
32.84771000005548558
 10
-96.91308899959483369
 20
32.84724000005621747
 10
-96.91254699959569052
 20
32.84677600005693421
  0
LWPOLYLINE
  5
130
  8
Trans_RoadSegment_Full
100
AcDbEntity
100
AcDbPolyline
  6
CONTINUOUS
420
12011595
 90
     5
 70
     0
 43
0.00233561973871076
 10
-96.90518099960712561
 20
32.83855800006966774
 10
-96.90494999960748146
 20
32.838290000070117
 10
-96.90482399960768589
 20
32.83813500007033781
 10
-96.90454099960811618
 20
32.83776900007092081
 10
-96.90401499960893261
 20
32.8371280000719139
  0
LWPOLYLINE
  5
131
  8
Trans_RoadSegment_Full
100
AcDbEntity
100
AcDbPolyline
  6
CONTINUOUS
420
12011595
 90
    14
 70
     0
 43
0.00233561973871076
 10
-96.93300399956393676
 20
32.84883500005372525
 10
-96.93290299956407807
 20
32.84908000005333406
 10
-96.93285199956420684
 20
32.84917100005321799
 10
-96.932756999564333
 20
32.84931000005298074
 10
-96.93263599956452481
 20
32.84944900005280033
 10
-96.93233699956499549
 20
32.84969000005241924
 10
-96.93220199956516581
 20
32.84980700005223753
 10
-96.93207899956536266
 20
32.84992800005204572
 10
-96.93177499956584597
 20
32.85025100005151444
 10
-96.93166299956601506
 20
32.85039400005132393
 10
-96.9315489995661892
 20
32.85060200005096931
 10
-96.93143999956635071
 20
32.85083700005060336
 10
-96.9313699995664706
 20
32.85097600005042295
 10
-96.93123099956670785
 20
32.85117300005009611
  0
LWPOLYLINE
  5
132
  8
Trans_RoadSegment_Full
100
AcDbEntity
100
AcDbPolyline
  6
CONTINUOUS
420
12011595
 90
     2
 70
     0
 43
0.00233561973871076
 10
-96.93026799956817285
 20
32.83725500007170695
 10
-96.92994599956870161
 20
32.83725300007171199
  0
LWPOLYLINE
  5
133
  8
Trans_RoadSegment_Full
100
AcDbEntity
100
AcDbPolyline
  6
CONTINUOUS
420
12011595
 90
     3
 70
     0
 43
0.00233561973871076
 10
-96.91485099959214722
 20
32.83659800007274043
 10
-96.91483999959211815
 20
32.83666800007262054
 10
-96.91482399959215854
 20
32.8367540000725171
  0
LWPOLYLINE
  5
134
  8
Trans_RoadSegment_Full
100
AcDbEntity
100
AcDbPolyline
  6
CONTINUOUS
420
12011595
 90
     4
 70
     0
 43
0.00233561973871076
 10
-96.90998699959965279
 20
32.83726600007167917
 10
-96.91056299959876696
 20
32.83708800007195805
 10
-96.91079399959841112
 20
32.83704100007201987
 10
-96.91103799959802245
 20
32.83697000007214228
  0
LWPOLYLINE
  5
135
  8
Trans_RoadSegment_Full
100
AcDbEntity
100
AcDbPolyline
  6
CONTINUOUS
420
12011595
 90
     3
 70
     0
 43
0.00233561973871076
 10
-96.92198699958106545
 20
32.84437200006067314
 10
-96.9197029995846151
 20
32.84439900006060498
 10
-96.91835099958666433
 20
32.84441300006062647
  0
LWPOLYLINE
  5
136
  8
Trans_RoadSegment_Full
100
AcDbEntity
100
AcDbPolyline
  6
CONTINUOUS
420
12011595
 90
     5
 70
     0
 43
0.00233561973871076
 10
-96.91942099958504286
 20
32.83715900007183564
 10
-96.91884299958593374
 20
32.8371620000718849
 10
-96.91858699958629586
 20
32.83718600007182431
 10
-96.91832499958672997
 20
32.83725100007171704
 10
-96.91811799958702522
 20
32.83733900007160855
  0
LWPOLYLINE
  5
137
  8
Trans_RoadSegment_Full
100
AcDbEntity
100
AcDbPolyline
  6
CONTINUOUS
420
12011595
 90
     3
 70
     0
 43
0.00233561973871076
 10
-96.91621599959000832
 20
32.84886100005371645
 10
-96.91612799959011681
 20
32.84881500005377575
 10
-96.91602099959033012
 20
32.84876700005384009
  0
LWPOLYLINE
  5
138
  8
Trans_RoadSegment_Full
100
AcDbEntity
100
AcDbPolyline
  6
CONTINUOUS
420
12011595
 90
     2
 70
     0
 43
0.00233561973871076
 10
-96.91485199959214469
 20
32.84044700006677431
 10
-96.91484799959209795
 20
32.84054800006657615
  0
LWPOLYLINE
  5
139
  8
Trans_RoadSegment_Full
100
AcDbEntity
100
AcDbPolyline
  6
CONTINUOUS
420
12011595
 90
     2
 70
     0
 43
0.00233561973871076
 10
-96.91485199959214469
 20
32.84044700006677431
 10
-96.91455199959256106
 20
32.84044700006677431
  0
LWPOLYLINE
  5
13a
  8
Trans_RoadSegment_Full
100
AcDbEntity
100
AcDbPolyline
  6
CONTINUOUS
420
12011595
 90
     7
 70
     0
 43
0.00233561973871076
 10
-96.91254699959569052
 20
32.84677600005693421
 10
-96.91269099959549749
 20
32.84705400005651654
 10
-96.91303999959495741
 20
32.84757100005572283
 10
-96.91350999959422552
 20
32.84796600005506662
 10
-96.91422499959310244
 20
32.84842700005435745
 10
-96.91520999959158189
 20
32.84888800005364828
 10
-96.9160159995902859
 20
32.8492210000531486
  0
LWPOLYLINE
  5
13b
  8
Trans_RoadSegment_Full
100
AcDbEntity
100
AcDbPolyline
  6
CONTINUOUS
420
12011595
 90
     2
 70
     0
 43
0.00233561973871076
 10
-96.91264699959555173
 20
32.84553800005886615
 10
-96.91240099959594545
 20
32.84581200005840174
  0
LWPOLYLINE
  5
13c
  8
Trans_RoadSegment_Full
100
AcDbEntity
100
AcDbPolyline
  6
CONTINUOUS
420
12011595
 90
     3
 70
     0
 43
0.00233561973871076
 10
-96.91197599959656372
 20
32.84627400005769005
 10
-96.91177899959689057
 20
32.84646700005743014
 10
-96.91169599959704328
 20
32.84655000005727743
  0
LWPOLYLINE
  5
13d
  8
Trans_RoadSegment_Full
100
AcDbEntity
100
AcDbPolyline
  6
CONTINUOUS
420
12011595
 90
     2
 70
     0
 43
0.00233561973871076
 10
-96.91169599959704328
 20
32.84655000005727743
 10
-96.91143699959741298
 20
32.84633200005760045
  0
LWPOLYLINE
  5
13e
  8
Trans_RoadSegment_Full
100
AcDbEntity
100
AcDbPolyline
  6
CONTINUOUS
420
12011595
 90
     2
 70
     0
 43
0.00233561973871076
 10
-96.93046099956791295
 20
32.83686600007229117
 10
-96.93046099956791295
 20
32.83696900007214481
  0
LWPOLYLINE
  5
13f
  8
Trans_RoadSegment_Full
100
AcDbEntity
100
AcDbPolyline
  6
CONTINUOUS
420
12011595
 90
     3
 70
     0
 43
0.00233561973871076
 10
-96.93392499956252095
 20
32.85326200004686825
 10
-96.93377999956271651
 20
32.85287100004745753
 10
-96.93359599956301054
 20
32.85249300004807083
  0
LWPOLYLINE
  5
140
  8
Trans_RoadSegment_Full
100
AcDbEntity
100
AcDbPolyline
  6
CONTINUOUS
420
12011595
 90
     5
 70
     0
 43
0.00233561973871076
 10
-96.92783999957197238
 20
32.84430700006078041
 10
-96.92552199957555104
 20
32.84428200006078669
 10
-96.92458599957700471
 20
32.84427800006079678
 10
-96.92334799957893665
 20
32.84433800006070214
 10
-96.92232699958049125
 20
32.84435800006070849
  0
LWPOLYLINE
  5
141
  8
Trans_RoadSegment_Full
100
AcDbEntity
100
AcDbPolyline
  6
CONTINUOUS
420
12011595
 90
     3
 70
     0
 43
0.00233561973871076
 10
-96.92132699958204967
 20
32.83658800007276568
 10
-96.92010499958394121
 20
32.83658200007278083
 10
-96.9177649995875754
 20
32.83655400007279468
  0
LWPOLYLINE
  5
142
  8
Trans_RoadSegment_Full
100
AcDbEntity
100
AcDbPolyline
  6
CONTINUOUS
420
12011595
 90
     2
 70
     0
 43
0.00233561973871076
 10
-96.91444499959277437
 20
32.8369330000722357
 10
-96.91455199959256106
 20
32.83693200007223822
  0
LWPOLYLINE
  5
143
  8
Trans_RoadSegment_Full
100
AcDbEntity
100
AcDbPolyline
  6
CONTINUOUS
420
12011595
 90
     2
 70
     0
 43
0.00233561973871076
 10
-96.90968899960012095
 20
32.83641500007303193
 10
-96.90935999960066738
 20
32.8367620000724969
  0
LWPOLYLINE
  5
144
  8
Trans_RoadSegment_Full
100
AcDbEntity
100
AcDbPolyline
  6
CONTINUOUS
420
12011595
 90
     2
 70
     0
 43
0.00233561973871076
 10
-96.90935999960066738
 20
32.8367620000724969
 10
-96.90916199960093991
 20
32.83675900007250448
  0
LWPOLYLINE
  5
145
  8
Trans_RoadSegment_Full
100
AcDbEntity
100
AcDbPolyline
  6
CONTINUOUS
420
12011595
 90
     7
 70
     0
 43
0.00233561973871076
 10
-96.90935999960066738
 20
32.8367620000724969
 10
-96.90916399960093486
 20
32.83695200007218773
 10
-96.90901599960119484
 20
32.83707100007200097
 10
-96.9086999996016516
 20
32.83708500007196562
 10
-96.90811799960255257
 20
32.83712700007191643
 10
-96.90740999960365798
 20
32.83720100007178644
 10
-96.90676699960465612
 20
32.83738100007150251
  0
LWPOLYLINE
  5
146
  8
Trans_RoadSegment_Full
100
AcDbEntity
100
AcDbPolyline
  6
CONTINUOUS
420
12011595
 90
     3
 70
     0
 43
0.00233561973871076
 10
-96.91685299958902533
 20
32.849205000053189
 10
-96.91654999958950611
 20
32.8489620000535183
 10
-96.91649999958957551
 20
32.84892600005360919
  0
LWPOLYLINE
  5
147
  8
Trans_RoadSegment_Full
100
AcDbEntity
100
AcDbPolyline
  6
CONTINUOUS
420
12011595
 90
     2
 70
     0
 43
0.00233561973871076
 10
-96.91648999958960076
 20
32.84933200005298204
 10
-96.91621899959000075
 20
32.84918400005318517
  0
LWPOLYLINE
  5
148
  8
Trans_RoadSegment_Full
100
AcDbEntity
100
AcDbPolyline
  6
CONTINUOUS
420
12011595
 90
     2
 70
     0
 43
0.00233561973871076
 10
-96.91649999958957551
 20
32.84892600005360919
 10
-96.91621199959001842
 20
32.84872200005389686
  0
LWPOLYLINE
  5
149
  8
Trans_RoadSegment_Full
100
AcDbEntity
100
AcDbPolyline
  6
CONTINUOUS
420
12011595
 90
     2
 70
     0
 43
0.00233561973871076
 10
-96.9162049995900361
 20
32.84579200005845223
 10
-96.9162049995900361
 20
32.84833300005453793
  0
LWPOLYLINE
  5
14a
  8
Trans_RoadSegment_Full
100
AcDbEntity
100
AcDbPolyline
  6
CONTINUOUS
420
12011595
 90
     8
 70
     0
 43
0.00233561973871076
 10
-96.91531899959142038
 20
32.84056500006659007
 10
-96.91581599959062032
 20
32.84056200006659765
 10
-96.91619799959005377
 20
32.84056700006658502
 10
-96.91647799958957421
 20
32.84059800006650676
 10
-96.91662299958937865
 20
32.84064200006645251
 10
-96.9167579995891515
 20
32.84070200006635787
 10
-96.91691299958893069
 20
32.84079500006623675
 10
-96.91732799958828082
 20
32.84117800006561083
  0
LWPOLYLINE
  5
14b
  8
Trans_RoadSegment_Full
100
AcDbEntity
100
AcDbPolyline
  6
CONTINUOUS
420
12011595
 90
     3
 70
     0
 43
0.00233561973871076
 10
-96.91330899959450562
 20
32.84515800005942765
 10
-96.91337899959438573
 20
32.84493700005981509
 10
-96.91346599959427977
 20
32.84473900006008762
  0
LWPOLYLINE
  5
14c
  8
Trans_RoadSegment_Full
100
AcDbEntity
100
AcDbPolyline
  6
CONTINUOUS
420
12011595
 90
     2
 70
     0
 43
0.00233561973871076
 10
-96.91222599959621675
 20
32.84543300005901756
 10
-96.91221799959618011
 20
32.84562900005869324
  0
LWPOLYLINE
  5
14d
  8
Trans_RoadSegment_Full
100
AcDbEntity
100
AcDbPolyline
  6
CONTINUOUS
420
12011595
 90
     5
 70
     0
 43
0.00233561973871076
 10
-96.91169599959704328
 20
32.84655000005727743
 10
-96.91082599959838717
 20
32.84741900005593607
 10
-96.90995099959974368
 20
32.84843500005433725
 10
-96.90913599960100555
 20
32.84948300005271449
 10
-96.90828099960231157
 20
32.85073900005079395
  0
LWPOLYLINE
  5
14e
  8
Trans_RoadSegment_Full
100
AcDbEntity
100
AcDbPolyline
  6
CONTINUOUS
420
12011595
 90
     2
 70
     0
 43
0.00233561973871076
 10
-96.90565699960637858
 20
32.83884500006922735
 10
-96.90552099960660826
 20
32.83895100006907342
  0
LWPOLYLINE
  5
14f
  8
Trans_RoadSegment_Full
100
AcDbEntity
100
AcDbPolyline
  6
CONTINUOUS
420
12011595
 90
     3
 70
     0
 43
0.00233561973871076
 10
-96.93681399955801226
 20
32.84670000005706925
 10
-96.9363759995587202
 20
32.84636200005758155
 10
-96.93620399955898392
 20
32.84622100005776701
  0
LWPOLYLINE
  5
150
  8
Trans_RoadSegment_Full
100
AcDbEntity
100
AcDbPolyline
  6
CONTINUOUS
420
12011595
 90
     8
 70
     0
 43
0.00233561973871076
 10
-96.93521599956051205
 20
32.84916500005323314
 10
-96.93547399956008803
 20
32.8480630000549354
 10
-96.93559799955988865
 20
32.84743900005588557
 10
-96.93568399955978521
 20
32.84696400005663008
 10
-96.93572199955974611
 20
32.84680900005690773
 10
-96.93577699955966409
 20
32.84667400005707805
 10
-96.9358469995595442
 20
32.84658100005725601
 10
-96.93620399955898392
 20
32.84622100005776701
  0
LWPOLYLINE
  5
151
  8
Trans_RoadSegment_Full
100
AcDbEntity
100
AcDbPolyline
  6
CONTINUOUS
420
12011595
 90
     6
 70
     0
 43
0.00233561973871076
 10
-96.93486499956105718
 20
32.83714700007186593
 10
-96.93534899956028994
 20
32.83717900007184198
 10
-96.93614699955907099
 20
32.83721100007176119
 10
-96.93669099955820911
 20
32.83722200007179026
 10
-96.93859699955527276
 20
32.83725800007169937
 10
-96.93888899955481975
 20
32.83726000007169432
  0
LWPOLYLINE
  5
152
  8
Trans_RoadSegment_Full
100
AcDbEntity
100
AcDbPolyline
  6
CONTINUOUS
420
12011595
 90
     3
 70
     0
 43
0.00233561973871076
 10
-96.93472899956128686
 20
32.84909300005335808
 10
-96.93489099956099153
 20
32.84829500005457703
 10
-96.9350309995608086
 20
32.84763300005562314
  0
LWPOLYLINE
  5
153
  8
Trans_RoadSegment_Full
100
AcDbEntity
100
AcDbPolyline
  6
CONTINUOUS
420
12011595
 90
    12
 70
     0
 43
0.00233561973871076
 10
-96.92826499957129727
 20
32.85507800004404544
 10
-96.92766099957225379
 20
32.85472300004460067
 10
-96.92669199957373394
 20
32.85421500004537165
 10
-96.92629299957434341
 20
32.85400000004574395
 10
-96.92577799957513207
 20
32.85372100004616414
 10
-96.92543799957570627
 20
32.85356300004639252
 10
-96.92525899957598767
 20
32.85350300004648716
 10
-96.92511099957619081
 20
32.8534430000465818
 10
-96.92498899957638514
 20
32.85337500004669664
 10
-96.9248279995766211
 20
32.85327100004684553
 10
-96.924702999576823
 20
32.85318500004700581
 10
-96.92438399957734418
 20
32.85298400004728592
  0
LWPOLYLINE
  5
154
  8
Trans_RoadSegment_Full
100
AcDbEntity
100
AcDbPolyline
  6
CONTINUOUS
420
12011595
 90
    25
 70
     0
 43
0.00233561973871076
 10
-96.92402299957785772
 20
32.85277700004763801
 10
-96.92401799957787034
 20
32.85269400004773388
 10
-96.92411099957774923
 20
32.85255800004796356
 10
-96.92429599957745268
 20
32.85232200004833203
 10
-96.92441399957726844
 20
32.85219600004853646
 10
-96.92457699957702744
 20
32.85208500004870302
 10
-96.92470099957682805
 20
32.85202100004880776
 10
-96.92483699957659837
 20
32.85196700004888726
 10
-96.92513599957612769
 20
32.85186700004902605
 10
-96.92550999957558133
 20
32.85175600004919261
 10
-96.92584599957507407
 20
32.85167700004933522
 10
-96.92596399957488984
 20
32.85164000004937179
 10
-96.92600399957478885
 20
32.85161600004943239
 10
-96.9260439995747447
 20
32.85158400004945634
 10
-96.92616299957455794
 20
32.85146100004965319
 10
-96.92631699957433966
 20
32.85126600004997499
 10
-96.92639999957418695
 20
32.85118800005005824
 10
-96.92646999957406706
 20
32.85113800005018447
 10
-96.92667599957377433
 20
32.85098500005040023
 10
-96.92666599957379958
 20
32.85037800005136432
 10
-96.92723399957287711
 20
32.85020600005162805
 10
-96.9275679995723749
 20
32.85016800005166715
 10
-96.92774799957209098
 20
32.85014800005171764
 10
-96.92793899957177928
 20
32.85024100005153969
 10
-96.9282839995712493
 20
32.85020300005163563
  0
LWPOLYLINE
  5
155
  8
Trans_RoadSegment_Full
100
AcDbEntity
100
AcDbPolyline
  6
CONTINUOUS
420
12011595
 90
     9
 70
     0
 43
0.00233561973871076
 10
-96.90737899960373625
 20
32.83671900007254862
 10
-96.90678299960461572
 20
32.8366860000725751
 10
-96.90635199960530599
 20
32.83665200007266094
 10
-96.90554299960655271
 20
32.83657400007274418
 10
-96.90463999960797992
 20
32.83643900007297134
 10
-96.90420999960861081
 20
32.8363620000731089
 10
-96.90330999961003045
 20
32.83615600007340163
 10
-96.90226999961163301
 20
32.83589300007383827
 10
-96.90175199961242924
 20
32.83577700007401745
  0
LWPOLYLINE
  5
156
  8
Trans_RoadSegment_Full
100
AcDbEntity
100
AcDbPolyline
  6
CONTINUOUS
420
12011595
 90
     2
 70
     0
 43
0.00233561973871076
 10
-96.92380599957823506
 20
32.85309600004711683
 10
-96.92368999957841424
 20
32.85325400004688845
  0
LWPOLYLINE
  5
157
  8
Trans_RoadSegment_Full
100
AcDbEntity
100
AcDbPolyline
  6
CONTINUOUS
420
12011595
 90
     3
 70
     0
 43
0.00233561973871076
 10
-96.92389199957807477
 20
32.85380600004600637
 10
-96.923570999578601
 20
32.8536300000462802
 10
-96.92345799957877261
 20
32.85355700004640767
  0
LWPOLYLINE
  5
158
  8
Trans_RoadSegment_Full
100
AcDbEntity
100
AcDbPolyline
  6
CONTINUOUS
420
12011595
 90
     4
 70
     0
 43
0.00233561973871076
 10
-96.91759199958784166
 20
32.84132900006540012
 10
-96.91752999958794135
 20
32.84119500006562475
 10
-96.91745199958808143
 20
32.84110800006573072
 10
-96.91733799958825557
 20
32.84101700006584679
  0
LWPOLYLINE
  5
159
  8
Trans_RoadSegment_Full
100
AcDbEntity
100
AcDbPolyline
  6
CONTINUOUS
420
12011595
 90
     2
 70
     0
 43
0.00233561973871076
 10
-96.91639099958973702
 20
32.84424400006088263
 10
-96.91618999959001712
 20
32.84425400006085738
  0
LWPOLYLINE
  5
15a
  8
Trans_RoadSegment_Full
100
AcDbEntity
100
AcDbPolyline
  6
CONTINUOUS
420
12011595
 90
     3
 70
     0
 43
0.00233561973871076
 10
-96.91601499959028843
 20
32.84907900005333659
 10
-96.9160159995902859
 20
32.84919800005314983
 10
-96.9160159995902859
 20
32.8492210000531486
  0
LWPOLYLINE
  5
15b
  8
Trans_RoadSegment_Full
100
AcDbEntity
100
AcDbPolyline
  6
CONTINUOUS
420
12011595
 90
     6
 70
     0
 43
0.00233561973871076
 10
-96.91601899959033517
 20
32.8485960000541013
 10
-96.9154289995911995
 20
32.84824500005464643
 10
-96.91461099959246894
 20
32.84764000005560547
 10
-96.91419399959312386
 20
32.84734300005607111
 10
-96.9139729995935113
 20
32.84715700005637018
 10
-96.91381599959373716
 20
32.84699900005659856
  0
LWPOLYLINE
  5
15c
  8
Trans_RoadSegment_Full
100
AcDbEntity
100
AcDbPolyline
  6
CONTINUOUS
420
12011595
 90
     5
 70
     0
 43
0.00233561973871076
 10
-96.93007599956848708
 20
32.83696800007214733
 10
-96.93007599956848708
 20
32.83707200007199845
 10
-96.9300509995685502
 20
32.83715900007183564
 10
-96.92998899956864989
 20
32.83721500007175109
 10
-96.92994599956870161
 20
32.83725300007171199
  0
LWPOLYLINE
  5
15d
  8
Trans_RoadSegment_Full
100
AcDbEntity
100
AcDbPolyline
  6
CONTINUOUS
420
12011595
 90
     2
 70
     0
 43
0.00233561973871076
 10
-96.9302799995681994
 20
32.83657300007274671
 10
-96.9298839995688013
 20
32.83657400007274418
  0
LWPOLYLINE
  5
15e
  8
Trans_RoadSegment_Full
100
AcDbEntity
100
AcDbPolyline
  6
CONTINUOUS
420
12011595
 90
     5
 70
     0
 43
0.00233561973871076
 10
-96.9298839995688013
 20
32.83657400007274418
 10
-96.92996999956864101
 20
32.83660600007272024
 10
-96.9300509995685502
 20
32.83669300007255742
 10
-96.93006999956850223
 20
32.83674900007247288
 10
-96.93007599956848708
 20
32.83686400007229622
  0
LWPOLYLINE
  5
15f
  8
Trans_RoadSegment_Full
100
AcDbEntity
100
AcDbPolyline
  6
CONTINUOUS
420
12011595
 90
    10
 70
     0
 43
0.00233561973871076
 10
-96.93798199955620021
 20
32.85134200004983995
 10
-96.93785699955640212
 20
32.85128400004992955
 10
-96.93772399955662422
 20
32.85125500005000276
 10
-96.93676899955812587
 20
32.85109500005023619
 10
-96.93630999955882999
 20
32.85103000005034346
 10
-96.93607599955919341
 20
32.85100300005035479
 10
-96.93590899955944451
 20
32.85096300005045578
 10
-96.93574799955968047
 20
32.85091500005052012
 10
-96.93560199955993539
 20
32.85083300005061346
 10
-96.93541899956017005
 20
32.85069600005084567
  0
LWPOLYLINE
  5
160
  8
Trans_RoadSegment_Full
100
AcDbEntity
100
AcDbPolyline
  6
CONTINUOUS
420
12011595
 90
     2
 70
     0
 43
0.00233561973871076
 10
-96.91468599959239327
 20
32.83659400007275053
 10
-96.91459899959249924
 20
32.83659000007276063
  0
LWPOLYLINE
  5
161
  8
Trans_RoadSegment_Full
100
AcDbEntity
100
AcDbPolyline
  6
CONTINUOUS
420
12011595
 90
     3
 70
     0
 43
0.00233561973871076
 10
-96.92002799958407877
 20
32.84756100005569124
 10
-96.91990999958426301
 20
32.84761600005560922
 10
-96.919672999584634
 20
32.84775500005542881
  0
LWPOLYLINE
  5
162
  8
Trans_RoadSegment_Full
100
AcDbEntity
100
AcDbPolyline
  6
CONTINUOUS
420
12011595
 90
     2
 70
     0
 43
0.00233561973871076
 10
-96.91649299958959318
 20
32.84941800005282175
 10
-96.91714099958858242
 20
32.84968600005242934
  0
LWPOLYLINE
  5
163
  8
Trans_RoadSegment_Full
100
AcDbEntity
100
AcDbPolyline
  6
CONTINUOUS
420
12011595
 90
     5
 70
     0
 43
0.00233561973871076
 10
-96.91649299958959318
 20
32.84941800005282175
 10
-96.91649899958957803
 20
32.84959700005254035
 10
-96.91655299958949854
 20
32.84977100005227157
 10
-96.91667899958929411
 20
32.84999800005192583
 10
-96.91691399958892816
 20
32.85034700005138575
  0
LWPOLYLINE
  5
164
  8
Trans_RoadSegment_Full
100
AcDbEntity
100
AcDbPolyline
  6
CONTINUOUS
420
12011595
 90
     2
 70
     0
 43
0.00233561973871076
 10
-96.91260099959561103
 20
32.84600100005815193
 10
-96.91230599959607162
 20
32.84627900005767742
  0
LWPOLYLINE
  5
165
  8
Trans_RoadSegment_Full
100
AcDbEntity
100
AcDbPolyline
  6
CONTINUOUS
420
12011595
 90
     4
 70
     0
 43
0.00233561973871076
 10
-96.91192999959667986
 20
32.84577800005848758
 10
-96.91187399959676441
 20
32.84584300005838031
 10
-96.91174099959692967
 20
32.8459980000581595
 10
-96.91168899959700411
 20
32.84605400005807496
  0
LWPOLYLINE
  5
166
  8
Trans_RoadSegment_Full
100
AcDbEntity
100
AcDbPolyline
  6
CONTINUOUS
420
12011595
 90
    10
 70
     0
 43
0.00233561973871076
 10
-96.91265499959553154
 20
32.83729000007167542
 10
-96.91238999959591638
 20
32.83722300007178774
 10
-96.91194899959663189
 20
32.83716900007186723
 10
-96.91135499959756316
 20
32.83716900007186723
 10
-96.91102599959805275
 20
32.83718200007183441
 10
-96.91069599959854486
 20
32.83720300007178139
 10
-96.91055199959879474
 20
32.83720300007178139
 10
-96.91034299959909504
 20
32.83722300007178774
 10
-96.91025499959926037
 20
32.83723500007175744
 10
-96.90998699959965279
 20
32.83726600007167917
  0
LWPOLYLINE
  5
167
  8
Trans_RoadSegment_Full
100
AcDbEntity
100
AcDbPolyline
  6
CONTINUOUS
420
12011595
 90
     8
 70
     0
 43
0.00233561973871076
 10
-96.91178299959688047
 20
32.8451600000594226
 10
-96.91171099959700541
 20
32.84508100005956521
 10
-96.91116099959782559
 20
32.84449900006046619
 10
-96.91057699959873162
 20
32.84397800006127
 10
-96.91032399959914301
 20
32.84372800006167381
 10
-96.91003899959957835
 20
32.84343800006212177
 10
-96.90971099960012225
 20
32.84308800006266438
 10
-96.90943999960052224
 20
32.84279800006311234
  0
LWPOLYLINE
  5
168
  8
Trans_RoadSegment_Full
100
AcDbEntity
100
AcDbPolyline
  6
CONTINUOUS
420
12011595
 90
     4
 70
     0
 43
0.00233561973871076
 10
-96.90842099960212863
 20
32.84239900006372181
 10
-96.90830199960225855
 20
32.84227700006391615
 10
-96.9079799996027873
 20
32.84193200006444613
 10
-96.90783999960302708
 20
32.84178500006470358
  0
LWPOLYLINE
  5
169
  8
Trans_RoadSegment_Full
100
AcDbEntity
100
AcDbPolyline
  6
CONTINUOUS
420
12011595
 90
     4
 70
     0
 43
0.00233561973871076
 10
-96.90834899960219673
 20
32.84915100005326849
 10
-96.9073669996037097
 20
32.85074000005079142
 10
-96.90733099960380059
 20
32.85083900005065516
 10
-96.90732599960381322
 20
32.85098000005041285
  0
LWPOLYLINE
  5
16a
  8
Trans_RoadSegment_Full
100
AcDbEntity
100
AcDbPolyline
  6
CONTINUOUS
420
12011595
 90
     2
 70
     0
 43
0.00233561973871076
 10
-96.90552099960660826
 20
32.83895100006907342
 10
-96.90522999960705874
 20
32.83861700006957562
  0
LWPOLYLINE
  5
16b
  8
Trans_RoadSegment_Full
100
AcDbEntity
100
AcDbPolyline
  6
CONTINUOUS
420
12011595
 90
     5
 70
     0
 43
0.00233561973871076
 10
-96.93635899955876312
 20
32.83707700007198582
 10
-96.93537399956028366
 20
32.83696900007214481
 10
-96.93471499956126536
 20
32.83690500007224955
 10
-96.93387199956259792
 20
32.83677100007247418
 10
-96.93325799956352284
 20
32.83668100007258772
  0
LWPOLYLINE
  5
16c
  8
Trans_RoadSegment_Full
100
AcDbEntity
100
AcDbPolyline
  6
CONTINUOUS
420
12011595
 90
     6
 70
     0
 43
0.00233561973871076
 10
-96.9350309995608086
 20
32.84763300005562314
 10
-96.93518499956053347
 20
32.84699800005660109
 10
-96.93525799956046285
 20
32.84670100005706672
 10
-96.93531999956036316
 20
32.84655000005727743
 10
-96.93534799956029246
 20
32.84642700005747429
 10
-96.93532799956034296
 20
32.8463560000575967
  0
LWPOLYLINE
  5
16d
  8
Trans_RoadSegment_Full
100
AcDbEntity
100
AcDbPolyline
  6
CONTINUOUS
420
12011595
 90
     2
 70
     0
 43
0.00233561973871076
 10
-96.93521599956051205
 20
32.84916500005323314
 10
-96.93472899956128686
 20
32.84909300005335808
  0
LWPOLYLINE
  5
16e
  8
Trans_RoadSegment_Full
100
AcDbEntity
100
AcDbPolyline
  6
CONTINUOUS
420
12011595
 90
     2
 70
     0
 43
0.00233561973871076
 10
-96.91481699959217622
 20
32.83692600007219653
 10
-96.91491199959205005
 20
32.83692500007219905
  0
LWPOLYLINE
  5
16f
  8
Trans_RoadSegment_Full
100
AcDbEntity
100
AcDbPolyline
  6
CONTINUOUS
420
12011595
 90
     8
 70
     0
 43
0.00233561973871076
 10
-96.92283199957972784
 20
32.85219000004855161
 10
-96.92227199958057327
 20
32.85186600004902857
 10
-96.92210199958088879
 20
32.85176900004915979
 10
-96.92065899958311093
 20
32.85089100005052387
 10
-96.91937899958509206
 20
32.85011400005174664
 10
-96.91855099958638675
 20
32.84957800005258832
 10
-96.91820099958692936
 20
32.84934100005295932
 10
-96.91788299958739117
 20
32.84914700005327859
  0
LWPOLYLINE
  5
170
  8
Trans_RoadSegment_Full
100
AcDbEntity
100
AcDbPolyline
  6
CONTINUOUS
420
12011595
 90
    11
 70
     0
 43
0.00233561973871076
 10
-96.91722899958841708
 20
32.84572900005855445
 10
-96.91722499958842718
 20
32.84542100005904786
 10
-96.91724199958838426
 20
32.8453350000591513
 10
-96.91727699958835274
 20
32.84524200005932926
 10
-96.91733999958825052
 20
32.84514600005945795
 10
-96.91741699958811296
 20
32.84505300005963591
 10
-96.91751899958796912
 20
32.84495200005977722
 10
-96.91762099958782528
 20
32.84488400005989206
 10
-96.9177529995876057
 20
32.8448240000599867
 10
-96.91788499958738612
 20
32.84478300006003337
 10
-96.91835299958665928
 20
32.84468400006016964
  0
LWPOLYLINE
  5
171
  8
Trans_RoadSegment_Full
100
AcDbEntity
100
AcDbPolyline
  6
CONTINUOUS
420
12011595
 90
     3
 70
     0
 43
0.00233561973871076
 10
-96.91714099958858242
 20
32.84968600005242934
 10
-96.91680599958908715
 20
32.84950500005271579
 10
-96.91648999958960076
 20
32.84933200005298204
  0
LWPOLYLINE
  5
172
  8
Trans_RoadSegment_Full
100
AcDbEntity
100
AcDbPolyline
  6
CONTINUOUS
420
12011595
 90
    11
 70
     0
 43
0.00233561973871076
 10
-96.91346599959427977
 20
32.84473900006008762
 10
-96.913747999593852
 20
32.84445700006051538
 10
-96.91381999959372706
 20
32.84435400006071859
 10
-96.91395799959349233
 20
32.84415800006098607
 10
-96.9142929995929876
 20
32.8436240000618227
 10
-96.91455699959254844
 20
32.8430910000626568
 10
-96.91483899959212067
 20
32.84241900006367132
 10
-96.91504899959181785
 20
32.84167000006488024
 10
-96.91516799959163109
 20
32.84099900006589223
 10
-96.91517999959160079
 20
32.84059700006650928
 10
-96.91517799959160584
 20
32.8405600000666027
  0
LWPOLYLINE
  5
173
  8
Trans_RoadSegment_Full
100
AcDbEntity
100
AcDbPolyline
  6
CONTINUOUS
420
12011595
 90
     3
 70
     0
 43
0.00233561973871076
 10
-96.91214299959631262
 20
32.84609600005796892
 10
-96.91201399959652463
 20
32.84623700005778346
 10
-96.91197599959656372
 20
32.84627400005769005
  0
LWPOLYLINE
  5
174
  8
Trans_RoadSegment_Full
100
AcDbEntity
100
AcDbPolyline
  6
CONTINUOUS
420
12011595
 90
     2
 70
     0
 43
0.00233561973871076
 10
-96.91214299959631262
 20
32.84609600005796892
 10
-96.91192999959667986
 20
32.84577800005848758
  0
LWPOLYLINE
  5
175
  8
Trans_RoadSegment_Full
100
AcDbEntity
100
AcDbPolyline
  6
CONTINUOUS
420
12011595
 90
     3
 70
     0
 43
0.00233561973871076
 10
-96.91192999959667986
 20
32.84577800005848758
 10
-96.91184599959677826
 20
32.84568400005861122
 10
-96.9115649995972035
 20
32.84532100005918664
  0
LWPOLYLINE
  5
176
  8
Trans_RoadSegment_Full
100
AcDbEntity
100
AcDbPolyline
  6
CONTINUOUS
420
12011595
 90
    22
 70
     0
 43
0.00233561973871076
 10
-96.90562599960645684
 20
32.83905300006892958
 10
-96.90608499960575273
 20
32.8394020000683895
 10
-96.90616399960561012
 20
32.8394520000683201
 10
-96.90625299960544226
 20
32.83948700006823174
 10
-96.90636899960526307
 20
32.83952200006820021
 10
-96.90649499960511548
 20
32.83954000006815477
 10
-96.90661599960492367
 20
32.83953600006816487
 10
-96.90674799960470409
 20
32.83949500006821154
 10
-96.90690599960447571
 20
32.83940700006837687
 10
-96.9069849996043331
 20
32.83932800006851949
 10
-96.90704699960423341
 20
32.83924000006862798
 10
-96.90709499960416906
 20
32.83908000006886141
 10
-96.90706399960419049
 20
32.83892100006914916
 10
-96.90700599960428008
 20
32.83881000006931572
 10
-96.90691599960445046
 20
32.83870900006945703
 10
-96.90681099960460188
 20
32.83863400006958955
 10
-96.90667999960481893
 20
32.83858000006966904
 10
-96.90657399960497287
 20
32.83855400006967784
 10
-96.90644299960518993
 20
32.83854600006969804
 10
-96.90629199960540063
 20
32.83856600006970439
 10
-96.9060639996057489
 20
32.8386480000695542
 10
-96.90565699960637858
 20
32.83884500006922735
  0
LWPOLYLINE
  5
177
  8
Trans_RoadSegment_Full
100
AcDbEntity
100
AcDbPolyline
  6
CONTINUOUS
420
12011595
 90
     2
 70
     0
 43
0.00233561973871076
 10
-96.90676699960465612
 20
32.83738100007150251
 10
-96.90652099960504984
 20
32.83751400007133725
  0
LWPOLYLINE
  5
178
  8
Trans_RoadSegment_Full
100
AcDbEntity
100
AcDbPolyline
  6
CONTINUOUS
420
12011595
 90
     3
 70
     0
 43
0.00233561973871076
 10
-96.93062899956760248
 20
32.83725100007171704
 10
-96.93053799956777539
 20
32.83725200007171452
 10
-96.93026799956817285
 20
32.83725500007170695
  0
LWPOLYLINE
  5
179
  8
Trans_RoadSegment_Full
100
AcDbEntity
100
AcDbPolyline
  6
CONTINUOUS
420
12011595
 90
     3
 70
     0
 43
0.00233561973871076
 10
-96.91776199958758298
 20
32.83066600008191926
 10
-96.91773499958765115
 20
32.83244700007918482
 10
-96.9177649995875754
 20
32.83655400007279468
  0
LWPOLYLINE
  5
17a
  8
Trans_RoadSegment_Full
100
AcDbEntity
100
AcDbPolyline
  6
CONTINUOUS
420
12011595
 90
     3
 70
     0
 43
0.00233561973871076
 10
-96.91441099959280336
 20
32.83658200007278083
 10
-96.91418799959313901
 20
32.83657100007275176
 10
-96.9139269995935706
 20
32.8365370000728376
  0
LWPOLYLINE
  5
17b
  8
Trans_RoadSegment_Full
100
AcDbEntity
100
AcDbPolyline
  6
CONTINUOUS
420
12011595
 90
     7
 70
     0
 43
0.00233561973871076
 10
-96.9140719995933182
 20
32.83601000007365656
 10
-96.91401499959340526
 20
32.8361370000734496
 10
-96.9139729995935113
 20
32.83621000007332213
 10
-96.91390599959356678
 20
32.83628000007320225
 10
-96.91376999959379646
 20
32.83635900007311648
 10
-96.91367499959392262
 20
32.83638500007305083
 10
-96.91320299959465956
 20
32.83644400007295872
  0
LWPOLYLINE
  5
17c
  8
Trans_RoadSegment_Full
100
AcDbEntity
100
AcDbPolyline
  6
CONTINUOUS
420
12011595
 90
     2
 70
     0
 43
0.00233561973871076
 10
-96.92236399958045467
 20
32.83717600007184956
 10
-96.92072699958299609
 20
32.83717000007186471
  0
LWPOLYLINE
  5
17d
  8
Trans_RoadSegment_Full
100
AcDbEntity
100
AcDbPolyline
  6
CONTINUOUS
420
12011595
 90
    11
 70
     0
 43
0.00233561973871076
 10
-96.92072699958299609
 20
32.83717000007186471
 10
-96.92060199958319799
 20
32.83722600007178016
 10
-96.92051399958330649
 20
32.837287000071683
 10
-96.92039599958349072
 20
32.83740600007149624
 10
-96.92031999958362576
 20
32.83753600007128171
 10
-96.9202939995836914
 20
32.83760300007116939
 10
-96.92027499958368253
 20
32.83774900007097131
 10
-96.92028099958366738
 20
32.83794400007064951
 10
-96.92029999958367625
 20
32.83812000007037568
 10
-96.92033199958359546
 20
32.83826200007013085
 10
-96.92036599958356646
 20
32.8383890000699239
  0
LWPOLYLINE
  5
17e
  8
Trans_RoadSegment_Full
100
AcDbEntity
100
AcDbPolyline
  6
CONTINUOUS
420
12011595
 90
     4
 70
     0
 43
0.00233561973871076
 10
-96.91806999958714641
 20
32.84889500005363061
 10
-96.91797999958725995
 20
32.84899400005349435
 10
-96.9179359995873142
 20
32.8490500000534098
 10
-96.91788299958739117
 20
32.84914700005327859
  0
LWPOLYLINE
  5
17f
  8
Trans_RoadSegment_Full
100
AcDbEntity
100
AcDbPolyline
  6
CONTINUOUS
420
12011595
 90
     3
 70
     0
 43
0.00233561973871076
 10
-96.91720499958847768
 20
32.84813100005482056
 10
-96.91726199958839061
 20
32.84809000005486723
 10
-96.91829099958675897
 20
32.84750200005578336
  0
LWPOLYLINE
  5
180
  8
Trans_RoadSegment_Full
100
AcDbEntity
100
AcDbPolyline
  6
CONTINUOUS
420
12011595
 90
     4
 70
     0
 43
0.00233561973871076
 10
-96.91649699958958308
 20
32.84899100005350192
 10
-96.91649199958959571
 20
32.84913000005326467
 10
-96.91648699958960833
 20
32.84924900005307791
 10
-96.91648999958960076
 20
32.84933200005298204
  0
LWPOLYLINE
  5
181
  8
Trans_RoadSegment_Full
100
AcDbEntity
100
AcDbPolyline
  6
CONTINUOUS
420
12011595
 90
     3
 70
     0
 43
0.00233561973871076
 10
-96.91621899959000075
 20
32.84918400005318517
 10
-96.91613499959009914
 20
32.84914400005328616
 10
-96.91601499959028843
 20
32.84907900005333659
  0
LWPOLYLINE
  5
182
  8
Trans_RoadSegment_Full
100
AcDbEntity
100
AcDbPolyline
  6
CONTINUOUS
420
12011595
 90
     3
 70
     0
 43
0.00233561973871076
 10
-96.91454799959257116
 20
32.8405500000665711
 10
-96.91474399959230368
 20
32.84054400006658625
 10
-96.91484799959209795
 20
32.84054800006657615
  0
LWPOLYLINE
  5
183
  8
Trans_RoadSegment_Full
100
AcDbEntity
100
AcDbPolyline
  6
CONTINUOUS
420
12011595
 90
     3
 70
     0
 43
0.00233561973871076
 10
-96.91431599959292953
 20
32.8405560000666128
 10
-96.9144879995926658
 20
32.8405520000666229
 10
-96.91454799959257116
 20
32.8405500000665711
  0
LWPOLYLINE
  5
184
  8
Trans_RoadSegment_Full
100
AcDbEntity
100
AcDbPolyline
  6
CONTINUOUS
420
12011595
 90
     2
 70
     0
 43
0.00233561973871076
 10
-96.93543699956018145
 20
32.83503700007514681
 10
-96.93538299956026094
 20
32.83658800007276568
  0
LWPOLYLINE
  5
185
  8
Trans_RoadSegment_Full
100
AcDbEntity
100
AcDbPolyline
  6
CONTINUOUS
420
12011595
 90
     2
 70
     0
 43
0.00233561973871076
 10
-96.93541899956017005
 20
32.85069600005084567
 10
-96.9346469995613802
 20
32.85135400004980966
  0
LWPOLYLINE
  5
186
  8
Trans_RoadSegment_Full
100
AcDbEntity
100
AcDbPolyline
  6
CONTINUOUS
420
12011595
 90
     5
 70
     0
 43
0.00233561973871076
 10
-96.92132699958204967
 20
32.83658800007276568
 10
-96.92015499958387181
 20
32.83663600007270134
 10
-96.91933499958514631
 20
32.83666500007262812
 10
-96.91864699958620122
 20
32.83669100007256247
 10
-96.91753099958793882
 20
32.83678200007244641
  0
LWPOLYLINE
  5
187
  8
Trans_RoadSegment_Full
100
AcDbEntity
100
AcDbPolyline
  6
CONTINUOUS
420
12011595
 90
     3
 70
     0
 43
0.00233561973871076
 10
-96.91493499959199198
 20
32.83660200007273033
 10
-96.91501599959184432
 20
32.83611800007349757
 10
-96.91503199959186077
 20
32.83590300007381302
  0
LWPOLYLINE
  5
188
  8
Trans_RoadSegment_Full
100
AcDbEntity
100
AcDbPolyline
  6
CONTINUOUS
420
12011595
 90
     5
 70
     0
 43
0.00233561973871076
 10
-96.91481699959217622
 20
32.83692600007219653
 10
-96.91482699959215097
 20
32.83750100007131323
 10
-96.91482699959215097
 20
32.8380310000704867
 10
-96.91486599959210935
 20
32.84016700006719702
 10
-96.91485199959214469
 20
32.84044700006677431
  0
LWPOLYLINE
  5
189
  8
Trans_RoadSegment_Full
100
AcDbEntity
100
AcDbPolyline
  6
CONTINUOUS
420
12011595
 90
     2
 70
     0
 43
0.00233561973871076
 10
-96.91459899959249924
 20
32.83659000007276063
 10
-96.91441099959280336
 20
32.83658200007278083
  0
LWPOLYLINE
  5
18a
  8
Trans_RoadSegment_Full
100
AcDbEntity
100
AcDbPolyline
  6
CONTINUOUS
420
12011595
 90
     2
 70
     0
 43
0.00233561973871076
 10
-96.92194099958112474
 20
32.8457190000585797
 10
-96.92194799958110707
 20
32.84622800005780618
  0
LWPOLYLINE
  5
18b
  8
Trans_RoadSegment_Full
100
AcDbEntity
100
AcDbPolyline
  6
CONTINUOUS
420
12011595
 90
     2
 70
     0
 43
0.00233561973871076
 10
-96.92368999957841424
 20
32.85325400004688845
 10
-96.9209759995825948
 20
32.85181000004911311
  0
LWPOLYLINE
  5
18c
  8
Trans_RoadSegment_Full
100
AcDbEntity
100
AcDbPolyline
  6
CONTINUOUS
420
12011595
 90
     7
 70
     0
 43
0.00233561973871076
 10
-96.92322999957912089
 20
32.85238500004822981
 10
-96.92313099957925715
 20
32.85236700004827526
 10
-96.92301799957942876
 20
32.85233100004830931
 10
-96.92217099958077142
 20
32.85200200004879889
 10
-96.92172799958143514
 20
32.85182400004907777
 10
-96.92081399958289012
 20
32.85141200004972006
 10
-96.9206299995831273
 20
32.85135700004980208
  0
LWPOLYLINE
  5
18d
  8
Trans_RoadSegment_Full
100
AcDbEntity
100
AcDbPolyline
  6
CONTINUOUS
420
12011595
 90
     4
 70
     0
 43
0.00233561973871076
 10
-96.92380599957823506
 20
32.85309600004711683
 10
-96.92248599958026034
 20
32.85238300004823486
 10
-96.92150699958176574
 20
32.85184100004909169
 10
-96.9206299995831273
 20
32.85135700004980208
  0
LWPOLYLINE
  5
18e
  8
Trans_RoadSegment_Full
100
AcDbEntity
100
AcDbPolyline
  6
CONTINUOUS
420
12011595
 90
     8
 70
     0
 43
0.00233561973871076
 10
-96.9230869995793114
 20
32.85331500004679128
 10
-96.92272999957987167
 20
32.8530810000471547
 10
-96.92248599958026034
 20
32.85293300004735784
 10
-96.92211099958086606
 20
32.85272800004770488
 10
-96.92142099958192603
 20
32.85235800004824114
 10
-96.92008999958397908
 20
32.85163300004938947
 10
-96.91770799958766247
 20
32.85064300005092264
 10
-96.91691399958892816
 20
32.85034700005138575
  0
LWPOLYLINE
  5
18f
  8
Trans_RoadSegment_Full
100
AcDbEntity
100
AcDbPolyline
  6
CONTINUOUS
420
12011595
 90
     2
 70
     0
 43
0.00233561973871076
 10
-96.91621899959000075
 20
32.84918400005318517
 10
-96.91621899959000075
 20
32.84930500005299336
  0
LWPOLYLINE
  5
190
  8
Trans_RoadSegment_Full
100
AcDbEntity
100
AcDbPolyline
  6
CONTINUOUS
420
12011595
 90
     2
 70
     0
 43
0.00233561973871076
 10
-96.91455199959256106
 20
32.84044700006677431
 10
-96.91454799959257116
 20
32.8405500000665711
  0
LWPOLYLINE
  5
191
  8
Trans_RoadSegment_Full
100
AcDbEntity
100
AcDbPolyline
  6
CONTINUOUS
420
12011595
 90
     8
 70
     0
 43
0.00233561973871076
 10
-96.91381599959373716
 20
32.84699900005659856
 10
-96.9135769995941132
 20
32.8467020000570642
 10
-96.91344199959428352
 20
32.84647700005740489
 10
-96.91336999959440845
 20
32.84626700005770772
 10
-96.91328599959456369
 20
32.84594700005823142
 10
-96.91324699959460531
 20
32.84562300005870839
 10
-96.91326799959455229
 20
32.84535900005914755
 10
-96.91330899959450562
 20
32.84515800005942765
  0
LWPOLYLINE
  5
192
  8
Trans_RoadSegment_Full
100
AcDbEntity
100
AcDbPolyline
  6
CONTINUOUS
420
12011595
 90
     2
 70
     0
 43
0.00233561973871076
 10
-96.91240099959594545
 20
32.84581200005840174
 10
-96.91224399959617131
 20
32.84598400005813801
  0
LWPOLYLINE
  5
193
  8
Trans_RoadSegment_Full
100
AcDbEntity
100
AcDbPolyline
  6
CONTINUOUS
420
12011595
 90
     2
 70
     0
 43
0.00233561973871076
 10
-96.91230599959607162
 20
32.84627900005767742
 10
-96.91214299959631262
 20
32.84609600005796892
  0
LWPOLYLINE
  5
194
  8
Trans_RoadSegment_Full
100
AcDbEntity
100
AcDbPolyline
  6
CONTINUOUS
420
12011595
 90
     2
 70
     0
 43
0.00233561973871076
 10
-96.90828099960231157
 20
32.85073900005079395
 10
-96.90788099960292357
 20
32.85135900004979703
  0
LWPOLYLINE
  5
195
  8
Trans_RoadSegment_Full
100
AcDbEntity
100
AcDbPolyline
  6
CONTINUOUS
420
12011595
 90
     8
 70
     0
 43
0.00233561973871076
 10
-96.90718199960400625
 20
32.84140000006527771
 10
-96.90691899960444289
 20
32.84114100006570425
 10
-96.90681099960460188
 20
32.84106400006578497
 10
-96.90652399960504226
 20
32.84087700006608657
 10
-96.90615699960562779
 20
32.8407130000663301
 10
-96.90571799960628141
 20
32.84057000006657745
 10
-96.90526899960701712
 20
32.84048500006667837
 10
-96.90498399960745246
 20
32.84047600006670109
  0
LWPOLYLINE
  5
196
  8
Trans_RoadSegment_Full
100
AcDbEntity
100
AcDbPolyline
  6
CONTINUOUS
420
12011595
 90
     2
 70
     0
 43
0.00233561973871076
 10
-96.93046099956791295
 20
32.83686600007229117
 10
-96.93027499956815518
 20
32.83686600007229117
  0
LWPOLYLINE
  5
197
  8
Trans_RoadSegment_Full
100
AcDbEntity
100
AcDbPolyline
  6
CONTINUOUS
420
12011595
 90
    10
 70
     0
 43
0.00233561973871076
 10
-96.93657599955838577
 20
32.85199900004880647
 10
-96.9364259995586508
 20
32.85190600004898442
 10
-96.93630899955883251
 20
32.85188000004899322
 10
-96.93605699955918453
 20
32.85183600004910431
 10
-96.93546899956010066
 20
32.85175400004919766
 10
-96.93516799956057639
 20
32.85167200004934784
 10
-96.935054999560748
 20
32.85162700004940461
 10
-96.93494099956092214
 20
32.85156400004950683
 10
-96.93479399956117959
 20
32.851469000049633
 10
-96.9346469995613802
 20
32.85135400004980966
  0
LWPOLYLINE
  5
198
  8
Trans_RoadSegment_Full
100
AcDbEntity
100
AcDbPolyline
  6
CONTINUOUS
420
12011595
 90
     9
 70
     0
 43
0.00233561973871076
 10
-96.9282839995712493
 20
32.85020300005163563
 10
-96.92930999956968208
 20
32.84974400005233974
 10
-96.93120199956672423
 20
32.84834600005450511
 10
-96.93124699956666745
 20
32.84821100005473227
 10
-96.93113299956684159
 20
32.84794400005512216
 10
-96.93040399956800002
 20
32.84698700005662886
 10
-96.93017599956834829
 20
32.84696700005662251
 10
-96.92946999956944865
 20
32.84727400005618847
 10
-96.92928799956973762
 20
32.84741900005593607
  0
LWPOLYLINE
  5
199
  8
Trans_RoadSegment_Full
100
AcDbEntity
100
AcDbPolyline
  6
CONTINUOUS
420
12011595
 90
     6
 70
     0
 43
0.00233561973871076
 10
-96.91466499959238945
 20
32.83693100007224075
 10
-96.91462699959248539
 20
32.83727100007166655
 10
-96.91462299959249549
 20
32.83736100007155301
 10
-96.91461299959246389
 20
32.83751900007132463
 10
-96.91462099959250054
 20
32.83858100006966652
 10
-96.91458299959253964
 20
32.83967400006793014
  0
LWPOLYLINE
  5
19a
  8
Trans_RoadSegment_Full
100
AcDbEntity
100
AcDbPolyline
  6
CONTINUOUS
420
12011595
 90
     2
 70
     0
 43
0.00233561973871076
 10
-96.92322999957912089
 20
32.85238500004822981
 10
-96.92283199957972784
 20
32.85219000004855161
  0
LWPOLYLINE
  5
19b
  8
Trans_RoadSegment_Full
100
AcDbEntity
100
AcDbPolyline
  6
CONTINUOUS
420
12011595
 90
     4
 70
     0
 43
0.00233561973871076
 10
-96.92194099958112474
 20
32.8457190000585797
 10
-96.92169999958150584
 20
32.84574000005852668
 10
-96.92157099958171784
 20
32.84573400005854182
 10
-96.92093099958270841
 20
32.84574800005850648
  0
LWPOLYLINE
  5
19c
  8
Trans_RoadSegment_Full
100
AcDbEntity
100
AcDbPolyline
  6
CONTINUOUS
420
12011595
 90
     5
 70
     0
 43
0.00233561973871076
 10
-96.91676799958912625
 20
32.84862000005409755
 10
-96.9166369995893433
 20
32.84865600005400665
 10
-96.91654099958947199
 20
32.84870400005394231
 10
-96.91650499958956289
 20
32.84878800005378707
 10
-96.91649999958957551
 20
32.84892600005360919
  0
LWPOLYLINE
  5
19d
  8
Trans_RoadSegment_Full
100
AcDbEntity
100
AcDbPolyline
  6
CONTINUOUS
420
12011595
 90
     2
 70
     0
 43
0.00233561973871076
 10
-96.91691399958892816
 20
32.85034700005138575
 10
-96.91618999959001712
 20
32.85001800005187533
  0
LWPOLYLINE
  5
19e
  8
Trans_RoadSegment_Full
100
AcDbEntity
100
AcDbPolyline
  6
CONTINUOUS
420
12011595
 90
     3
 70
     0
 43
0.00233561973871076
 10
-96.91621199959001842
 20
32.84872200005389686
 10
-96.91611499959014964
 20
32.84865300005401423
 10
-96.91601899959033517
 20
32.8485960000541013
  0
LWPOLYLINE
  5
19f
  8
Trans_RoadSegment_Full
100
AcDbEntity
100
AcDbPolyline
  6
CONTINUOUS
420
12011595
 90
     3
 70
     0
 43
0.00233561973871076
 10
-96.91604499959026953
 20
32.84440000006060245
 10
-96.91601799959028085
 20
32.84592300005823517
 10
-96.9160219995903276
 20
32.84827300005463258
  0
LWPOLYLINE
  5
1a0
  8
Trans_RoadSegment_Full
100
AcDbEntity
100
AcDbPolyline
  6
CONTINUOUS
420
12011595
 90
     2
 70
     0
 43
0.00233561973871076
 10
-96.91411899959325638
 20
32.8405720000665724
 10
-96.91431599959292953
 20
32.8405560000666128
  0
LWPOLYLINE
  5
1a1
  8
Trans_RoadSegment_Full
100
AcDbEntity
100
AcDbPolyline
  6
CONTINUOUS
420
12011595
 90
     4
 70
     0
 43
0.00233561973871076
 10
-96.91217499959628867
 20
32.84642400005748186
 10
-96.91214499959630757
 20
32.84640100005753993
 10
-96.9120229995965019
 20
32.84631200005765095
 10
-96.91197599959656372
 20
32.84627400005769005
  0
LWPOLYLINE
  5
1a2
  8
Trans_RoadSegment_Full
100
AcDbEntity
100
AcDbPolyline
  6
CONTINUOUS
420
12011595
 90
     6
 70
     0
 43
0.00233561973871076
 10
-96.90652099960504984
 20
32.83751400007133725
 10
-96.90628899960540821
 20
32.83766000007108232
 10
-96.90611299960568203
 20
32.83779000007086779
 10
-96.90583199960610727
 20
32.83801100007053719
 10
-96.90561999960647199
 20
32.83821900007023942
 10
-96.90535499960685684
 20
32.83848700006979016
  0
LWPOLYLINE
  5
1a3
  8
Trans_RoadSegment_Full
100
AcDbEntity
100
AcDbPolyline
  6
CONTINUOUS
420
12011595
 90
     2
 70
     0
 43
0.00233561973871076
 10
-96.90532199960688331
 20
32.83908900006883869
 10
-96.90505399960733257
 20
32.8387930000693018
  0
LWPOLYLINE
  5
1a4
  8
Trans_RoadSegment_Full
100
AcDbEntity
100
AcDbPolyline
  6
CONTINUOUS
420
12011595
 90
    22
 70
     0
 43
0.00233561973871076
 10
-96.90535499960685684
 20
32.83848700006979016
 10
-96.90550099960665875
 20
32.8382980000700968
 10
-96.90557499960652876
 20
32.83821400007025204
 10
-96.90562699960645432
 20
32.83813300007034286
 10
-96.9056679996063508
 20
32.8380230000705069
 10
-96.90566699960635333
 20
32.83794300007065203
 10
-96.9056519996063912
 20
32.83788400007074415
 10
-96.90561999960647199
 20
32.83778100007089051
 10
-96.90557299960653381
 20
32.83771600007099778
 10
-96.90550099960665875
 20
32.83766300007107475
 10
-96.90541499960676219
 20
32.83763600007114292
 10
-96.9052519996070032
 20
32.83761800007113152
 10
-96.90512499960721016
 20
32.83764000007113282
 10
-96.90503099960739064
 20
32.8376850000710192
 10
-96.90495699960746379
 20
32.83774300007092961
 10
-96.90490899960752813
 20
32.83780900007087666
 10
-96.9048779996076064
 20
32.83787100007077697
 10
-96.90487299960761902
 20
32.83796700007059144
 10
-96.90488299960759377
 20
32.83802000007051447
 10
-96.90490399960754075
 20
32.8380650000704577
 10
-96.90514999960720388
 20
32.83847000006983308
 10
-96.90518099960712561
 20
32.83855800006966774
  0
LWPOLYLINE
  5
1a5
  8
Trans_RoadSegment_Full
100
AcDbEntity
100
AcDbPolyline
  6
CONTINUOUS
420
12011595
 90
     8
 70
     0
 43
0.00233561973871076
 10
-96.90401499960893261
 20
32.8371280000719139
 10
-96.90450499960820707
 20
32.83726000007169432
 10
-96.90488899960757863
 20
32.83735800007156058
 10
-96.90530399960692876
 20
32.83742400007145079
 10
-96.90563099960644422
 20
32.83746900007139402
 10
-96.90594399960593819
 20
32.83748800007134605
 10
-96.90613399960562901
 20
32.83750500007130313
 10
-96.90652099960504984
 20
32.83751400007133725
  0
LWPOLYLINE
  5
1a6
  8
Trans_RoadSegment_Full
100
AcDbEntity
100
AcDbPolyline
  6
CONTINUOUS
420
12011595
 90
     2
 70
     0
 43
0.00233561973871076
 10
-96.93538299956026094
 20
32.83658800007276568
 10
-96.93538499956025589
 20
32.83680900007237824
  0
LWPOLYLINE
  5
1a7
  8
Trans_RoadSegment_Full
100
AcDbEntity
100
AcDbPolyline
  6
CONTINUOUS
420
12011595
 90
     4
 70
     0
 43
0.00233561973871076
 10
-96.93416899956213229
 20
32.85325700004688088
 10
-96.9341439995621954
 20
32.85357900004635212
 10
-96.93410399956223955
 20
32.85391400004584739
 10
-96.93403899956234682
 20
32.85403100004566568
  0
LWPOLYLINE
  5
1a8
  8
Trans_RoadSegment_Full
100
AcDbEntity
100
AcDbPolyline
  6
CONTINUOUS
420
12011595
 90
     8
 70
     0
 43
0.00233561973871076
 10
-96.93446999956165655
 20
32.83737600007151514
 10
-96.93426099956201369
 20
32.83735500007156816
 10
-96.93382499956265974
 20
32.8372910000716729
 10
-96.93355799956310648
 20
32.83725500007170695
 10
-96.93338399956337526
 20
32.83724400007173472
 10
-96.93307499956381434
 20
32.83723500007175744
 10
-96.93246099956479611
 20
32.83724800007172462
 10
-96.93184599956572356
 20
32.83725400007170947
  0
LWPOLYLINE
  5
1a9
  8
Trans_RoadSegment_Full
100
AcDbEntity
100
AcDbPolyline
  6
CONTINUOUS
420
12011595
 90
    19
 70
     0
 43
0.00233561973871076
 10
-96.92928799956973762
 20
32.84741900005593607
 10
-96.92924999956977672
 20
32.84736000005602818
 10
-96.92916899956986754
 20
32.84727000005614173
 10
-96.9290459995700644
 20
32.84719200005628181
 10
-96.92887399957032812
 20
32.84716600005634746
 10
-96.92870099957059438
 20
32.84717800005631716
 10
-96.92848599957096667
 20
32.84720200005625657
 10
-96.92833599957117485
 20
32.84721100005623384
 10
-96.92820699957138686
 20
32.84720100005625909
 10
-96.92811499957150545
 20
32.84717400005632726
 10
-96.92801799957169351
 20
32.84713300005637393
 10
-96.92789799957188279
 20
32.84705900005650392
 10
-96.92770399957214522
 20
32.84688300005677775
 10
-96.92753999957244559
 20
32.84662400005714744
 10
-96.92735199957269288
 20
32.84616200005785913
 10
-96.92719599957297305
 20
32.84573700005853425
 10
-96.92718799957299325
 20
32.84558700005879928
 10
-96.92721999957291246
 20
32.84549500005891787
 10
-96.9273309995727459
 20
32.84528400005922322
  0
LWPOLYLINE
  5
1aa
  8
Trans_RoadSegment_Full
100
AcDbEntity
100
AcDbPolyline
  6
CONTINUOUS
420
12011595
 90
     2
 70
     0
 43
0.00233561973871076
 10
-96.91491199959205005
 20
32.83692500007219905
 10
-96.91511299959171311
 20
32.8369330000722357
  0
LWPOLYLINE
  5
1ab
  8
Trans_RoadSegment_Full
100
AcDbEntity
100
AcDbPolyline
  6
CONTINUOUS
420
12011595
 90
     3
 70
     0
 43
0.00233561973871076
 10
-96.91459899959249924
 20
32.83659000007276063
 10
-96.91468599959239327
 20
32.83628900007323637
 10
-96.91475299959228096
 20
32.83612600007347737
  0
LWPOLYLINE
  5
1ac
  8
Trans_RoadSegment_Full
100
AcDbEntity
100
AcDbPolyline
  6
CONTINUOUS
420
12011595
 90
     5
 70
     0
 43
0.00233561973871076
 10
-96.91457599959255731
 20
32.83675700007250953
 10
-96.91415499959322233
 20
32.836758000072507
 10
-96.9117979995968426
 20
32.83675900007250448
 10
-96.9108249995983897
 20
32.83675700007250953
 10
-96.90935999960066738
 20
32.8367620000724969
  0
LWPOLYLINE
  5
1ad
  8
Trans_RoadSegment_Full
100
AcDbEntity
100
AcDbPolyline
  6
CONTINUOUS
420
12011595
 90
     3
 70
     0
 43
0.00233561973871076
 10
-96.92236399958045467
 20
32.83717600007184956
 10
-96.92233299958053294
 20
32.84051300006666452
 10
-96.92232699958049125
 20
32.84415800006098607
  0
LWPOLYLINE
  5
1ae
  8
Trans_RoadSegment_Full
100
AcDbEntity
100
AcDbPolyline
  6
CONTINUOUS
420
12011595
 90
     6
 70
     0
 43
0.00233561973871076
 10
-96.91618799959002217
 20
32.83818000007028104
 10
-96.91575599959071496
 20
32.83849900006975986
 10
-96.91558499959097617
 20
32.83872400006941916
 10
-96.91546799959115788
 20
32.83896500006903807
 10
-96.91538299959131564
 20
32.83935300006845637
 10
-96.91531099959138373
 20
32.84044500006677936
  0
LWPOLYLINE
  5
1af
  8
Trans_RoadSegment_Full
100
AcDbEntity
100
AcDbPolyline
  6
CONTINUOUS
420
12011595
 90
     5
 70
     0
 43
0.00233561973871076
 10
-96.9143389995929283
 20
32.83905000006893715
 10
-96.91441499959279327
 20
32.83855800006966774
 10
-96.91450799959267215
 20
32.83810600007041103
 10
-96.91453699959259893
 20
32.83771600007099778
 10
-96.91453699959259893
 20
32.83716800007186976
  0
LWPOLYLINE
  5
1b0
  8
Trans_RoadSegment_Full
100
AcDbEntity
100
AcDbPolyline
  6
CONTINUOUS
420
12011595
 90
     4
 70
     0
 43
0.00233561973871076
 10
-96.90988999959984085
 20
32.8468970000567424
 10
-96.90949699960043517
 20
32.84738200005597264
 10
-96.90926399960079607
 20
32.84775500005542881
 10
-96.90834899960219673
 20
32.84915100005326849
  0
LWPOLYLINE
  5
1b1
  8
Trans_RoadSegment_Full
100
AcDbEntity
100
AcDbPolyline
  6
CONTINUOUS
420
12011595
 90
     4
 70
     0
 43
0.00233561973871076
 10
-96.91511299959171311
 20
32.8369330000722357
 10
-96.91518199959159574
 20
32.8369530000721852
 10
-96.91543399959124372
 20
32.83696500007215491
 10
-96.91591599959048153
 20
32.83697600007212714
  0
LWPOLYLINE
  5
1b2
  8
Trans_RoadSegment_Full
100
AcDbEntity
100
AcDbPolyline
  6
CONTINUOUS
420
12011595
 90
     9
 70
     0
 43
0.00233561973871076
 10
-96.922038999580991
 20
32.84538300005908695
 10
-96.92218999958072345
 20
32.84530600005922452
 10
-96.92227599958062001
 20
32.84530100005923714
 10
-96.92244299958031206
 20
32.84531500005920179
 10
-96.9227169995799045
 20
32.84530900005921694
 10
-96.92292699957960167
 20
32.84530100005923714
 10
-96.92300799957945401
 20
32.84530900005921694
 10
-96.92310999957931017
 20
32.84529700005924724
 10
-96.92323899957909816
 20
32.84526100005928129
  0
LWPOLYLINE
  5
1b3
  8
Trans_RoadSegment_Full
100
AcDbEntity
100
AcDbPolyline
  6
CONTINUOUS
420
12011595
 90
     2
 70
     0
 43
0.00233561973871076
 10
-96.91739799958816093
 20
32.83765400007109747
 10
-96.91618799959002217
 20
32.83818000007028104
  0
LWPOLYLINE
  5
1b4
  8
Trans_RoadSegment_Full
100
AcDbEntity
100
AcDbPolyline
  6
CONTINUOUS
420
12011595
 90
     2
 70
     0
 43
0.00233561973871076
 10
-96.91484799959209795
 20
32.84054800006657615
 10
-96.91517799959160584
 20
32.8405600000666027
  0
LWPOLYLINE
  5
1b5
  8
Trans_RoadSegment_Full
100
AcDbEntity
100
AcDbPolyline
  6
CONTINUOUS
420
12011595
 90
     4
 70
     0
 43
0.00233561973871076
 10
-96.91143699959741298
 20
32.84633200005760045
 10
-96.91135199959757074
 20
32.84626000005772539
 10
-96.91110199959791771
 20
32.84605500005807244
 10
-96.91089999959825718
 20
32.84588200005833869
  0
LWPOLYLINE
  5
1b6
  8
Trans_RoadSegment_Full
100
AcDbEntity
100
AcDbPolyline
  6
CONTINUOUS
420
12011595
 90
     2
 70
     0
 43
0.00233561973871076
 10
-96.90767499960327314
 20
32.85128400004992955
 10
-96.90788099960292357
 20
32.85135900004979703
  0
LWPOLYLINE
  5
1b7
  8
Trans_RoadSegment_Full
100
AcDbEntity
100
AcDbPolyline
  6
CONTINUOUS
420
12011595
 90
     4
 70
     0
 43
0.00233561973871076
 10
-96.90753499960345607
 20
32.84114000006570677
 10
-96.90746699960357091
 20
32.84106400006578497
 10
-96.90665799960481763
 20
32.84020700006715288
 10
-96.90562599960645684
 20
32.83905300006892958
  0
LWPOLYLINE
  5
1b8
  8
Trans_RoadSegment_Full
100
AcDbEntity
100
AcDbPolyline
  6
CONTINUOUS
420
12011595
 90
     3
 70
     0
 43
0.00233561973871076
 10
-96.90535499960685684
 20
32.83848700006979016
 10
-96.90530499960692623
 20
32.83854300006970561
 10
-96.90522999960705874
 20
32.83861700006957562
  0
LWPOLYLINE
  5
1b9
  8
Trans_RoadSegment_Full
100
AcDbEntity
100
AcDbPolyline
  6
CONTINUOUS
420
12011595
 90
     6
 70
     0
 43
0.00233561973871076
 10
-96.93046099956791295
 20
32.83696900007214481
 10
-96.93193199956562012
 20
32.83698900007215116
 10
-96.93315799956371848
 20
32.83700000007212338
 10
-96.93335899956338153
 20
32.83700700007210571
 10
-96.93403899956234682
 20
32.83704800007205904
 10
-96.93486499956105718
 20
32.83714700007186593
  0
LWPOLYLINE
  5
1ba
  8
Trans_RoadSegment_Full
100
AcDbEntity
100
AcDbPolyline
  6
CONTINUOUS
420
12011595
 90
     8
 70
     0
 43
0.00233561973871076
 10
-96.92512999957614284
 20
32.83467700007571466
 10
-96.9250909995762413
 20
32.83473600007562254
 10
-96.92502399957635362
 20
32.83478100007556577
 10
-96.92494199957644696
 20
32.83480900007549508
 10
-96.92489899957649868
 20
32.83485400007543831
 10
-96.92488499957653403
 20
32.83489500007539164
 10
-96.92486099957659462
 20
32.83560300007428623
 10
-96.92479799957669684
 20
32.83660800007271519
  0
LWPOLYLINE
  5
1bb
  8
Trans_RoadSegment_Full
100
AcDbEntity
100
AcDbPolyline
  6
CONTINUOUS
420
12011595
 90
     6
 70
     0
 43
0.00233561973871076
 10
-96.91954699958483843
 20
32.83696400007215743
 10
-96.92045999958338598
 20
32.83697800007212209
 10
-96.92132699958204967
 20
32.83698800007215368
 10
-96.92289099957963572
 20
32.83699300007214106
 10
-96.92404199957786659
 20
32.83700600007210824
 10
-96.92500999957633212
 20
32.83698400007210694
  0
LWPOLYLINE
  5
1bc
  8
Trans_RoadSegment_Full
100
AcDbEntity
100
AcDbPolyline
  6
CONTINUOUS
420
12011595
 90
     2
 70
     0
 43
0.00233561973871076
 10
-96.93401099956236067
 20
32.84821600005471964
 10
-96.93386099956262569
 20
32.84894500005356122
  0
LWPOLYLINE
  5
1bd
  8
Trans_RoadSegment_Full
100
AcDbEntity
100
AcDbPolyline
  6
CONTINUOUS
420
12011595
 90
     2
 70
     0
 43
0.00233561973871076
 10
-96.93401099956236067
 20
32.84821600005471964
 10
-96.93350399956318597
 20
32.84817400005476884
  0
LWPOLYLINE
  5
1be
  8
Trans_RoadSegment_Full
100
AcDbEntity
100
AcDbPolyline
  6
CONTINUOUS
420
12011595
 90
     5
 70
     0
 43
0.00233561973871076
 10
-96.92585899957504125
 20
32.85444200004502591
 10
-96.92565499957532893
 20
32.85431500004523286
 10
-96.92475999957673594
 20
32.8537890000460493
 10
-96.92466599957685958
 20
32.85374300004610859
 10
-96.92368999957841424
 20
32.85325400004688845
  0
LWPOLYLINE
  5
1bf
  8
Trans_RoadSegment_Full
100
AcDbEntity
100
AcDbPolyline
  6
CONTINUOUS
420
12011595
 90
     2
 70
     0
 43
0.00233561973871076
 10
-96.91503199959186077
 20
32.83590300007381302
 10
-96.91485099959214722
 20
32.83659800007274043
  0
LWPOLYLINE
  5
1c0
  8
Trans_RoadSegment_Full
100
AcDbEntity
100
AcDbPolyline
  6
CONTINUOUS
420
12011595
 90
     7
 70
     0
 43
0.00233561973871076
 10
-96.91320299959465956
 20
32.83644400007295872
 10
-96.9131429995947542
 20
32.83643900007297134
 10
-96.91305599959491701
 20
32.83643500007298144
 10
-96.91299899959500408
 20
32.83643900007297134
 10
-96.9127729995953473
 20
32.83642600007300416
 10
-96.91257299959568172
 20
32.83643300007298649
 10
-96.91155499959722874
 20
32.83641900007302183
  0
LWPOLYLINE
  5
1c1
  8
Trans_RoadSegment_Full
100
AcDbEntity
100
AcDbPolyline
  6
CONTINUOUS
420
12011595
 90
     3
 70
     0
 43
0.00233561973871076
 10
-96.91801199958723601
 20
32.84172100006480832
 10
-96.91752899958794387
 20
32.8420700000642114
 10
-96.917374999588219
 20
32.84219600006406381
  0
LWPOLYLINE
  5
1c2
  8
Trans_RoadSegment_Full
100
AcDbEntity
100
AcDbPolyline
  6
CONTINUOUS
420
12011595
 90
    16
 70
     0
 43
0.00233561973871076
 10
-96.91720499958847768
 20
32.84813100005482056
 10
-96.91718099958848143
 20
32.84809500005491145
 10
-96.91694699958884485
 20
32.8478840000552168
 10
-96.91686199958900261
 20
32.84779900005531772
 10
-96.91681099958907453
 20
32.84773100005543256
 10
-96.91667499958930421
 20
32.84749300005580608
 10
-96.91665499958929786
 20
32.84742700005591587
 10
-96.91666799958932188
 20
32.84739400005599919
 10
-96.91682799958903161
 20
32.84720500005624899
 10
-96.91685099958903038
 20
32.84716600005634746
 10
-96.91718399958847385
 20
32.84644800005742127
 10
-96.91723399958840446
 20
32.84631100005765347
 10
-96.91725099958841838
 20
32.84624100005777336
 10
-96.91725999958839566
 20
32.8461390000579172
 10
-96.91725499958840828
 20
32.84601000005812921
 10
-96.91722899958841708
 20
32.84572900005855445
  0
LWPOLYLINE
  5
1c3
  8
Trans_RoadSegment_Full
100
AcDbEntity
100
AcDbPolyline
  6
CONTINUOUS
420
12011595
 90
     2
 70
     0
 43
0.00233561973871076
 10
-96.91618999959001712
 20
32.84425400006085738
 10
-96.91621899959000075
 20
32.84440000006060245
  0
LWPOLYLINE
  5
1c4
  8
Trans_RoadSegment_Full
100
AcDbEntity
100
AcDbPolyline
  6
CONTINUOUS
420
12011595
 90
     3
 70
     0
 43
0.00233561973871076
 10
-96.91260099959561103
 20
32.84600100005815193
 10
-96.91253299959572587
 20
32.8459400000582491
 10
-96.91240099959594545
 20
32.84581200005840174
  0
LWPOLYLINE
  5
1c5
  8
Trans_RoadSegment_Full
100
AcDbEntity
100
AcDbPolyline
  6
CONTINUOUS
420
12011595
 90
     6
 70
     0
 43
0.00233561973871076
 10
-96.93046099956791295
 20
32.83696900007214481
 10
-96.93046099956791295
 20
32.83703500007203502
 10
-96.9304789995678675
 20
32.83710300007192018
 10
-96.93050399956780439
 20
32.83714700007186593
 10
-96.93053499956778296
 20
32.83718400007182936
 10
-96.93062899956760248
 20
32.83725100007171704
  0
LWPOLYLINE
  5
1c6
  8
Trans_RoadSegment_Full
100
AcDbEntity
100
AcDbPolyline
  6
CONTINUOUS
420
12011595
 90
     2
 70
     0
 43
0.00233561973871076
 10
-96.93068499956751793
 20
32.83657300007274671
 10
-96.9302799995681994
 20
32.83657300007274671
  0
LWPOLYLINE
  5
1c7
  8
Trans_RoadSegment_Full
100
AcDbEntity
100
AcDbPolyline
  6
CONTINUOUS
420
12011595
 90
     2
 70
     0
 43
0.00233561973871076
 10
-96.91621899959000075
 20
32.84930500005299336
 10
-96.91649299958959318
 20
32.84941800005282175
  0
LWPOLYLINE
  5
1c8
  8
Trans_RoadSegment_Full
100
AcDbEntity
100
AcDbPolyline
  6
CONTINUOUS
420
12011595
 90
     2
 70
     0
 43
0.00233561973871076
 10
-96.91604799959026195
 20
32.84425400006085738
 10
-96.91604499959026953
 20
32.84440000006060245
  0
LWPOLYLINE
  5
1c9
  8
Trans_RoadSegment_Full
100
AcDbEntity
100
AcDbPolyline
  6
CONTINUOUS
420
12011595
 90
     4
 70
     0
 43
0.00233561973871076
 10
-96.91602099959033012
 20
32.84876700005384009
 10
-96.9160219995903276
 20
32.84886500005370635
 10
-96.91601699959028338
 20
32.84892800005360414
 10
-96.91601499959028843
 20
32.84907900005333659
  0
LWPOLYLINE
  5
1ca
  8
Trans_RoadSegment_Full
100
AcDbEntity
100
AcDbPolyline
  6
CONTINUOUS
420
12011595
 90
     8
 70
     0
 43
0.00233561973871076
 10
-96.91733799958825557
 20
32.84101700006584679
 10
-96.91701199958873758
 20
32.8407250000662998
 10
-96.916811999589072
 20
32.84058600006653705
 10
-96.91666199958933703
 20
32.84051900006664937
 10
-96.91636899958973572
 20
32.84045500006675411
 10
-96.91616499959008024
 20
32.84043800006679703
 10
-96.91537999959132321
 20
32.84044300006678441
 10
-96.91531099959138373
 20
32.84044500006677936
  0
LWPOLYLINE
  5
1cb
  8
Trans_RoadSegment_Full
100
AcDbEntity
100
AcDbPolyline
  6
CONTINUOUS
420
12011595
 90
     3
 70
     0
 43
0.00233561973871076
 10
-96.91264699959555173
 20
32.84553800005886615
 10
-96.91319599959467723
 20
32.84505700005962581
 10
-96.91346599959427977
 20
32.84473900006008762
  0
LWPOLYLINE
  5
1cc
  8
Trans_RoadSegment_Full
100
AcDbEntity
100
AcDbPolyline
  6
CONTINUOUS
420
12011595
 90
     2
 70
     0
 43
0.00233561973871076
 10
-96.91197599959656372
 20
32.84627400005769005
 10
-96.91168899959700411
 20
32.84605400005807496
  0
LWPOLYLINE
  5
1cd
  8
Trans_RoadSegment_Full
100
AcDbEntity
100
AcDbPolyline
  6
CONTINUOUS
420
12011595
 90
     3
 70
     0
 43
0.00233561973871076
 10
-96.91168899959700411
 20
32.84605400005807496
 10
-96.91152299959730954
 20
32.84623200005779609
 10
-96.91143699959741298
 20
32.84633200005760045
  0
LWPOLYLINE
  5
1ce
  8
Trans_RoadSegment_Full
100
AcDbEntity
100
AcDbPolyline
  6
CONTINUOUS
420
12011595
 90
     5
 70
     0
 43
0.00233561973871076
 10
-96.90861499960180936
 20
32.84193500006443855
 10
-96.90776599960310023
 20
32.84101200006585941
 10
-96.90760499960339303
 20
32.84081700006618121
 10
-96.90754299960343587
 20
32.8407130000663301
 10
-96.90747799960354314
 20
32.84056100006660017
  0
LWPOLYLINE
  5
1cf
  8
Trans_RoadSegment_Full
100
AcDbEntity
100
AcDbPolyline
  6
CONTINUOUS
420
12011595
 90
     2
 70
     0
 43
0.00233561973871076
 10
-96.93472899956128686
 20
32.84909300005335808
 10
-96.93386099956262569
 20
32.84894500005356122
  0
LWPOLYLINE
  5
1d0
  8
Trans_RoadSegment_Full
100
AcDbEntity
100
AcDbPolyline
  6
CONTINUOUS
420
12011595
 90
     8
 70
     0
 43
0.00233561973871076
 10
-96.9325479995646333
 20
32.84846900005430825
 10
-96.93251299956472167
 20
32.8484750000542931
 10
-96.93246999956477339
 20
32.84849500005424261
 10
-96.93100299956705612
 20
32.84960400005252268
 10
-96.9302579995681981
 20
32.8501860000516217
 10
-96.93012499956842021
 20
32.85027100005152079
 10
-96.93000399956861202
 20
32.85040500005129616
 10
-96.92997799956862082
 20
32.85049500005118261
  0
LWPOLYLINE
  5
1d1
  8
Trans_RoadSegment_Full
100
AcDbEntity
100
AcDbPolyline
  6
CONTINUOUS
420
12011595
 90
     2
 70
     0
 43
0.00233561973871076
 10
-96.91457599959255731
 20
32.83675700007250953
 10
-96.91459899959249924
 20
32.83659000007276063
  0
LWPOLYLINE
  5
1d2
  8
Trans_RoadSegment_Full
100
AcDbEntity
100
AcDbPolyline
  6
CONTINUOUS
420
12011595
 90
    14
 70
     0
 43
0.00233561973871076
 10
-96.92345799957877261
 20
32.85355700004640767
 10
-96.92331899957895303
 20
32.85373500004612879
 10
-96.92306299957937199
 20
32.85415200004547387
 10
-96.92284199957970259
 20
32.85455600004485177
 10
-96.92268899957997519
 20
32.85491200004429402
 10
-96.92262799958007236
 20
32.85513100004396847
 10
-96.92256599958017205
 20
32.85525200004377666
 10
-96.92237999958041428
 20
32.85549700004338547
 10
-96.92219699958070578
 20
32.85569000004312556
 10
-96.92209999958089384
 20
32.85577300004297285
 10
-96.92191999958112092
 20
32.85585400004282519
 10
-96.92167899958150201
 20
32.85599500004263973
 10
-96.92149099958180614
 20
32.85611100004246055
 10
-96.92133099958203957
 20
32.856167000042376
  0
LWPOLYLINE
  5
1d3
  8
Trans_RoadSegment_Full
100
AcDbEntity
100
AcDbPolyline
  6
CONTINUOUS
420
12011595
 90
     4
 70
     0
 43
0.00233561973871076
 10
-96.91811799958702522
 20
32.83733900007160855
 10
-96.91758999958784671
 20
32.83731600007160978
 10
-96.91737799958821142
 20
32.83728200007169562
 10
-96.91715499958854707
 20
32.83723400007175997
  0
LWPOLYLINE
  5
1d4
  8
Trans_RoadSegment_Full
100
AcDbEntity
100
AcDbPolyline
  6
CONTINUOUS
420
12011595
 90
     2
 70
     0
 43
0.00233561973871076
 10
-96.91601899959033517
 20
32.8485960000541013
 10
-96.91602099959033012
 20
32.84876700005384009
  0
LWPOLYLINE
  5
1d5
  8
Trans_RoadSegment_Full
100
AcDbEntity
100
AcDbPolyline
  6
CONTINUOUS
420
12011595
 90
     8
 70
     0
 43
0.00233561973871076
 10
-96.91461299959246389
 20
32.84207900006424552
 10
-96.91448199959268095
 20
32.84254300006352878
 10
-96.91422999959308981
 20
32.84318500006253316
 10
-96.91404199959339394
 20
32.84356200006192239
 10
-96.91389199959360212
 20
32.8438250000615426
 10
-96.91360099959405261
 20
32.84427300006080941
 10
-96.91345599959430501
 20
32.84448400006050406
 10
-96.91264699959555173
 20
32.84553800005886615
  0
LWPOLYLINE
  5
1d6
  8
Trans_RoadSegment_Full
100
AcDbEntity
100
AcDbPolyline
  6
CONTINUOUS
420
12011595
 90
     3
 70
     0
 43
0.00233561973871076
 10
-96.91188799959672906
 20
32.84671200005703895
 10
-96.91173899959693472
 20
32.84658500005724591
 10
-96.91169599959704328
 20
32.84655000005727743
  0
LWPOLYLINE
  5
1d7
  8
Trans_RoadSegment_Full
100
AcDbEntity
100
AcDbPolyline
  6
CONTINUOUS
420
12011595
 90
     4
 70
     0
 43
0.00233561973871076
 10
-96.90943999960052224
 20
32.84279800006311234
 10
-96.9093169996007191
 20
32.8426670000633294
 10
-96.90869699960165917
 20
32.84202400006432754
 10
-96.90861499960180936
 20
32.84193500006443855
  0
LWPOLYLINE
  5
1d8
  8
Trans_RoadSegment_Full
100
AcDbEntity
100
AcDbPolyline
  6
CONTINUOUS
420
12011595
 90
     7
 70
     0
 43
0.00233561973871076
 10
-96.91118299959782689
 20
32.84563600005867556
 10
-96.91113199959789881
 20
32.84556100005880808
 10
-96.91110099959792024
 20
32.8455140000588699
 10
-96.91004399959956572
 20
32.8441990000609394
 10
-96.90988099959980673
 20
32.84399900006121698
 10
-96.90963999960018782
 20
32.84368800006171796
 10
-96.90842099960212863
 20
32.84239900006372181
  0
LWPOLYLINE
  5
1d9
  8
Trans_RoadSegment_Full
100
AcDbEntity
100
AcDbPolyline
  6
CONTINUOUS
420
12011595
 90
     2
 70
     0
 43
0.00233561973871076
 10
-96.90522999960705874
 20
32.83861700006957562
 10
-96.90505399960733257
 20
32.8387930000693018
  0
LWPOLYLINE
  5
1da
  8
Trans_RoadSegment_Full
100
AcDbEntity
100
AcDbPolyline
  6
CONTINUOUS
420
12011595
 90
     2
 70
     0
 43
0.00233561973871076
 10
-96.93027499956815518
 20
32.83686600007229117
 10
-96.93027299956816023
 20
32.83696700007214986
  0
LWPOLYLINE
  5
1db
  8
Trans_RoadSegment_Full
100
AcDbEntity
100
AcDbPolyline
  6
CONTINUOUS
420
12011595
 90
     2
 70
     0
 43
0.00233561973871076
 10
-96.93027499956815518
 20
32.83686600007229117
 10
-96.93007599956848708
 20
32.83686400007229622
  0
LWPOLYLINE
  5
1dc
  8
Trans_RoadSegment_Full
100
AcDbEntity
100
AcDbPolyline
  6
CONTINUOUS
420
12011595
 90
     2
 70
     0
 43
0.00233561973871076
 10
-96.93007599956848708
 20
32.83696800007214733
 10
-96.93027299956816023
 20
32.83696700007214986
  0
LWPOLYLINE
  5
1dd
  8
Trans_RoadSegment_Full
100
AcDbEntity
100
AcDbPolyline
  6
CONTINUOUS
420
12011595
 90
     2
 70
     0
 43
0.00233561973871076
 10
-96.93620399955898392
 20
32.84622100005776701
 10
-96.9363539995587189
 20
32.84606900005803709
  0
LWPOLYLINE
  5
1de
  8
Trans_RoadSegment_Full
100
AcDbEntity
100
AcDbPolyline
  6
CONTINUOUS
420
12011595
 90
    16
 70
     0
 43
0.00233561973871076
 10
-96.93359599956301054
 20
32.85249300004807083
 10
-96.93350599956318092
 20
32.85222400004846577
 10
-96.93348399956317962
 20
32.8521100000486399
 10
-96.93346899956321749
 20
32.85190800004897937
 10
-96.93346799956322002
 20
32.85188000004899322
 10
-96.93350399956318597
 20
32.85157100004948916
 10
-96.9335309995631178
 20
32.85148700004964439
 10
-96.93358799956303073
 20
32.85135900004979703
 10
-96.93369899956286417
 20
32.85123900004998632
 10
-96.93445499956169442
 20
32.85062400005097061
 10
-96.93464999956137262
 20
32.85043900005126716
 10
-96.93480799956114424
 20
32.85024000005154221
 10
-96.93494899956090194
 20
32.85001900005187281
 10
-96.93505999956073538
 20
32.84978100005224633
 10
-96.93513299956066476
 20
32.84956900005261105
 10
-96.93521599956051205
 20
32.84916500005323314
  0
LWPOLYLINE
  5
1df
  8
Trans_RoadSegment_Full
100
AcDbEntity
100
AcDbPolyline
  6
CONTINUOUS
420
12011595
 90
     9
 70
     0
 43
0.00233561973871076
 10
-96.93359599956301054
 20
32.85249300004807083
 10
-96.93344699956327304
 20
32.8526310000478361
 10
-96.93280499956426866
 20
32.85316100004700957
 10
-96.93268599956445541
 20
32.8532400000469238
 10
-96.93245699956480621
 20
32.85338300004667644
 10
-96.93222299956516963
 20
32.85354100004644806
 10
-96.93206299956540306
 20
32.8536340000462701
 10
-96.93196399956553932
 20
32.85365900004626383
 10
-96.93187899956569709
 20
32.85366200004625625
  0
LWPOLYLINE
  5
1e0
  8
Trans_RoadSegment_Full
100
AcDbEntity
100
AcDbPolyline
  6
CONTINUOUS
420
12011595
 90
     3
 70
     0
 43
0.00233561973871076
 10
-96.92438399957734418
 20
32.85298400004728592
 10
-96.92422899957756499
 20
32.85288500004747902
 10
-96.92402299957785772
 20
32.85277700004763801
  0
LWPOLYLINE
  5
1e1
  8
Trans_RoadSegment_Full
100
AcDbEntity
100
AcDbPolyline
  6
CONTINUOUS
420
12011595
 90
     5
 70
     0
 43
0.00233561973871076
 10
-96.92888999957034457
 20
32.83723800007174987
 10
-96.92834899957114203
 20
32.83722000007173847
 10
-96.9271219995730462
 20
32.83721400007175362
 10
-96.92602599957479015
 20
32.83719300007180664
 10
-96.92236399958045467
 20
32.83717600007184956
  0
LWPOLYLINE
  5
1e2
  8
Trans_RoadSegment_Full
100
AcDbEntity
100
AcDbPolyline
  6
CONTINUOUS
420
12011595
 90
     3
 70
     0
 43
0.00233561973871076
 10
-96.9177649995875754
 20
32.83655400007279468
 10
-96.917577999587877
 20
32.8365570000727871
 10
-96.91740699958813821
 20
32.8365570000727871
  0
LWPOLYLINE
  5
1e3
  8
Trans_RoadSegment_Full
100
AcDbEntity
100
AcDbPolyline
  6
CONTINUOUS
420
12011595
 90
     2
 70
     0
 43
0.00233561973871076
 10
-96.91492499959201723
 20
32.8367540000725171
 10
-96.91493499959199198
 20
32.83660200007273033
  0
LWPOLYLINE
  5
1e4
  8
Trans_RoadSegment_Full
100
AcDbEntity
100
AcDbPolyline
  6
CONTINUOUS
420
12011595
 90
     2
 70
     0
 43
0.00233561973871076
 10
-96.91492499959201723
 20
32.8367540000725171
 10
-96.91482399959215854
 20
32.8367540000725171
  0
LWPOLYLINE
  5
1e5
  8
Trans_RoadSegment_Full
100
AcDbEntity
100
AcDbPolyline
  6
CONTINUOUS
420
12011595
 90
     3
 70
     0
 43
0.00233561973871076
 10
-96.91468599959239327
 20
32.83659400007275053
 10
-96.91468799959238822
 20
32.83665800007264579
 10
-96.91467899959241095
 20
32.83675600007251205
  0
LWPOLYLINE
  5
1e6
  8
Trans_RoadSegment_Full
100
AcDbEntity
100
AcDbPolyline
  6
CONTINUOUS
420
12011595
 90
     2
 70
     0
 43
0.00233561973871076
 10
-96.92072699958299609
 20
32.83717000007186471
 10
-96.91942099958504286
 20
32.83715900007183564
  0
LWPOLYLINE
  5
1e7
  8
Trans_RoadSegment_Full
100
AcDbEntity
100
AcDbPolyline
  6
CONTINUOUS
420
12011595
 90
     5
 70
     0
 43
0.00233561973871076
 10
-96.91942099958504286
 20
32.83715900007183564
 10
-96.91955799958481066
 20
32.83721500007175109
 10
-96.91969599958457593
 20
32.83728800007168047
 10
-96.91981099958439927
 20
32.83740100007150886
 10
-96.91987499958429453
 20
32.83747900007136877
  0
LWPOLYLINE
  5
1e8
  8
Trans_RoadSegment_Full
100
AcDbEntity
100
AcDbPolyline
  6
CONTINUOUS
420
12011595
 90
     4
 70
     0
 43
0.00233561973871076
 10
-96.92232699958049125
 20
32.84415800006098607
 10
-96.9219889995810604
 20
32.84417200006095072
 10
-96.91969899958456836
 20
32.8441990000609394
 10
-96.91834899958666938
 20
32.84421300006090405
  0
LWPOLYLINE
  5
1e9
  8
Trans_RoadSegment_Full
100
AcDbEntity
100
AcDbPolyline
  6
CONTINUOUS
420
12011595
 90
     2
 70
     0
 43
0.00233561973871076
 10
-96.91649699958958308
 20
32.84899100005350192
 10
-96.91621599959000832
 20
32.84886100005371645
  0
LWPOLYLINE
  5
1ea
  8
Trans_RoadSegment_Full
100
AcDbEntity
100
AcDbPolyline
  6
CONTINUOUS
420
12011595
 90
     7
 70
     0
 43
0.00233561973871076
 10
-96.91461299959246389
 20
32.84207900006424552
 10
-96.9144679995927163
 20
32.84275600006316154
 10
-96.91433299959294345
 20
32.84317800006249399
 10
-96.91414099959320083
 20
32.84359800006188834
 10
-96.91391599959359837
 20
32.84398700006124727
 10
-96.913747999593852
 20
32.84428100006078921
 10
-96.91346599959427977
 20
32.84473900006008762
  0
LWPOLYLINE
  5
1eb
  8
Trans_RoadSegment_Full
100
AcDbEntity
100
AcDbPolyline
  6
CONTINUOUS
420
12011595
 90
    12
 70
     0
 43
0.00233561973871076
 10
-96.91531899959142038
 20
32.84056500006659007
 10
-96.91529099959143423
 20
32.84099900006589223
 10
-96.91521999959155664
 20
32.84145300006520074
 10
-96.91507599959174968
 20
32.84208300006423542
 10
-96.9149219995920248
 20
32.84256900006346314
 10
-96.91458299959253964
 20
32.84336400006225176
 10
-96.91457199959256741
 20
32.84338000006221137
 10
-96.91434399959291568
 20
32.843815000061511
 10
-96.91413299959322103
 20
32.8441650000609684
 10
-96.91393399959355293
 20
32.84447000006053941
 10
-96.91363999959401099
 20
32.84482700005997913
 10
-96.91330899959450562
 20
32.84515800005942765
  0
LWPOLYLINE
  5
1ec
  8
Trans_RoadSegment_Full
100
AcDbEntity
100
AcDbPolyline
  6
CONTINUOUS
420
12011595
 90
     7
 70
     0
 43
0.00233561973871076
 10
-96.91604399959027205
 20
32.84994700005199775
 10
-96.9150629995917825
 20
32.84943400005278136
 10
-96.91411199959327405
 20
32.84893600005358394
 10
-96.91366999959393524
 20
32.84859700005409877
 10
-96.91316199959476307
 20
32.8480330000549543
 10
-96.91275799959538517
 20
32.84757200005572031
 10
-96.91188799959672906
 20
32.84671200005703895
  0
LWPOLYLINE
  5
1ed
  8
Trans_RoadSegment_Full
100
AcDbEntity
100
AcDbPolyline
  6
CONTINUOUS
420
12011595
 90
    10
 70
     0
 43
0.00233561973871076
 10
-96.91119099959780669
 20
32.84746100005588687
 10
-96.9108789995983102
 20
32.84784100005526852
 10
-96.91079299959841364
 20
32.84793800005513731
 10
-96.91048499959890705
 20
32.84830900005454168
 10
-96.90986899959983703
 20
32.8490380000534401
 10
-96.90927599960076577
 20
32.84987700005211764
 10
-96.90882899960143959
 20
32.85055200005109555
 10
-96.90857399960185603
 20
32.85097700005042043
 10
-96.90838199960217025
 20
32.85130900004992327
 10
-96.90830999960229519
 20
32.851374000049816
  0
LWPOLYLINE
  5
1ee
  8
Trans_RoadSegment_Full
100
AcDbEntity
100
AcDbPolyline
  6
CONTINUOUS
420
12011595
 90
     6
 70
     0
 43
0.00233561973871076
 10
-96.90783999960302708
 20
32.84178500006470358
 10
-96.90771099960318224
 20
32.84164000006489914
 10
-96.90619199960553942
 20
32.84001200006741783
 10
-96.90576599960621706
 20
32.83957600006812072
 10
-96.90559599960647574
 20
32.83938400006843494
 10
-96.90532199960688331
 20
32.83908900006883869
  0
LWPOLYLINE
  5
1ef
  8
Trans_RoadSegment_Full
100
AcDbEntity
100
AcDbPolyline
  6
CONTINUOUS
420
12011595
 90
     2
 70
     0
 43
0.00233561973871076
 10
-96.90562599960645684
 20
32.83905300006892958
 10
-96.90552099960660826
 20
32.83895100006907342
  0
LWPOLYLINE
  5
1f0
  8
Trans_RoadSegment_Full
100
AcDbEntity
100
AcDbPolyline
  6
CONTINUOUS
420
12011595
 90
     6
 70
     0
 43
0.00233561973871076
 10
-96.9346469995613802
 20
32.85135400004980966
 10
-96.93444199956172724
 20
32.85160500004946016
 10
-96.934322999561914
 20
32.85185700004905129
 10
-96.93426799956199602
 20
32.8520520000487295
 10
-96.93422799956204017
 20
32.85224900004845949
 10
-96.93421299956207804
 20
32.85248800004808345
  0
LWPOLYLINE
  5
1f1
  8
Trans_RoadSegment_Full
100
AcDbEntity
100
AcDbPolyline
  6
CONTINUOUS
420
12011595
 90
     3
 70
     0
 43
0.00233561973871076
 10
-96.93403899956234682
 20
32.85403100004566568
 10
-96.93397999956243893
 20
32.85389700004589031
 10
-96.93392499956252095
 20
32.85326200004686825
  0
LWPOLYLINE
  5
1f2
  8
Trans_RoadSegment_Full
100
AcDbEntity
100
AcDbPolyline
  6
CONTINUOUS
420
12011595
 90
     8
 70
     0
 43
0.00233561973871076
 10
-96.93486499956105718
 20
32.83714700007186593
 10
-96.93455899956154553
 20
32.83713800007188865
 10
-96.93447499956164393
 20
32.8371360000718937
 10
-96.93412799956217896
 20
32.83713000007190885
 10
-96.93342999956325912
 20
32.8371020000719227
 10
-96.9331109995637803
 20
32.8370940000719429
 10
-96.93252299956469642
 20
32.83715400007184826
 10
-96.93184599956572356
 20
32.83725400007170947
  0
LWPOLYLINE
  5
1f3
  8
Trans_RoadSegment_Full
100
AcDbEntity
100
AcDbPolyline
  6
CONTINUOUS
420
12011595
 90
     8
 70
     0
 43
0.00233561973871076
 10
-96.92858299957077861
 20
32.84808300005488491
 10
-96.92886799957034327
 20
32.84792400005517266
 10
-96.92900299957017296
 20
32.8478300000552963
 10
-96.92920199956984106
 20
32.84771200005548053
 10
-96.92927699956970855
 20
32.84766200005554992
 10
-96.92931399956967198
 20
32.84759500005566224
 10
-96.92932499956964421
 20
32.84753200005576446
 10
-96.92928799956973762
 20
32.84741900005593607
  0
LWPOLYLINE
  5
1f4
  8
Trans_RoadSegment_Full
100
AcDbEntity
100
AcDbPolyline
  6
CONTINUOUS
420
12011595
 90
     2
 70
     0
 43
0.00233561973871076
 10
-96.92402299957785772
 20
32.85277700004763801
 10
-96.92380599957823506
 20
32.85309600004711683
  0
LWPOLYLINE
  5
1f5
  8
Trans_RoadSegment_Full
100
AcDbEntity
100
AcDbPolyline
  6
CONTINUOUS
420
12011595
 90
     2
 70
     0
 43
0.00233561973871076
 10
-96.91467899959241095
 20
32.83675600007251205
 10
-96.91466499959238945
 20
32.83693100007224075
  0
LWPOLYLINE
  5
1f6
  8
Trans_RoadSegment_Full
100
AcDbEntity
100
AcDbPolyline
  6
CONTINUOUS
420
12011595
 90
     2
 70
     0
 43
0.00233561973871076
 10
-96.91685299958902533
 20
32.849205000053189
 10
-96.91649699958958308
 20
32.84899100005350192
  0
LWPOLYLINE
  5
1f7
  8
Trans_RoadSegment_Full
100
AcDbEntity
100
AcDbPolyline
  6
CONTINUOUS
420
12011595
 90
     3
 70
     0
 43
0.00233561973871076
 10
-96.91621599959000832
 20
32.84886100005371645
 10
-96.91621899959000075
 20
32.84898200005352464
 10
-96.91621899959000075
 20
32.84918400005318517
  0
LWPOLYLINE
  5
1f8
  8
Trans_RoadSegment_Full
100
AcDbEntity
100
AcDbPolyline
  6
CONTINUOUS
420
12011595
 90
     3
 70
     0
 43
0.00233561973871076
 10
-96.9162049995900361
 20
32.84833300005453793
 10
-96.9162049995900361
 20
32.84848600005426533
 10
-96.91621199959001842
 20
32.84872200005389686
  0
LWPOLYLINE
  5
1f9
  8
Trans_RoadSegment_Full
100
AcDbEntity
100
AcDbPolyline
  6
CONTINUOUS
420
12011595
 90
     2
 70
     0
 43
0.00233561973871076
 10
-96.91330899959450562
 20
32.84515800005942765
 10
-96.91260099959561103
 20
32.84600100005815193
  0
LWPOLYLINE
  5
1fa
  8
Trans_RoadSegment_Full
100
AcDbEntity
100
AcDbPolyline
  6
CONTINUOUS
420
12011595
 90
    10
 70
     0
 43
0.00233561973871076
 10
-96.91398499959348101
 20
32.84116500006564365
 10
-96.91374599959385705
 20
32.84201200006430099
 10
-96.91358599959409048
 20
32.84243000006370039
 10
-96.9131389995947643
 20
32.84339000006218612
 10
-96.91294699959507852
 20
32.84371300006171168
 10
-96.91264999959554416
 20
32.84415000006100627
 10
-96.91246899959583061
 20
32.84443400006057345
 10
-96.91231299959605394
 20
32.84464400006027063
 10
-96.91216899959630382
 20
32.84482300005998923
 10
-96.91178299959688047
 20
32.8451600000594226
  0
LWPOLYLINE
  5
1fb
  8
Trans_RoadSegment_Full
100
AcDbEntity
100
AcDbPolyline
  6
CONTINUOUS
420
12011595
 90
     5
 70
     0
 43
0.00233561973871076
 10
-96.90788099960292357
 20
32.85135900004979703
 10
-96.90801999960274316
 20
32.85140700004973269
 10
-96.90809799960260307
 20
32.85142200004969482
 10
-96.90820699960244156
 20
32.85141000004972511
 10
-96.90830999960229519
 20
32.851374000049816
  0
LWPOLYLINE
  5
1fc
  8
Trans_RoadSegment_Full
100
AcDbEntity
100
AcDbPolyline
  6
CONTINUOUS
420
12011595
 90
     6
 70
     0
 43
0.00233561973871076
 10
-96.90732599960381322
 20
32.85098000005041285
 10
-96.90735199960374757
 20
32.85103600005032831
 10
-96.9073669996037097
 20
32.85108400005026397
 10
-96.90743999960363908
 20
32.85117600005008853
 10
-96.90751299960351162
 20
32.85121500005004691
 10
-96.90767499960327314
 20
32.85128400004992955
  0
LWPOLYLINE
  5
1fd
  8
Trans_RoadSegment_Full
100
AcDbEntity
100
AcDbPolyline
  6
CONTINUOUS
420
12011595
 90
     5
 70
     0
 43
0.00233561973871076
 10
-96.9089249996013109
 20
32.8373030000716426
 10
-96.90869799960165665
 20
32.83740500007149876
 10
-96.90823199960237844
 20
32.83757400007124261
 10
-96.90771799960316457
 20
32.83776700007092586
 10
-96.90704499960423846
 20
32.83807100007044255
  0
LWPOLYLINE
  5
1fe
  8
Trans_RoadSegment_Full
100
AcDbEntity
100
AcDbPolyline
  6
CONTINUOUS
420
12011595
 90
     3
 70
     0
 43
0.00233561973871076
 10
-96.91466499959238945
 20
32.83693100007224075
 10
-96.91473799959231883
 20
32.8369290000722458
 10
-96.91481699959217622
 20
32.83692600007219653
  0
LWPOLYLINE
  5
1ff
  8
Trans_RoadSegment_Full
100
AcDbEntity
100
AcDbPolyline
  6
CONTINUOUS
420
12011595
 90
     2
 70
     0
 43
0.00233561973871076
 10
-96.91103799959802245
 20
32.83697000007214228
 10
-96.91161399959713663
 20
32.83696000007216753
  0
LWPOLYLINE
  5
200
  8
Trans_RoadSegment_Full
100
AcDbEntity
100
AcDbPolyline
  6
CONTINUOUS
420
12011595
 90
     4
 70
     0
 43
0.00233561973871076
 10
-96.90343899960981844
 20
32.83590400007381049
 10
-96.90465899960793195
 20
32.83622100007329436
 10
-96.90623599960548518
 20
32.83652400007287042
 10
-96.90737899960373625
 20
32.83671900007254862
  0
LWPOLYLINE
  5
201
  8
Trans_RoadSegment_Full
100
AcDbEntity
100
AcDbPolyline
  6
CONTINUOUS
420
12011595
 90
     3
 70
     0
 43
0.00233561973871076
 10
-96.91739799958816093
 20
32.83765400007109747
 10
-96.91739999958815588
 20
32.83824500007017377
 10
-96.91733799958825557
 20
32.84101700006584679
  0
LWPOLYLINE
  5
202
  8
Trans_RoadSegment_Full
100
AcDbEntity
100
AcDbPolyline
  6
CONTINUOUS
420
12011595
 90
     2
 70
     0
 43
0.00233561973871076
 10
-96.91517799959160584
 20
32.8405600000666027
 10
-96.91517299959161846
 20
32.84044600006677683
  0
LWPOLYLINE
  5
203
  8
Trans_RoadSegment_Full
100
AcDbEntity
100
AcDbPolyline
  6
CONTINUOUS
420
12011595
 90
     3
 70
     0
 43
0.00233561973871076
 10
-96.91230599959607162
 20
32.84627900005767742
 10
-96.91248199959579779
 20
32.84664900005714117
 10
-96.91254699959569052
 20
32.84677600005693421
  0
LWPOLYLINE
  5
204
  8
Trans_RoadSegment_Full
100
AcDbEntity
100
AcDbPolyline
  6
CONTINUOUS
420
12011595
 90
    13
 70
     0
 43
0.00233561973871076
 10
-96.91431599959292953
 20
32.8405560000666128
 10
-96.91423399959307972
 20
32.84080200006621908
 10
-96.91400799959342294
 20
32.8416920000648247
 10
-96.91381099959374978
 20
32.84225200006397927
 10
-96.91356699959413845
 20
32.84284400006305304
 10
-96.9133319995945044
 20
32.84328200006234511
 10
-96.91309199959482612
 20
32.84366800006176845
 10
-96.91280499959532335
 20
32.84410500006106304
 10
-96.91264999959554416
 20
32.84434500006068447
 10
-96.9124189995959
 20
32.84476800006007124
 10
-96.91226799959611071
 20
32.845144000059463
 10
-96.91222999959620665
 20
32.84534200005913362
 10
-96.91222599959621675
 20
32.84543300005901756
  0
LWPOLYLINE
  5
205
  8
Trans_RoadSegment_Full
100
AcDbEntity
100
AcDbPolyline
  6
CONTINUOUS
420
12011595
 90
     6
 70
     0
 43
0.00233561973871076
 10
-96.90767499960327314
 20
32.85128400004992955
 10
-96.90739799960368828
 20
32.8517360000492431
 10
-96.90723099960393938
 20
32.85200700004878627
 10
-96.9063719996052555
 20
32.85333200004674836
 10
-96.90598499960589152
 20
32.85392900004580952
 10
-96.9047109996078575
 20
32.85582000004291103
  0
LWPOLYLINE
  5
206
  8
Trans_RoadSegment_Full
100
AcDbEntity
100
AcDbPolyline
  6
CONTINUOUS
420
12011595
 90
    16
 70
     0
 43
0.00233561973871076
 10
-96.90783999960302708
 20
32.84178500006470358
 10
-96.90760899960338293
 20
32.84158900006497106
 10
-96.90690899960446814
 20
32.84097100006596293
 10
-96.90682899960455643
 20
32.84089900006603102
 10
-96.90670699960475076
 20
32.8408010000662216
 10
-96.90645299960516468
 20
32.84065600006641716
 10
-96.90624099960547255
 20
32.8405560000666128
 10
-96.90587399960605808
 20
32.84043100006675786
 10
-96.90541299960676724
 20
32.84031400006693957
 10
-96.90526899960701712
 20
32.84029600006698502
 10
-96.90494599960749156
 20
32.84028200006702036
 10
-96.90468999960791052
 20
32.84028200006702036
 10
-96.90436699960838496
 20
32.84032200006697622
 10
-96.90408099960882282
 20
32.84043500006680461
 10
-96.90384299960919634
 20
32.8405840000665421
 10
-96.90346199960981721
 20
32.84089700006603607
  0
LWPOLYLINE
  5
207
  8
Trans_RoadSegment_Full
100
AcDbEntity
100
AcDbPolyline
  6
CONTINUOUS
420
12011595
 90
     3
 70
     0
 43
0.00233561973871076
 10
-96.92500999957633212
 20
32.83698400007210694
 10
-96.92601499957481792
 20
32.83698200007211199
 10
-96.93007599956848708
 20
32.83696800007214733
  0
LWPOLYLINE
  5
208
  8
Trans_RoadSegment_Full
100
AcDbEntity
100
AcDbPolyline
  6
CONTINUOUS
420
12011595
 90
     2
 70
     0
 43
0.00233561973871076
 10
-96.92479799957669684
 20
32.83660800007271519
 10
-96.92415299957770003
 20
32.83660200007273033
  0
LWPOLYLINE
  5
209
  8
Trans_RoadSegment_Full
100
AcDbEntity
100
AcDbPolyline
  6
CONTINUOUS
420
12011595
 90
     7
 70
     0
 43
0.00233561973871076
 10
-96.9350309995608086
 20
32.84763300005562314
 10
-96.93433799956187613
 20
32.84752100005579223
 10
-96.93425499956202884
 20
32.84753200005576446
 10
-96.93420599956209571
 20
32.84756000005569376
 10
-96.93415999956215501
 20
32.84758500005568749
 10
-96.93412899956217643
 20
32.84764400005559537
 10
-96.93401099956236067
 20
32.84821600005471964
  0
LWPOLYLINE
  5
20a
  8
Trans_RoadSegment_Full
100
AcDbEntity
100
AcDbPolyline
  6
CONTINUOUS
420
12011595
 90
     5
 70
     0
 43
0.00233561973871076
 10
-96.93123099956670785
 20
32.85117300005009611
 10
-96.93140199956644665
 20
32.85129500004990177
 10
-96.93173299956589517
 20
32.85146100004965319
 10
-96.93181499956580183
 20
32.85147200004962542
 10
-96.93211999956531599
 20
32.85144600004969107
  0
LWPOLYLINE
  5
20b
  8
Trans_RoadSegment_Full
100
AcDbEntity
100
AcDbPolyline
  6
CONTINUOUS
420
12011595
 90
     4
 70
     0
 43
0.00233561973871076
 10
-96.9302659995681779
 20
32.83768800007106847
 10
-96.93025999956819305
 20
32.83837900006994914
 10
-96.9302419995682385
 20
32.84298800006280317
 10
-96.93022999956826879
 20
32.84412500006106939
  0
LWPOLYLINE
  5
20c
  8
Trans_RoadSegment_Full
100
AcDbEntity
100
AcDbPolyline
  6
CONTINUOUS
420
12011595
 90
    20
 70
     0
 43
0.00233561973871076
 10
-96.92826499957129727
 20
32.85507800004404544
 10
-96.92848199957097677
 20
32.85478200004450855
 10
-96.92861099957076476
 20
32.85457700004479875
 10
-96.92869699957060448
 20
32.8543880000451054
 10
-96.92875299957051993
 20
32.85423000004539063
 10
-96.92887799957037487
 20
32.85359700004636352
 10
-96.92891199957028903
 20
32.85346700004652121
 10
-96.92894199957027013
 20
32.85332600004676351
 10
-96.92901099957015276
 20
32.85317100004698432
 10
-96.92926999956972622
 20
32.85275900004762661
 10
-96.92945899956941957
 20
32.8524440000481377
 10
-96.92957499956924039
 20
32.85227100004840395
 10
-96.92976899956897796
 20
32.85207500004872827
 10
-96.9298459995688404
 20
32.85198500004884181
 10
-96.93001299956858929
 20
32.85185100004906644
 10
-96.93015899956833437
 20
32.85175000004920776
 10
-96.93022799956827384
 20
32.85169200004929735
 10
-96.93036199956804921
 20
32.85156600004950178
 10
-96.93041299956797729
 20
32.8515110000495838
 10
-96.93082999956732237
 20
32.85098600005039771
  0
LWPOLYLINE
  5
20d
  8
Trans_RoadSegment_Full
100
AcDbEntity
100
AcDbPolyline
  6
CONTINUOUS
420
12011595
 90
     4
 70
     0
 43
0.00233561973871076
 10
-96.93022999956826879
 20
32.84412500006106939
 10
-96.92896899957020196
 20
32.84409400006109081
 10
-96.92824299957135281
 20
32.84409000006110091
 10
-96.9279099995718525
 20
32.84410500006106304
  0
LWPOLYLINE
  5
20e
  8
Trans_RoadSegment_Full
100
AcDbEntity
100
AcDbPolyline
  6
CONTINUOUS
420
12011595
 90
     6
 70
     0
 43
0.00233561973871076
 10
-96.92858299957077861
 20
32.84808300005488491
 10
-96.92789699957188532
 20
32.84859500005410382
 10
-96.92771499957217429
 20
32.8490160000534388
 10
-96.92789699957188532
 20
32.84934200005295679
 10
-96.92823899957136291
 20
32.84993500005202804
 10
-96.9282839995712493
 20
32.85020300005163563
  0
LWPOLYLINE
  5
20f
  8
Trans_RoadSegment_Full
100
AcDbEntity
100
AcDbPolyline
  6
CONTINUOUS
420
12011595
 90
     2
 70
     0
 43
0.00233561973871076
 10
-96.92402299957785772
 20
32.85277700004763801
 10
-96.92322999957912089
 20
32.85238500004822981
  0
LWPOLYLINE
  5
210
  8
Trans_RoadSegment_Full
100
AcDbEntity
100
AcDbPolyline
  6
CONTINUOUS
420
12011595
 90
     3
 70
     0
 43
0.00233561973871076
 10
-96.91788299958739117
 20
32.84914700005327859
 10
-96.91699799958877293
 20
32.84872400005389181
 10
-96.91676799958912625
 20
32.84862000005409755
  0
LWPOLYLINE
  5
211
  8
Trans_RoadSegment_Full
100
AcDbEntity
100
AcDbPolyline
  6
CONTINUOUS
420
12011595
 90
     6
 70
     0
 43
0.00233561973871076
 10
-96.91604399959027205
 20
32.84994700005199775
 10
-96.9160499995902569
 20
32.85001800005187533
 10
-96.91606399959022156
 20
32.85085600005061224
 10
-96.91607299959019883
 20
32.85181900004909039
 10
-96.91607799959024305
 20
32.85233100004830931
 10
-96.91611599959014711
 20
32.85246900004807458
  0
LWPOLYLINE
  5
212
  8
Trans_RoadSegment_Full
100
AcDbEntity
100
AcDbPolyline
  6
CONTINUOUS
420
12011595
 90
     2
 70
     0
 43
0.00233561973871076
 10
-96.9162049995900361
 20
32.84833300005453793
 10
-96.9160219995903276
 20
32.84827300005463258
  0
LWPOLYLINE
  5
213
  8
Trans_RoadSegment_Full
100
AcDbEntity
100
AcDbPolyline
  6
CONTINUOUS
420
12011595
 90
     2
 70
     0
 43
0.00233561973871076
 10
-96.9160159995902859
 20
32.8492210000531486
 10
-96.91621899959000075
 20
32.84930500005299336
  0
LWPOLYLINE
  5
214
  8
Trans_RoadSegment_Full
100
AcDbEntity
100
AcDbPolyline
  6
CONTINUOUS
420
12011595
 90
     2
 70
     0
 43
0.00233561973871076
 10
-96.91224399959617131
 20
32.84598400005813801
 10
-96.91230599959607162
 20
32.84627900005767742
  0
LWPOLYLINE
  5
215
  8
Trans_RoadSegment_Full
100
AcDbEntity
100
AcDbPolyline
  6
CONTINUOUS
420
12011595
 90
     6
 70
     0
 43
0.00233561973871076
 10
-96.90788099960292357
 20
32.85135900004979703
 10
-96.90762699960333748
 20
32.85173800004923805
 10
-96.90745399960360373
 20
32.85201700004881786
 10
-96.90617199960558992
 20
32.85399500004575657
 10
-96.90609799960571991
 20
32.85410600004553316
 10
-96.90492599960754205
 20
32.8559120000427356
  0
LWPOLYLINE
  5
216
  8
Trans_RoadSegment_Full
100
AcDbEntity
100
AcDbPolyline
  6
CONTINUOUS
420
12011595
 90
     2
 70
     0
 43
0.00233561973871076
 10
-96.93022999956826879
 20
32.84412500006106939
 10
-96.93022799956827384
 20
32.84432400006073749
  0
LWPOLYLINE
  5
217
  8
Trans_RoadSegment_Full
100
AcDbEntity
100
AcDbPolyline
  6
CONTINUOUS
420
12011595
 90
     5
 70
     0
 43
0.00233561973871076
 10
-96.9273309995727459
 20
32.84528400005922322
 10
-96.92735699957268025
 20
32.84523300005935198
 10
-96.92765799957226136
 20
32.84467300006019741
 10
-96.92776599957204553
 20
32.84451000006043841
 10
-96.92783999957197238
 20
32.84430700006078041
  0
LWPOLYLINE
  5
218
  8
Trans_RoadSegment_Full
100
AcDbEntity
100
AcDbPolyline
  6
CONTINUOUS
420
12011595
 90
     2
 70
     0
 43
0.00233561973871076
 10
-96.91482399959215854
 20
32.8367540000725171
 10
-96.91467899959241095
 20
32.83675600007251205
  0
LWPOLYLINE
  5
219
  8
Trans_RoadSegment_Full
100
AcDbEntity
100
AcDbPolyline
  6
CONTINUOUS
420
12011595
 90
     2
 70
     0
 43
0.00233561973871076
 10
-96.91467899959241095
 20
32.83675600007251205
 10
-96.91457599959255731
 20
32.83675700007250953
  0
LWPOLYLINE
  5
21a
  8
Trans_RoadSegment_Full
100
AcDbEntity
100
AcDbPolyline
  6
CONTINUOUS
420
12011595
 90
     9
 70
     0
 43
0.00233561973871076
 10
-96.90916199960093991
 20
32.83675900007250448
 10
-96.90882499960144969
 20
32.83680100007239844
 10
-96.90865699960176016
 20
32.83680100007239844
 10
-96.90849299960200369
 20
32.83681800007241236
 10
-96.90810799960257782
 20
32.83687100007233539
 10
-96.90786499960296396
 20
32.83693800007222308
 10
-96.90748399960352799
 20
32.83703500007203502
 10
-96.90707299960416776
 20
32.83719500007180159
 10
-96.90676699960465612
 20
32.83738100007150251
  0
LWPOLYLINE
  5
21b
  8
Trans_RoadSegment_Full
100
AcDbEntity
100
AcDbPolyline
  6
CONTINUOUS
420
12011595
 90
     2
 70
     0
 43
0.00233561973871076
 10
-96.92194799958110707
 20
32.84622800005780618
 10
-96.92317699957919785
 20
32.84621400005778469
  0
LWPOLYLINE
  5
21c
  8
Trans_RoadSegment_Full
100
AcDbEntity
100
AcDbPolyline
  6
CONTINUOUS
420
12011595
 90
    22
 70
     0
 43
0.00233561973871076
 10
-96.92283199957972784
 20
32.85219000004855161
 10
-96.922933999579584
 20
32.85200900004883806
 10
-96.92303499957944268
 20
32.85186100004904119
 10
-96.9231169995792925
 20
32.85169100004929987
 10
-96.92317299957920795
 20
32.85155400004953208
 10
-96.92321699957915371
 20
32.85119400005009993
 10
-96.92323599957910574
 20
32.85082800005062609
 10
-96.92323599957910574
 20
32.85070100005083304
 10
-96.92321099957916886
 20
32.85059600005098446
 10
-96.9231289995792622
 20
32.85048400005115354
 10
-96.92304099957942753
 20
32.85042600005124314
 10
-96.92289599957962309
 20
32.85037200005137947
 10
-96.92267499957995369
 20
32.85034700005138575
 10
-96.92244799958035628
 20
32.85032600005143877
 10
-96.92230299958055184
 20
32.85032600005143877
 10
-96.92223999958065406
 20
32.85029900005145009
 10
-96.92206999958091274
 20
32.85016100005168482
 10
-96.92190599958115627
 20
32.84999200005194098
 10
-96.92175499958142382
 20
32.84986000005216056
 10
-96.92171699958146291
 20
32.84979100005227792
 10
-96.92168599958148434
 20
32.84970500005238137
 10
-96.92170599958149069
 20
32.84931700005296307
  0
LWPOLYLINE
  5
21d
  8
Trans_RoadSegment_Full
100
AcDbEntity
100
AcDbPolyline
  6
CONTINUOUS
420
12011595
 90
     2
 70
     0
 43
0.00233561973871076
 10
-96.91618999959001712
 20
32.85001800005187533
 10
-96.91604399959027205
 20
32.84994700005199775
  0
LWPOLYLINE
  5
21e
  8
Trans_RoadSegment_Full
100
AcDbEntity
100
AcDbPolyline
  6
CONTINUOUS
420
12011595
 90
     2
 70
     0
 43
0.00233561973871076
 10
-96.91517799959160584
 20
32.8405600000666027
 10
-96.91531899959142038
 20
32.84056500006659007
  0
LWPOLYLINE
  5
21f
  8
Trans_RoadSegment_Full
100
AcDbEntity
100
AcDbPolyline
  6
CONTINUOUS
420
12011595
 90
     3
 70
     0
 43
0.00233561973871076
 10
-96.91458299959253964
 20
32.83967400006793014
 10
-96.91441299959279831
 20
32.84026600006706076
 10
-96.91435199959289548
 20
32.84045000006676673
  0
LWPOLYLINE
  5
220
  8
Trans_RoadSegment_Full
100
AcDbEntity
100
AcDbPolyline
  6
CONTINUOUS
420
12011595
 90
     5
 70
     0
 43
0.00233561973871076
 10
-96.91307299959487409
 20
32.83751900007132463
 10
-96.91303999959495741
 20
32.83749900007131828
 10
-96.9129439995950861
 20
32.83742500007144827
 10
-96.91279999959527913
 20
32.83733600007155928
 10
-96.91265499959553154
 20
32.83729000007167542
  0
LWPOLYLINE
  5
221
  8
Trans_RoadSegment_Full
100
AcDbEntity
100
AcDbPolyline
  6
CONTINUOUS
420
12011595
 90
     4
 70
     0
 43
0.00233561973871076
 10
-96.90704499960423846
 20
32.83807100007044255
 10
-96.90672199960471289
 20
32.83823400007020155
 10
-96.9064139996052063
 20
32.83839300006997064
 10
-96.90565699960637858
 20
32.83884500006922735
  0
LWPOLYLINE
  5
222
  8
Trans_RoadSegment_Full
100
AcDbEntity
100
AcDbPolyline
  6
CONTINUOUS
420
12011595
 90
     3
 70
     0
 43
0.00233561973871076
 10
-96.90532199960688331
 20
32.83908900006883869
 10
-96.90491299960751803
 20
32.83938800006842484
 10
-96.90422799960862221
 20
32.83986600006767276
  0
ENDSEC
  0
SECTION
  2
OBJECTS
  0
DICTIONARY
  5
C
330
0
100
AcDbDictionary
281
     1
  3
ACAD_GROUP
350
D
  3
ACAD_LAYOUT
350
1A
  3
ACAD_MLEADERSTYLE
350
43
  3
ACAD_MLINESTYLE
350
17
  3
ACAD_PLOTSETTINGS
350
19
  3
ACAD_PLOTSTYLENAME
350
E
  3
ACAD_TABLESTYLE
350
42
  3
ACAD_VISUALSTYLE
350
2A
  0
DICTIONARY
  5
D
102
{ACAD_REACTORS
330
C
102
}
330
C
100
AcDbDictionary
281
     1
  0
DICTIONARY
  5
1A
102
{ACAD_REACTORS
330
C
102
}
330
C
100
AcDbDictionary
281
     1
  3
Layout1
350
1E
  3
Layout2
350
26
  3
Model
350
22
  0
DICTIONARY
  5
43
102
{ACAD_REACTORS
330
C
102
}
330
C
100
AcDbDictionary
281
     1
  0
DICTIONARY
  5
17
102
{ACAD_REACTORS
330
C
102
}
330
C
100
AcDbDictionary
281
     1
  3
Standard
350
18
  0
DICTIONARY
  5
19
102
{ACAD_REACTORS
330
C
102
}
330
C
100
AcDbDictionary
281
     1
  0
ACDBDICTIONARYWDFLT
  5
E
102
{ACAD_REACTORS
330
C
102
}
330
C
100
AcDbDictionary
281
     1
  3
Normal
350
F
100
AcDbDictionaryWithDefault
340
F
  0
DICTIONARY
  5
42
102
{ACAD_REACTORS
330
C
102
}
330
C
100
AcDbDictionary
281
     1
  0
DICTIONARY
  5
2A
102
{ACAD_REACTORS
330
C
102
}
330
C
100
AcDbDictionary
281
     1
  3
2dWireframe
350
2F
  3
3D Hidden
350
31
  3
3dWireframe
350
30
  3
Basic
350
32
  3
Brighten
350
36
  3
ColorChange
350
3A
  3
Conceptual
350
34
  3
Dim
350
35
  3
Facepattern
350
39
  3
Flat
350
2B
  3
FlatWithEdges
350
2C
  3
Gouraud
350
2D
  3
GouraudWithEdges
350
2E
  3
Linepattern
350
38
  3
Realistic
350
33
  3
Thicken
350
37
  0
LAYOUT
  5
1E
102
{ACAD_REACTORS
330
1A
102
}
330
1A
100
AcDbPlotSettings
  1

  2
none_device
  4

  6

 40
0.0
 41
0.0
 42
0.0
 43
0.0
 44
0.0
 45
0.0
 46
0.0
 47
0.0
 48
0.0
 49
0.0
140
0.0
141
0.0
142
1.0
143
1.0
 70
   688
 72
     0
 73
     0
 74
     5
  7

 75
    16
 76
     0
 77
     2
 78
   300
147
1.0
148
0.0
149
0.0
100
AcDbLayout
  1
Layout1
 70
     1
 71
     1
 10
0.0
 20
0.0
 11
12.0
 21
9.0
 12
0.0
 22
0.0
 32
0.0
 14
1.000000000000000E+20
 24
1.000000000000000E+20
 34
1.000000000000000E+20
 15
-1.000000000000000E+20
 25
-1.000000000000000E+20
 35
-1.000000000000000E+20
146
0.0
 13
0.0
 23
0.0
 33
0.0
 16
1.0
 26
0.0
 36
0.0
 17
0.0
 27
1.0
 37
0.0
 76
     0
330
1B
  0
LAYOUT
  5
26
102
{ACAD_REACTORS
330
1A
102
}
330
1A
100
AcDbPlotSettings
  1

  2
none_device
  4

  6

 40
0.0
 41
0.0
 42
0.0
 43
0.0
 44
0.0
 45
0.0
 46
0.0
 47
0.0
 48
0.0
 49
0.0
140
0.0
141
0.0
142
1.0
143
1.0
 70
   688
 72
     0
 73
     0
 74
     5
  7

 75
    16
 76
     0
 77
     2
 78
   300
147
1.0
148
0.0
149
0.0
100
AcDbLayout
  1
Layout2
 70
     1
 71
     2
 10
0.0
 20
0.0
 11
0.0
 21
0.0
 12
0.0
 22
0.0
 32
0.0
 14
0.0
 24
0.0
 34
0.0
 15
0.0
 25
0.0
 35
0.0
146
0.0
 13
0.0
 23
0.0
 33
0.0
 16
1.0
 26
0.0
 36
0.0
 17
0.0
 27
1.0
 37
0.0
 76
     0
330
23
  0
LAYOUT
  5
22
102
{ACAD_REACTORS
330
1A
102
}
330
1A
100
AcDbPlotSettings
  1

  2
none_device
  4

  6

 40
0.0
 41
0.0
 42
0.0
 43
0.0
 44
0.0
 45
0.0
 46
0.0
 47
0.0
 48
0.0
 49
0.0
140
0.0
141
0.0
142
1.0
143
1.0
 70
  1712
 72
     0
 73
     0
 74
     0
  7

 75
     0
 76
     0
 77
     2
 78
   300
147
1.0
148
0.0
149
0.0
100
AcDbLayout
  1
Model
 70
     1
 71
     0
 10
0.0
 20
0.0
 11
12.0
 21
9.0
 12
0.0
 22
0.0
 32
0.0
 14
30.0
 24
49.75
 34
0.0
 15
130.5
 25
163.1318914119703
 35
0.0
146
0.0
 13
0.0
 23
0.0
 33
0.0
 16
1.0
 26
0.0
 36
0.0
 17
0.0
 27
1.0
 37
0.0
 76
     0
330
1F
331
29
  0
MLINESTYLE
  5
18
102
{ACAD_REACTORS
330
17
102
}
330
17
100
AcDbMlineStyle
  2
Standard
 70
     0
  3

 62
   256
 51
90.0
 52
90.0
 71
     2
 49
0.5
 62
   256
  6
BYLAYER
 49
-0.5
 62
   256
  6
BYLAYER
  0
ACDBPLACEHOLDER
  5
F
102
{ACAD_REACTORS
330
E
102
}
330
E
  0
VISUALSTYLE
  5
2F
102
{ACAD_REACTORS
330
2A
102
}
330
2A
100
AcDbVisualStyle
  2
2dWireframe
 70
     4
 71
     0
 72
     2
 73
     0
 90
        0
 40
-0.6
 41
-30.0
 62
     5
 63
     7
421
 16777215
 74
     1
 91
        4
 64
     7
 65
   257
 75
     1
175
     1
 42
1.0
 92
        0
 66
   257
 43
1.0
 76
     1
 77
     6
 78
     2
 67
     7
 79
     5
170
     0
171
     0
290
     0
174
     0
 93
        1
 44
0.0
173
     0
291
     0
 45
0.0
1001
ACAD
1000
AcDbSavedByObjectVersion
1070
     0
  0
VISUALSTYLE
  5
31
102
{ACAD_REACTORS
330
2A
102
}
330
2A
100
AcDbVisualStyle
  2
3D Hidden
 70
     6
 71
     1
 72
     2
 73
     2
 90
        0
 40
-0.6
 41
-30.0
 62
     5
 63
     7
421
 16777215
 74
     2
 91
        2
 64
     7
 65
   257
 75
     2
175
     1
 42
40.0
 92
        0
 66
   257
 43
1.0
 76
     1
 77
     6
 78
     2
 67
     7
 79
     3
170
     0
171
     0
290
     0
174
     0
 93
        1
 44
0.0
173
     0
291
     0
 45
0.0
1001
ACAD
1000
AcDbSavedByObjectVersion
1070
     0
  0
VISUALSTYLE
  5
30
102
{ACAD_REACTORS
330
2A
102
}
330
2A
100
AcDbVisualStyle
  2
3dWireframe
 70
     5
 71
     0
 72
     2
 73
     0
 90
        0
 40
-0.6
 41
-30.0
 62
     5
 63
     7
421
 16777215
 74
     1
 91
        4
 64
     7
 65
   257
 75
     1
175
     1
 42
1.0
 92
        0
 66
   257
 43
1.0
 76
     1
 77
     6
 78
     2
 67
     7
 79
     5
170
     0
171
     0
290
     0
174
     0
 93
        1
 44
0.0
173
     0
291
     0
 45
0.0
1001
ACAD
1000
AcDbSavedByObjectVersion
1070
     0
  0
VISUALSTYLE
  5
32
102
{ACAD_REACTORS
330
2A
102
}
330
2A
100
AcDbVisualStyle
  2
Basic
 70
     7
 71
     1
 72
     0
 73
     1
 90
        0
 40
-0.6
 41
-30.0
 62
     5
 63
     7
421
 16777215
 74
     0
 91
        4
 64
     7
 65
   257
 75
     1
175
     1
 42
1.0
 92
        8
 66
     7
 43
1.0
 76
     1
 77
     6
 78
     2
 67
     7
 79
     5
170
     0
171
     0
290
     0
174
     0
 93
        1
 44
0.0
173
     0
291
     1
 45
0.0
1001
ACAD
1000
AcDbSavedByObjectVersion
1070
     0
  0
VISUALSTYLE
  5
36
102
{ACAD_REACTORS
330
2A
102
}
330
2A
100
AcDbVisualStyle
  2
Brighten
 70
    12
 71
     2
 72
     2
 73
     0
 90
        0
 40
-0.6
 41
-30.0
 62
     5
 63
     7
421
 16777215
 74
     1
 91
        4
 64
     7
 65
   257
 75
     1
175
     1
 42
1.0
 92
        8
 66
     7
 43
1.0
 76
     1
 77
     6
 78
     2
 67
     7
 79
     5
170
     0
171
     0
290
     0
174
     0
 93
        1
 44
50.0
173
     0
291
     1
 45
0.0
1001
ACAD
1000
AcDbSavedByObjectVersion
1070
     0
  0
VISUALSTYLE
  5
3A
102
{ACAD_REACTORS
330
2A
102
}
330
2A
100
AcDbVisualStyle
  2
ColorChange
 70
    16
 71
     2
 72
     2
 73
     3
 90
        0
 40
-0.6
 41
-30.0
 62
     5
 63
     8
421
  8421504
 74
     1
 91
        4
 64
     7
 65
   257
 75
     1
175
     1
 42
1.0
 92
        8
 66
     8
424
  8421504
 43
1.0
 76
     1
 77
     6
 78
     2
 67
     7
 79
     5
170
     0
171
     0
290
     0
174
     0
 93
        1
 44
0.0
173
     0
291
     1
 45
0.0
1001
ACAD
1000
AcDbSavedByObjectVersion
1070
     0
  0
VISUALSTYLE
  5
34
102
{ACAD_REACTORS
330
2A
102
}
330
2A
100
AcDbVisualStyle
  2
Conceptual
 70
     9
 71
     3
 72
     2
 73
     0
 90
        0
 40
-0.6
 41
-30.0
 62
     5
 63
     7
421
 16777215
 74
     2
 91
        2
 64
     7
 65
   257
 75
     1
175
     1
 42
40.0
 92
        8
 66
     7
 43
1.0
 76
     1
 77
     6
 78
     2
 67
     7
 79
     3
170
     0
171
     0
290
     0
174
     0
 93
        1
 44
0.0
173
     0
291
     0
 45
0.0
1001
ACAD
1000
AcDbSavedByObjectVersion
1070
     0
  0
VISUALSTYLE
  5
35
102
{ACAD_REACTORS
330
2A
102
}
330
2A
100
AcDbVisualStyle
  2
Dim
 70
    11
 71
     2
 72
     2
 73
     0
 90
        0
 40
-0.6
 41
-30.0
 62
     5
 63
     7
421
 16777215
 74
     1
 91
        4
 64
     7
 65
   257
 75
     1
175
     1
 42
1.0
 92
        8
 66
     7
 43
1.0
 76
     1
 77
     6
 78
     2
 67
     7
 79
     5
170
     0
171
     0
290
     0
174
     0
 93
        1
 44
-50.0
173
     0
291
     1
 45
0.0
1001
ACAD
1000
AcDbSavedByObjectVersion
1070
     0
  0
VISUALSTYLE
  5
39
102
{ACAD_REACTORS
330
2A
102
}
330
2A
100
AcDbVisualStyle
  2
Facepattern
 70
    15
 71
     2
 72
     2
 73
     0
 90
        0
 40
-0.6
 41
-30.0
 62
     5
 63
     7
421
 16777215
 74
     1
 91
        4
 64
     7
 65
   257
 75
     1
175
     1
 42
1.0
 92
        8
 66
     7
 43
1.0
 76
     1
 77
     6
 78
     2
 67
     7
 79
     5
170
     0
171
     0
290
     0
174
     0
 93
        1
 44
0.0
173
     0
291
     1
 45
0.0
1001
ACAD
1000
AcDbSavedByObjectVersion
1070
     0
  0
VISUALSTYLE
  5
2B
102
{ACAD_REACTORS
330
2A
102
}
330
2A
100
AcDbVisualStyle
  2
Flat
 70
     0
 71
     2
 72
     1
 73
     1
 90
        2
 40
-0.6
 41
30.0
 62
     5
 63
     7
421
 16777215
 74
     0
 91
        4
 64
     7
 65
   257
 75
     1
175
     1
 42
1.0
 92
        8
 66
     7
 43
1.0
 76
     1
 77
     6
 78
     2
 67
     7
 79
     5
170
     0
171
     0
290
     0
174
     0
 93
       13
 44
0.0
173
     0
291
     1
 45
0.0
1001
ACAD
1000
AcDbSavedByObjectVersion
1070
     0
  0
VISUALSTYLE
  5
2C
102
{ACAD_REACTORS
330
2A
102
}
330
2A
100
AcDbVisualStyle
  2
FlatWithEdges
 70
     1
 71
     2
 72
     1
 73
     1
 90
        2
 40
-0.6
 41
30.0
 62
     5
 63
     7
421
 16777215
 74
     1
 91
        4
 64
     7
 65
   257
 75
     1
175
     1
 42
1.0
 92
        0
 66
   257
 43
1.0
 76
     1
 77
     6
 78
     2
 67
     7
 79
     5
170
     0
171
     0
290
     0
174
     0
 93
       13
 44
0.0
173
     0
291
     1
 45
0.0
1001
ACAD
1000
AcDbSavedByObjectVersion
1070
     0
  0
VISUALSTYLE
  5
2D
102
{ACAD_REACTORS
330
2A
102
}
330
2A
100
AcDbVisualStyle
  2
Gouraud
 70
     2
 71
     2
 72
     2
 73
     1
 90
        2
 40
-0.6
 41
30.0
 62
     5
 63
     7
421
 16777215
 74
     0
 91
        4
 64
     7
 65
   257
 75
     1
175
     1
 42
1.0
 92
        0
 66
     7
 43
1.0
 76
     1
 77
     6
 78
     2
 67
     7
 79
     5
170
     0
171
     0
290
     0
174
     0
 93
       13
 44
0.0
173
     0
291
     1
 45
0.0
1001
ACAD
1000
AcDbSavedByObjectVersion
1070
     0
  0
VISUALSTYLE
  5
2E
102
{ACAD_REACTORS
330
2A
102
}
330
2A
100
AcDbVisualStyle
  2
GouraudWithEdges
 70
     3
 71
     2
 72
     2
 73
     1
 90
        2
 40
-0.6
 41
30.0
 62
     5
 63
     7
421
 16777215
 74
     1
 91
        4
 64
     7
 65
   257
 75
     1
175
     1
 42
1.0
 92
        0
 66
   257
 43
1.0
 76
     1
 77
     6
 78
     2
 67
     7
 79
     5
170
     0
171
     0
290
     0
174
     0
 93
       13
 44
0.0
173
     0
291
     1
 45
0.0
1001
ACAD
1000
AcDbSavedByObjectVersion
1070
     0
  0
VISUALSTYLE
  5
38
102
{ACAD_REACTORS
330
2A
102
}
330
2A
100
AcDbVisualStyle
  2
Linepattern
 70
    14
 71
     2
 72
     2
 73
     0
 90
        0
 40
-0.6
 41
-30.0
 62
     5
 63
     7
421
 16777215
 74
     1
 91
        4
 64
     7
 65
   257
 75
     7
175
     7
 42
1.0
 92
        8
 66
     7
 43
1.0
 76
     1
 77
     6
 78
     2
 67
     7
 79
     5
170
     0
171
     0
290
     0
174
     0
 93
        1
 44
0.0
173
     0
291
     1
 45
0.0
1001
ACAD
1000
AcDbSavedByObjectVersion
1070
     0
  0
VISUALSTYLE
  5
33
102
{ACAD_REACTORS
330
2A
102
}
330
2A
100
AcDbVisualStyle
  2
Realistic
 70
     8
 71
     2
 72
     2
 73
     0
 90
        0
 40
-0.6
 41
-30.0
 62
     5
 63
     7
421
 16777215
 74
     1
 91
        0
 64
     7
 65
   257
 75
     1
175
     1
 42
1.0
 92
        8
 66
     8
424
  7895160
 43
1.0
 76
     1
 77
     6
 78
     2
 67
     7
 79
     5
170
     0
171
     0
290
     0
174
     0
 93
       13
 44
0.0
173
     0
291
     0
 45
0.0
1001
ACAD
1000
AcDbSavedByObjectVersion
1070
     0
  0
VISUALSTYLE
  5
37
102
{ACAD_REACTORS
330
2A
102
}
330
2A
100
AcDbVisualStyle
  2
Thicken
 70
    13
 71
     2
 72
     2
 73
     0
 90
        0
 40
-0.6
 41
-30.0
 62
     5
 63
     7
421
 16777215
 74
     1
 91
        4
 64
     7
 65
   257
 75
     1
175
     1
 42
1.0
 92
       12
 66
     7
 43
1.0
 76
     1
 77
     6
 78
     2
 67
     7
 79
     5
170
     0
171
     0
290
     0
174
     0
 93
        1
 44
0.0
173
     0
291
     1
 45
0.0
1001
ACAD
1000
AcDbSavedByObjectVersion
1070
     0
  0
ENDSEC
  0
EOF
